{
.appVersion = "1273";
copyright = "Copyright 2010 Google Inc. All Rights Reserved.";
customParameters = (
{
name = glyphOrder;
value = (
.notdef,
.null,
nonmarkingreturn,
space,
exclam,
quotedbl,
numbersign,
dollar,
percent,
ampersand,
quotesingle,
parenleft,
parenright,
asterisk,
plus,
comma,
hyphen,
period,
slash,
zero,
one,
two,
three,
four,
five,
six,
seven,
eight,
nine,
colon,
semicolon,
less,
equal,
greater,
question,
at,
A,
B,
C,
D,
E,
F,
G,
H,
I,
J,
K,
L,
M,
N,
O,
P,
Q,
R,
S,
T,
U,
V,
W,
X,
Y,
Z,
bracketleft,
backslash,
bracketright,
asciicircum,
underscore,
grave,
a,
b,
c,
d,
e,
f,
g,
h,
i,
j,
k,
l,
m,
n,
o,
p,
q,
r,
s,
t,
u,
v,
w,
x,
y,
z,
braceleft,
bar,
braceright,
asciitilde,
Adieresis,
Aring,
Ccedilla,
Eacute,
Ntilde,
Odieresis,
Udieresis,
aacute,
agrave,
acircumflex,
adieresis,
atilde,
aring,
ccedilla,
eacute,
egrave,
ecircumflex,
edieresis,
iacute,
igrave,
icircumflex,
idieresis,
ntilde,
oacute,
ograve,
ocircumflex,
odieresis,
otilde,
uacute,
ugrave,
ucircumflex,
udieresis,
dagger,
degree,
cent,
sterling,
section,
bullet,
paragraph,
germandbls,
registered,
copyright,
trademark,
acute,
dieresis,
notequal,
AE,
Oslash,
infinity,
plusminus,
lessequal,
greaterequal,
yen,
mu1,
partialdiff,
summation,
product,
integral,
ordfeminine,
ordmasculine,
Ohm,
ae,
oslash,
questiondown,
exclamdown,
logicalnot,
radical,
florin,
approxequal,
uni2206,
guillemotleft,
guillemotright,
ellipsis,
Agrave,
Atilde,
Otilde,
OE,
oe,
endash,
emdash,
quotedblleft,
quotedblright,
quoteleft,
quoteright,
divide,
lozenge,
ydieresis,
Ydieresis,
fraction,
Euro,
guilsinglleft,
guilsinglright,
fi,
fl,
daggerdbl,
periodcentered,
quotesinglbase,
quotedblbase,
perthousand,
Acircumflex,
Ecircumflex,
Aacute,
Edieresis,
Egrave,
Iacute,
Icircumflex,
Idieresis,
Igrave,
Oacute,
Ocircumflex,
Ograve,
Uacute,
Ucircumflex,
Ugrave,
dotlessi,
circumflex,
tilde,
macron,
breve,
dotaccent,
ring,
cedilla,
hungarumlaut,
ogonek,
caron,
Lslash,
lslash,
Scaron,
scaron,
Zcaron,
zcaron,
brokenbar,
Eth,
eth,

glyphs = (
{
glyphname = .notdef;
lastChange = "2019-11-19 22:35:12 +0000";
layers = (
{
layerId = "E64FF656-58E6-4C13-B3CC-343A43FBFB06";
paths = (
{
closed = 1;
nodes = (
"205 0 LINE",
"1330 0 LINE",
"1330 1409 LINE",
"205 1409 LINE"
);
},
{
closed = 1;
nodes = (
"1254 1333 LINE",
"1254 76 LINE",
"281 76 LINE",
"281 1333 LINE"
);
}
);
width = 1536;
}
);
note = .notdef;
},
{
glyphname = exclam;
lastChange = "2019-11-19 22:35:12 +0000";
layers = (
{
layerId = "E64FF656-58E6-4C13-B3CC-343A43FBFB06";
paths = (
{
closed = 1;
nodes = (
"647 1409 LINE",
"353 1409 LINE",
"193 426 LINE",
"423 426 LINE"
);
},
{
closed = 1;
nodes = (
"367 0 LINE",
"419 270 LINE",
"131 270 LINE",
"79 0 LINE"
);
}
);
width = 682;
}
);
note = exclam;
unicode = 0021;
},
{
glyphname = quotedbl;
lastChange = "2019-11-19 22:35:12 +0000";
layers = (
{
layerId = "E64FF656-58E6-4C13-B3CC-343A43FBFB06";
paths = (
{
closed = 1;
nodes = (
"992 1409 LINE",
"717 1409 LINE",
"645 898 LINE",
"864 898 LINE"
);
},
{
closed = 1;
nodes = (
"564 1409 LINE",
"291 1409 LINE",
"219 898 LINE",
"438 898 LINE"
);
}
);
width = 971;
}
);
note = quotedbl;
unicode = 0022;
},
{
glyphname = numbersign;
lastChange = "2019-11-19 22:35:12 +0000";
layers = (
{
layerId = "E64FF656-58E6-4C13-B3CC-343A43FBFB06";
paths = (
{
closed = 1;
nodes = (
"1136 862 LINE",
"1136 1010 LINE",
"972 1010 LINE",
"1056 1395 LINE",
"900 1395 LINE",
"816 1010 LINE",
"509 1010 LINE",
"591 1395 LINE",
"438 1395 LINE",
"354 1010 LINE",
"116 1010 LINE",
"116 862 LINE",
"323 862 LINE",
"253 530 LINE",
"65 530 LINE",
"65 381 LINE",
"220 381 LINE",
"141 0 LINE",
"294 0 LINE",
"374 381 LINE",
"681 381 LINE",
"601 0 LINE",
"757 0 LINE",
"839 381 LINE",
"1085 381 LINE",
"1085 530 LINE",
"870 530 LINE",
"939 862 LINE"
);
},
{
closed = 1;
nodes = (
"786 862 LINE",
"716 530 LINE",
"407 530 LINE",
"479 862 LINE"
);
}
);
width = 1139;
}
);
note = numbersign;
unicode = 0023;
},
{
glyphname = dollar;
lastChange = "2019-11-19 22:35:12 +0000";
layers = (
{
layerId = "E64FF656-58E6-4C13-B3CC-343A43FBFB06";
paths = (
{
closed = 1;
nodes = (
"1080 610 OFFCURVE",
"883 787 OFFCURVE",
"674 837 QCURVE",
"741 1190 LINE",
"801 1190 OFFCURVE",
"882 1109 OFFCURVE",
"896 1032 QCURVE",
"1157 1089 LINE",
"1144 1228 OFFCURVE",
"941 1386 OFFCURVE",
"779 1386 QCURVE",
"806 1516 LINE",
"696 1520 LINE",
"672 1394 LINE",
"517 1394 OFFCURVE",
"269 1292 OFFCURVE",
"144 1111 OFFCURVE",
"144 988 QCURVE SMOOTH",
"144 854 OFFCURVE",
"338 664 OFFCURVE",
"518 619 QCURVE",
"445 231 LINE",
"265 231 OFFCURVE",
"251 408 QCURVE",
"-11 366 LINE",
"1 210 OFFCURVE",
"227 23 OFFCURVE",
"403 23 QCURVE",
"371 -152 LINE",
"483 -152 LINE",
"516 21 LINE",
"798 32 OFFCURVE",
"1080 261 OFFCURVE",
"1080 474 QCURVE SMOOTH"
);
},
{
closed = 1;
nodes = (
"810 329 OFFCURVE",
"669 231 OFFCURVE",
"554 231 QCURVE",
"627 593 LINE",
"722 571 OFFCURVE",
"810 490 OFFCURVE",
"810 413 QCURVE SMOOTH"
);
},
{
closed = 1;
nodes = (
"412 1088 OFFCURVE",
"534 1194 OFFCURVE",
"633 1194 QCURVE",
"566 863 LINE",
"477 892 OFFCURVE",
"412 957 OFFCURVE",
"412 1006 QCURVE SMOOTH"
);
}
);
width = 1139;
}
);
note = dollar;
unicode = 0024;
},
{
glyphname = percent;
lastChange = "2019-11-19 22:35:12 +0000";
layers = (
{
layerId = "E64FF656-58E6-4C13-B3CC-343A43FBFB06";
paths = (
{
closed = 1;
nodes = (
"220 1421 OFFCURVE",
"136 1015 QCURVE",
"112 930 OFFCURVE",
"112 841 QCURVE SMOOTH",
"112 692 OFFCURVE",
"265 524 OFFCURVE",
"407 524 QCURVE SMOOTH",
"511 524 OFFCURVE",
"678 618 OFFCURVE",
"800 798 OFFCURVE",
"829 935 QCURVE",
"855 1031 OFFCURVE",
"855 1113 QCURVE SMOOTH",
"855 1262 OFFCURVE",
"696 1421 OFFCURVE",
"546 1421 QCURVE SMOOTH"
);
},
{
closed = 1;
nodes = (
"641 1270 OFFCURVE",
"641 1131 QCURVE SMOOTH",
"641 1054 OFFCURVE",
"613 945 QCURVE",
"587 814 OFFCURVE",
"490 685 OFFCURVE",
"411 685 QCURVE SMOOTH",
"325 685 OFFCURVE",
"325 827 QCURVE SMOOTH",
"325 901 OFFCURVE",
"377 1150 OFFCURVE",
"467 1270 OFFCURVE",
"545 1270 QCURVE SMOOTH"
);
},
{
closed = 1;
nodes = (
"1129 882 OFFCURVE",
"1045 476 QCURVE",
"1021 391 OFFCURVE",
"1021 302 QCURVE SMOOTH",
"1021 153 OFFCURVE",
"1174 -15 OFFCURVE",
"1316 -15 QCURVE SMOOTH",
"1420 -15 OFFCURVE",
"1587 79 OFFCURVE",
"1709 259 OFFCURVE",
"1738 396 QCURVE",
"1764 492 OFFCURVE",
"1764 574 QCURVE SMOOTH",
"1764 723 OFFCURVE",
"1605 882 OFFCURVE",
"1455 882 QCURVE SMOOTH"
);
},
{
closed = 1;
nodes = (
"1550 731 OFFCURVE",
"1550 592 QCURVE SMOOTH",
"1550 515 OFFCURVE",
"1522 406 QCURVE",
"1496 275 OFFCURVE",
"1399 146 OFFCURVE",
"1320 146 QCURVE SMOOTH",
"1234 146 OFFCURVE",
"1234 288 QCURVE SMOOTH",
"1234 362 OFFCURVE",
"1286 611 OFFCURVE",
"1376 731 OFFCURVE",
"1454 731 QCURVE SMOOTH"
);
},
{
closed = 1;
nodes = (
"1574 1409 LINE",
"1375 1409 LINE",
"289 0 LINE",
"486 0 LINE"
);
}
);
width = 1821;
}
);
note = percent;
unicode = 0025;
},
{
glyphname = ampersand;
lastChange = "2019-11-19 22:35:12 +0000";
layers = (
{
layerId = "E64FF656-58E6-4C13-B3CC-343A43FBFB06";
paths = (
{
closed = 1;
nodes = (
"49 173 OFFCURVE",
"263 -20 OFFCURVE",
"464 -20 QCURVE SMOOTH",
"550 -20 OFFCURVE",
"688 5 OFFCURVE",
"792 50 OFFCURVE",
"863 105 QCURVE",
"994 -12 OFFCURVE",
"1168 -12 QCURVE SMOOTH",
"1241 -12 OFFCURVE",
"1307 10 QCURVE",
"1346 213 LINE",
"1298 197 OFFCURVE",
"1235 197 QCURVE SMOOTH",
"1126 197 OFFCURVE",
"1051 261 QCURVE",
"1134 346 OFFCURVE",
"1284 573 OFFCURVE",
"1329 677 QCURVE",
"1142 760 LINE",
"1041 537 OFFCURVE",
"908 395 QCURVE",
"855 466 OFFCURVE",
"779 608 OFFCURVE",
"736 727 QCURVE",
"942 811 OFFCURVE",
"1113 928 OFFCURVE",
"1204 1069 OFFCURVE",
"1204 1160 QCURVE SMOOTH",
"1204 1282 OFFCURVE",
"1027 1417 OFFCURVE",
"868 1417 QCURVE SMOOTH",
"669 1417 OFFCURVE",
"440 1209 OFFCURVE",
"440 1037 QCURVE SMOOTH",
"440 985 OFFCURVE",
"460 859 OFFCURVE",
"475 811 QCURVE",
"49 663 OFFCURVE",
"49 354 QCURVE SMOOTH"
);
},
{
closed = 1;
nodes = (
"408 170 OFFCURVE",
"304 275 OFFCURVE",
"304 360 QCURVE SMOOTH",
"304 443 OFFCURVE",
"401 575 OFFCURVE",
"525 631 QCURVE",
"601 413 OFFCURVE",
"725 249 QCURVE",
"680 215 OFFCURVE",
"556 170 OFFCURVE",
"493 170 QCURVE SMOOTH"
);
},
{
closed = 1;
nodes = (
"667 1137 OFFCURVE",
"770 1247 OFFCURVE",
"855 1247 QCURVE SMOOTH",
"913 1247 OFFCURVE",
"980 1193 OFFCURVE",
"980 1142 QCURVE SMOOTH",
"980 1091 OFFCURVE",
"929 1013 OFFCURVE",
"829 950 OFFCURVE",
"687 896 QCURVE",
"667 960 OFFCURVE",
"667 1041 QCURVE SMOOTH"
);
}
);
width = 1479;
}
);
note = ampersand;
unicode = 0026;
},
{
glyphname = quotesingle;
lastChange = "2019-11-19 22:35:12 +0000";
layers = (
{
layerId = "E64FF656-58E6-4C13-B3CC-343A43FBFB06";
paths = (
{
closed = 1;
nodes = (
"543 1409 LINE",
"271 1409 LINE",
"198 898 LINE",
"417 898 LINE"
);
}
);
width = 487;
}
);
note = quotesingle;
unicode = 0027;
},
{
glyphname = parenleft;
lastChange = "2019-11-19 22:35:12 +0000";
layers = (
{
layerId = "E64FF656-58E6-4C13-B3CC-343A43FBFB06";
paths = (
{
closed = 1;
nodes = (
"593 1484 LINE",
"338 1265 OFFCURVE",
"74 659 OFFCURVE",
"74 296 QCURVE SMOOTH",
"74 -109 OFFCURVE",
"222 -425 QCURVE",
"497 -425 LINE",
"350 -119 OFFCURVE",
"350 280 QCURVE SMOOTH",
"350 984 OFFCURVE",
"874 1484 QCURVE"
);
}
);
width = 682;
}
);
note = parenleft;
unicode = 0028;
},
{
glyphname = parenright;
lastChange = "2019-11-19 22:35:12 +0000";
layers = (
{
layerId = "E64FF656-58E6-4C13-B3CC-343A43FBFB06";
paths = (
{
closed = 1;
nodes = (
"101 -425 LINE",
"354 -204 OFFCURVE",
"622 418 OFFCURVE",
"622 793 QCURVE SMOOTH",
"622 1164 OFFCURVE",
"461 1484 QCURVE",
"196 1484 LINE",
"265 1341 OFFCURVE",
"345 979 OFFCURVE",
"345 809 QCURVE SMOOTH",
"345 88 OFFCURVE",
"-180 -425 QCURVE"
);
}
);
width = 682;
}
);
note = parenright;
unicode = 0029;
},
{
glyphname = asterisk;
lastChange = "2019-11-19 22:35:12 +0000";
layers = (
{
layerId = "E64FF656-58E6-4C13-B3CC-343A43FBFB06";
paths = (
{
closed = 1;
nodes = (
"592 1409 LINE",
"377 1409 LINE",
"395 1135 LINE",
"156 1239 LINE",
"88 1042 LINE",
"338 981 LINE",
"148 770 LINE",
"334 647 LINE",
"483 899 LINE",
"629 647 LINE",
"813 768 LINE",
"627 981 LINE",
"877 1042 LINE",
"809 1239 LINE",
"574 1135 LINE"
);
}
);
width = 797;
}
);
note = asterisk;
unicode = 002A;
},
{
glyphname = plus;
lastChange = "2019-11-19 22:35:12 +0000";
layers = (
{
layerId = "E64FF656-58E6-4C13-B3CC-343A43FBFB06";
paths = (
{
closed = 1;
nodes = (
"1152 569 LINE",
"1152 793 LINE",
"750 793 LINE",
"750 1201 LINE",
"524 1201 LINE",
"524 793 LINE",
"125 793 LINE",
"125 569 LINE",
"524 569 LINE",
"524 161 LINE",
"750 161 LINE",
"750 569 LINE"
);
}
);
width = 1196;
}
);
note = plus;
unicode = 002B;
},
{
glyphname = comma;
lastChange = "2019-11-19 22:35:12 +0000";
layers = (
{
layerId = "E64FF656-58E6-4C13-B3CC-343A43FBFB06";
paths = (
{
closed = 1;
nodes = (
"238 -237 OFFCURVE",
"324 -54 OFFCURVE",
"347 66 QCURVE SMOOTH",
"394 305 LINE",
"105 305 LINE",
"46 0 LINE",
"175 0 LINE",
"161 -73 OFFCURVE",
"58 -239 OFFCURVE",
"-20 -317 QCURVE",
"165 -317 LINE"
);
}
);
width = 569;
}
);
note = comma;
unicode = 002C;
},
{
glyphname = hyphen;
lastChange = "2019-11-19 22:35:12 +0000";
layers = (
{
layerId = "E64FF656-58E6-4C13-B3CC-343A43FBFB06";
paths = (
{
closed = 1;
nodes = (
"576 409 LINE",
"623 653 LINE",
"103 653 LINE",
"56 409 LINE"
);
}
);
width = 682;
}
);
note = hyphen;
unicode = "002D,00AD";
},
{
glyphname = period;
lastChange = "2019-11-19 22:35:12 +0000";
layers = (
{
layerId = "E64FF656-58E6-4C13-B3CC-343A43FBFB06";
paths = (
{
closed = 1;
nodes = (
"335 0 LINE",
"394 305 LINE",
"105 305 LINE",
"46 0 LINE"
);
}
);
width = 569;
}
);
note = period;
unicode = 002E;
},
{
glyphname = slash;
lastChange = "2019-11-19 22:35:12 +0000";
layers = (
{
layerId = "E64FF656-58E6-4C13-B3CC-343A43FBFB06";
paths = (
{
closed = 1;
nodes = (
"166 -41 LINE",
"749 1484 LINE",
"511 1484 LINE",
"-76 -41 LINE"
);
}
);
width = 569;
}
);
note = slash;
unicode = 002F;
},
{
glyphname = zero;
lastChange = "2019-11-19 22:35:12 +0000";
layers = (
{
layerId = "E64FF656-58E6-4C13-B3CC-343A43FBFB06";
paths = (
{
closed = 1;
nodes = (
"564 1430 OFFCURVE",
"332 1285 OFFCURVE",
"174 1003 OFFCURVE",
"85 593 OFFCURVE",
"85 454 QCURVE SMOOTH",
"85 215 OFFCURVE",
"278 -20 OFFCURVE",
"478 -20 QCURVE SMOOTH",
"937 -20 OFFCURVE",
"1081 665 QCURVE SMOOTH",
"1119 849 OFFCURVE",
"1119 964 QCURVE SMOOTH",
"1119 1430 OFFCURVE",
"724 1430 QCURVE SMOOTH"
);
},
{
closed = 1;
nodes = (
"358 201 OFFCURVE",
"358 415 QCURVE SMOOTH",
"358 498 OFFCURVE",
"426 907 OFFCURVE",
"501 1116 OFFCURVE",
"608 1210 OFFCURVE",
"694 1210 QCURVE SMOOTH",
"846 1210 OFFCURVE",
"846 977 QCURVE SMOOTH",
"846 894 OFFCURVE",
"755 416 OFFCURVE",
"614 201 OFFCURVE",
"497 201 QCURVE SMOOTH"
);
}
);
width = 1139;
}
);
note = zero;
unicode = 0030;
},
{
glyphname = one;
lastChange = "2019-11-19 22:35:12 +0000";
layers = (
{
layerId = "E64FF656-58E6-4C13-B3CC-343A43FBFB06";
paths = (
{
closed = 1;
nodes = (
"985 0 LINE",
"1029 231 LINE",
"706 231 LINE",
"936 1409 LINE",
"666 1409 LINE",
"270 1180 LINE",
"223 938 LINE",
"604 1152 LINE",
"425 231 LINE",
"76 231 LINE",
"33 0 LINE"
);
}
);
width = 1139;
}
);
note = one;
unicode = 0031;
},
{
glyphname = two;
lastChange = "2019-11-19 22:35:12 +0000";
layers = (
{
layerId = "E64FF656-58E6-4C13-B3CC-343A43FBFB06";
paths = (
{
closed = 1;
nodes = (
"953 0 LINE",
"997 231 LINE",
"343 231 LINE",
"387 297 OFFCURVE",
"544 433 OFFCURVE",
"676 523 QCURVE SMOOTH",
"865 650 OFFCURVE",
"1034 813 OFFCURVE",
"1118 987 OFFCURVE",
"1118 1083 QCURVE SMOOTH",
"1118 1255 OFFCURVE",
"897 1430 OFFCURVE",
"687 1430 QCURVE SMOOTH",
"487 1430 OFFCURVE",
"231 1260 OFFCURVE",
"178 1081 QCURVE",
"444 1022 LINE",
"471 1118 OFFCURVE",
"579 1206 OFFCURVE",
"667 1206 QCURVE SMOOTH",
"829 1206 OFFCURVE",
"829 1063 QCURVE SMOOTH",
"829 1001 OFFCURVE",
"770 889 OFFCURVE",
"662 781 OFFCURVE",
"514 677 QCURVE SMOOTH",
"333 551 OFFCURVE",
"182 422 OFFCURVE",
"54 280 OFFCURVE",
"5 195 QCURVE",
"-32 0 LINE"
);
}
);
width = 1139;
}
);
note = two;
unicode = 0032;
},
{
glyphname = three;
lastChange = "2019-11-19 22:35:12 +0000";
layers = (
{
layerId = "E64FF656-58E6-4C13-B3CC-343A43FBFB06";
paths = (
{
closed = 1;
nodes = (
"462 829 LINE",
"418 602 LINE",
"525 602 LINE SMOOTH",
"745 602 OFFCURVE",
"745 416 QCURVE SMOOTH",
"745 318 OFFCURVE",
"628 206 OFFCURVE",
"524 206 QCURVE SMOOTH",
"413 206 OFFCURVE",
"309 291 OFFCURVE",
"298 381 QCURVE",
"16 343 LINE",
"32 166 OFFCURVE",
"285 -20 OFFCURVE",
"511 -20 QCURVE SMOOTH",
"664 -20 OFFCURVE",
"900 91 OFFCURVE",
"1030 294 OFFCURVE",
"1030 418 QCURVE SMOOTH",
"1030 543 OFFCURVE",
"889 700 OFFCURVE",
"754 721 QCURVE",
"755 725 LINE",
"922 740 OFFCURVE",
"1116 930 OFFCURVE",
"1116 1086 QCURVE SMOOTH",
"1116 1248 OFFCURVE",
"888 1430 OFFCURVE",
"685 1430 QCURVE SMOOTH",
"272 1430 OFFCURVE",
"170 1074 QCURVE",
"437 1022 LINE",
"488 1206 OFFCURVE",
"674 1206 QCURVE SMOOTH",
"754 1206 OFFCURVE",
"831 1123 OFFCURVE",
"831 1051 QCURVE SMOOTH",
"831 945 OFFCURVE",
"684 829 OFFCURVE",
"535 829 QCURVE SMOOTH"
);
}
);
width = 1139;
}
);
note = three;
unicode = 0033;
},
{
glyphname = four;
lastChange = "2019-11-19 22:35:12 +0000";
layers = (
{
layerId = "E64FF656-58E6-4C13-B3CC-343A43FBFB06";
paths = (
{
closed = 1;
nodes = (
"1062 286 LINE",
"1104 496 LINE",
"916 496 LINE",
"1094 1409 LINE",
"724 1409 LINE",
"7 493 LINE",
"-34 286 LINE",
"606 286 LINE",
"552 0 LINE",
"820 0 LINE",
"874 286 LINE"
);
},
{
closed = 1;
nodes = (
"768 1110 OFFCURVE",
"750 1020 QCURVE SMOOTH",
"648 496 LINE",
"259 496 LINE",
"683 1036 LINE SMOOTH",
"754 1128 OFFCURVE",
"800 1206 QCURVE"
);
}
);
width = 1139;
}
);
note = four;
unicode = 0034;
},
{
glyphname = five;
lastChange = "2019-11-19 22:35:12 +0000";
layers = (
{
layerId = "E64FF656-58E6-4C13-B3CC-343A43FBFB06";
paths = (
{
closed = 1;
nodes = (
"113 616 LINE",
"387 616 LINE",
"466 707 OFFCURVE",
"589 707 QCURVE SMOOTH",
"679 707 OFFCURVE",
"778 591 OFFCURVE",
"778 486 QCURVE SMOOTH",
"778 359 OFFCURVE",
"635 206 OFFCURVE",
"510 206 QCURVE SMOOTH",
"416 206 OFFCURVE",
"321 281 OFFCURVE",
"303 374 QCURVE",
"20 329 LINE",
"48 157 OFFCURVE",
"287 -20 OFFCURVE",
"486 -20 QCURVE SMOOTH",
"659 -20 OFFCURVE",
"923 112 OFFCURVE",
"1064 357 OFFCURVE",
"1064 518 QCURVE SMOOTH",
"1064 708 OFFCURVE",
"861 934 OFFCURVE",
"694 934 QCURVE SMOOTH",
"646 934 OFFCURVE",
"568 918 OFFCURVE",
"506 892 OFFCURVE",
"457 860 OFFCURVE",
"439 844 QCURVE",
"526 1178 LINE",
"1120 1178 LINE",
"1163 1409 LINE",
"316 1409 LINE"
);
}
);
width = 1139;
}
);
note = five;
unicode = 0035;
},
{
glyphname = six;
lastChange = "2019-11-19 22:35:12 +0000";
layers = (
{
layerId = "E64FF656-58E6-4C13-B3CC-343A43FBFB06";
paths = (
{
closed = 1;
nodes = (
"689 -20 OFFCURVE",
"938 126 OFFCURVE",
"1078 382 OFFCURVE",
"1078 533 QCURVE SMOOTH",
"1078 707 OFFCURVE",
"889 907 OFFCURVE",
"725 907 QCURVE SMOOTH",
"622 907 OFFCURVE",
"459 818 OFFCURVE",
"406 746 QCURVE",
"445 978 OFFCURVE",
"615 1208 OFFCURVE",
"730 1208 QCURVE SMOOTH",
"796 1208 OFFCURVE",
"870 1138 OFFCURVE",
"884 1065 QCURVE",
"1150 1106 LINE",
"1132 1263 OFFCURVE",
"925 1430 OFFCURVE",
"745 1430 QCURVE SMOOTH",
"561 1430 OFFCURVE",
"262 1191 OFFCURVE",
"95 756 OFFCURVE",
"95 487 QCURVE SMOOTH",
"95 246 OFFCURVE",
"323 -20 OFFCURVE",
"533 -20 QCURVE SMOOTH"
);
},
{
closed = 1;
nodes = (
"369 508 OFFCURVE",
"433 632 OFFCURVE",
"547 700 OFFCURVE",
"614 700 QCURVE SMOOTH",
"697 700 OFFCURVE",
"792 596 OFFCURVE",
"792 499 QCURVE SMOOTH",
"792 363 OFFCURVE",
"665 200 OFFCURVE",
"558 200 QCURVE SMOOTH",
"467 200 OFFCURVE",
"369 324 OFFCURVE",
"369 429 QCURVE SMOOTH"
);
}
);
width = 1139;
}
);
note = six;
unicode = 0036;
},
{
glyphname = seven;
lastChange = "2019-11-19 22:35:12 +0000";
layers = (
{
layerId = "E64FF656-58E6-4C13-B3CC-343A43FBFB06";
paths = (
{
closed = 1;
nodes = (
"143 1178 LINE",
"893 1178 LINE",
"764 1036 OFFCURVE",
"533 769 OFFCURVE",
"346 489 OFFCURVE",
"209 182 OFFCURVE",
"174 0 QCURVE",
"472 0 LINE",
"524 252 OFFCURVE",
"754 686 OFFCURVE",
"1013 992 QCURVE SMOOTH",
"1175 1186 LINE",
"1219 1409 LINE",
"188 1409 LINE"
);
}
);
width = 1139;
}
);
note = seven;
unicode = 0037;
},
{
glyphname = eight;
lastChange = "2019-11-19 22:35:12 +0000";
layers = (
{
layerId = "E64FF656-58E6-4C13-B3CC-343A43FBFB06";
paths = (
{
closed = 1;
nodes = (
"473 1429 OFFCURVE",
"199 1229 OFFCURVE",
"199 1052 QCURVE SMOOTH",
"199 943 OFFCURVE",
"294 782 OFFCURVE",
"386 741 QCURVE",
"386 737 LINE",
"216 703 OFFCURVE",
"27 507 OFFCURVE",
"27 360 QCURVE SMOOTH",
"27 181 OFFCURVE",
"271 -20 OFFCURVE",
"493 -20 QCURVE SMOOTH",
"752 -20 OFFCURVE",
"1049 224 OFFCURVE",
"1049 432 QCURVE SMOOTH",
"1049 544 OFFCURVE",
"930 706 OFFCURVE",
"819 739 QCURVE",
"820 743 LINE",
"965 763 OFFCURVE",
"1136 951 OFFCURVE",
"1136 1091 QCURVE SMOOTH",
"1136 1246 OFFCURVE",
"906 1429 OFFCURVE",
"707 1429 QCURVE SMOOTH"
);
},
{
closed = 1;
nodes = (
"566 840 OFFCURVE",
"476 933 OFFCURVE",
"476 1020 QCURVE SMOOTH",
"476 1121 OFFCURVE",
"584 1232 OFFCURVE",
"679 1232 QCURVE SMOOTH",
"851 1232 OFFCURVE",
"851 1064 QCURVE SMOOTH",
"851 959 OFFCURVE",
"742 840 OFFCURVE",
"648 840 QCURVE SMOOTH"
);
},
{
closed = 1;
nodes = (
"654 640 OFFCURVE",
"760 539 OFFCURVE",
"760 444 QCURVE SMOOTH",
"760 322 OFFCURVE",
"628 178 OFFCURVE",
"520 178 QCURVE SMOOTH",
"424 178 OFFCURVE",
"317 282 OFFCURVE",
"317 377 QCURVE SMOOTH",
"317 498 OFFCURVE",
"445 640 OFFCURVE",
"561 640 QCURVE SMOOTH"
);
}
);
width = 1139;
}
);
note = eight;
unicode = 0038;
},
{
glyphname = nine;
lastChange = "2019-11-19 22:35:12 +0000";
layers = (
{
layerId = "E64FF656-58E6-4C13-B3CC-343A43FBFB06";
paths = (
{
closed = 1;
nodes = (
"731 202 OFFCURVE",
"498 202 QCURVE SMOOTH",
"351 202 OFFCURVE",
"322 359 QCURVE",
"48 311 LINE",
"75 152 OFFCURVE",
"297 -20 OFFCURVE",
"479 -20 QCURVE SMOOTH",
"623 -20 OFFCURVE",
"859 121 OFFCURVE",
"1033 400 OFFCURVE",
"1130 785 OFFCURVE",
"1130 957 QCURVE SMOOTH",
"1130 1173 OFFCURVE",
"892 1430 OFFCURVE",
"692 1430 QCURVE SMOOTH",
"540 1430 OFFCURVE",
"289 1291 OFFCURVE",
"147 1042 OFFCURVE",
"147 893 QCURVE SMOOTH",
"147 717 OFFCURVE",
"339 503 OFFCURVE",
"500 503 QCURVE SMOOTH",
"604 503 OFFCURVE",
"752 576 OFFCURVE",
"817 653 QCURVE"
);
},
{
closed = 1;
nodes = (
"855 870 OFFCURVE",
"725 710 OFFCURVE",
"611 710 QCURVE SMOOTH",
"528 710 OFFCURVE",
"432 815 OFFCURVE",
"432 900 QCURVE SMOOTH",
"432 1042 OFFCURVE",
"564 1210 OFFCURVE",
"678 1210 QCURVE SMOOTH",
"755 1210 OFFCURVE",
"855 1096 OFFCURVE",
"855 1009 QCURVE SMOOTH"
);
}
);
width = 1139;
}
);
note = nine;
unicode = 0039;
},
{
glyphname = colon;
lastChange = "2019-11-19 22:35:12 +0000";
layers = (
{
layerId = "E64FF656-58E6-4C13-B3CC-343A43FBFB06";
paths = (
{
closed = 1;
nodes = (
"523 752 LINE",
"578 1034 LINE",
"290 1034 LINE",
"235 752 LINE"
);
},
{
closed = 1;
nodes = (
"377 0 LINE",
"432 281 LINE",
"144 281 LINE",
"89 0 LINE"
);
}
);
width = 682;
}
);
note = colon;
unicode = 003A;
},
{
glyphname = semicolon;
lastChange = "2019-11-19 22:35:12 +0000";
layers = (
{
layerId = "E64FF656-58E6-4C13-B3CC-343A43FBFB06";
paths = (
{
closed = 1;
nodes = (
"523 752 LINE",
"578 1034 LINE",
"290 1034 LINE",
"235 752 LINE"
);
},
{
closed = 1;
nodes = (
"282 -236 OFFCURVE",
"367 -54 OFFCURVE",
"390 66 QCURVE SMOOTH",
"432 281 LINE",
"144 281 LINE",
"89 0 LINE",
"218 0 LINE",
"204 -73 OFFCURVE",
"101 -239 OFFCURVE",
"23 -317 QCURVE",
"207 -317 LINE"
);
}
);
width = 682;
}
);
note = semicolon;
unicode = "003B,037E";
},
{
glyphname = less;
lastChange = "2019-11-19 22:35:12 +0000";
layers = (
{
layerId = "E64FF656-58E6-4C13-B3CC-343A43FBFB06";
paths = (
{
closed = 1;
nodes = (
"1151 125 LINE",
"1151 352 LINE",
"318 676 LINE",
"1151 1001 LINE",
"1151 1229 LINE",
"124 838 LINE",
"124 516 LINE"
);
}
);
width = 1196;
}
);
note = less;
unicode = 003C;
},
{
glyphname = equal;
lastChange = "2019-11-19 22:35:12 +0000";
layers = (
{
layerId = "E64FF656-58E6-4C13-B3CC-343A43FBFB06";
paths = (
{
closed = 1;
nodes = (
"1150 842 LINE",
"1150 1065 LINE",
"123 1065 LINE",
"123 842 LINE"
);
},
{
closed = 1;
nodes = (
"1150 291 LINE",
"1150 512 LINE",
"123 512 LINE",
"123 291 LINE"
);
}
);
width = 1196;
}
);
note = equal;
unicode = 003D;
},
{
glyphname = greater;
lastChange = "2019-11-19 22:35:12 +0000";
layers = (
{
layerId = "E64FF656-58E6-4C13-B3CC-343A43FBFB06";
paths = (
{
closed = 1;
nodes = (
"1151 516 LINE",
"1151 838 LINE",
"124 1229 LINE",
"124 1001 LINE",
"956 676 LINE",
"124 352 LINE",
"124 125 LINE"
);
}
);
width = 1196;
}
);
note = greater;
unicode = 003E;
},
{
glyphname = question;
lastChange = "2019-11-19 22:35:12 +0000";
layers = (
{
layerId = "E64FF656-58E6-4C13-B3CC-343A43FBFB06";
paths = (
{
closed = 1;
nodes = (
"301 1430 OFFCURVE",
"184 1048 QCURVE",
"450 1008 LINE",
"502 1201 OFFCURVE",
"729 1201 QCURVE SMOOTH",
"830 1201 OFFCURVE",
"926 1118 OFFCURVE",
"926 1055 QCURVE SMOOTH",
"926 1016 OFFCURVE",
"904 954 OFFCURVE",
"850 893 OFFCURVE",
"759 827 OFFCURVE",
"690 784 QCURVE SMOOTH",
"572 711 OFFCURVE",
"475 618 OFFCURVE",
"413 503 OFFCURVE",
"399 426 QCURVE",
"666 426 LINE",
"672 468 OFFCURVE",
"706 530 OFFCURVE",
"763 584 OFFCURVE",
"841 635 QCURVE",
"998 722 OFFCURVE",
"1134 843 OFFCURVE",
"1209 985 OFFCURVE",
"1209 1075 QCURVE SMOOTH",
"1209 1242 OFFCURVE",
"959 1430 OFFCURVE",
"745 1430 QCURVE SMOOTH"
);
},
{
closed = 1;
nodes = (
"598 0 LINE",
"650 270 LINE",
"361 270 LINE",
"309 0 LINE"
);
}
);
width = 1251;
}
);
note = question;
unicode = 003F;
},
{
glyphname = at;
lastChange = "2019-11-19 22:35:12 +0000";
layers = (
{
layerId = "E64FF656-58E6-4C13-B3CC-343A43FBFB06";
paths = (
{
closed = 1;
nodes = (
"1911 973 OFFCURVE",
"1724 1303 OFFCURVE",
"1368 1484 OFFCURVE",
"1125 1484 QCURVE SMOOTH",
"849 1484 OFFCURVE",
"403 1232 OFFCURVE",
"150 774 OFFCURVE",
"150 491 QCURVE SMOOTH",
"150 258 OFFCURVE",
"351 -103 OFFCURVE",
"710 -294 OFFCURVE",
"946 -294 QCURVE SMOOTH",
"1115 -294 OFFCURVE",
"1436 -212 OFFCURVE",
"1604 -117 QCURVE",
"1542 5 LINE",
"1247 -150 OFFCURVE",
"953 -150 QCURVE SMOOTH",
"759 -150 OFFCURVE",
"471 1 OFFCURVE",
"312 296 OFFCURVE",
"312 491 QCURVE SMOOTH",
"312 737 OFFCURVE",
"521 1133 OFFCURVE",
"887 1343 OFFCURVE",
"1127 1343 QCURVE SMOOTH",
"1318 1343 OFFCURVE",
"1606 1197 OFFCURVE",
"1759 928 OFFCURVE",
"1759 753 QCURVE SMOOTH",
"1759 613 OFFCURVE",
"1674 380 OFFCURVE",
"1528 241 OFFCURVE",
"1448 241 QCURVE SMOOTH",
"1417 241 OFFCURVE",
"1370 283 OFFCURVE",
"1370 333 QCURVE SMOOTH",
"1370 401 OFFCURVE",
"1407 573 QCURVE SMOOTH",
"1524 1079 LINE",
"1368 1079 LINE",
"1329 927 LINE",
"1323 927 LINE",
"1254 1101 OFFCURVE",
"1059 1101 QCURVE SMOOTH",
"917 1101 OFFCURVE",
"688 938 OFFCURVE",
"559 652 OFFCURVE",
"559 489 QCURVE SMOOTH",
"559 307 OFFCURVE",
"732 104 OFFCURVE",
"889 104 QCURVE SMOOTH",
"992 104 OFFCURVE",
"1189 238 OFFCURVE",
"1239 343 QCURVE",
"1245 343 LINE",
"1239 313 OFFCURVE",
"1239 276 QCURVE SMOOTH",
"1239 195 OFFCURVE",
"1338 104 OFFCURVE",
"1430 104 QCURVE SMOOTH",
"1560 104 OFFCURVE",
"1784 273 OFFCURVE",
"1911 573 OFFCURVE",
"1911 755 QCURVE SMOOTH"
);
},
{
closed = 1;
nodes = (
"1264 691 OFFCURVE",
"1211 488 OFFCURVE",
"1113 329 OFFCURVE",
"988 245 OFFCURVE",
"922 245 QCURVE SMOOTH",
"822 245 OFFCURVE",
"725 377 OFFCURVE",
"725 491 QCURVE SMOOTH",
"725 612 OFFCURVE",
"808 841 OFFCURVE",
"957 966 OFFCURVE",
"1051 966 QCURVE SMOOTH",
"1145 966 OFFCURVE",
"1264 846 OFFCURVE",
"1264 751 QCURVE SMOOTH"
);
}
);
width = 1997;
}
);
note = at;
unicode = 0040;
},
{
glyphname = A;
lastChange = "2019-11-19 22:35:12 +0000";
layers = (
{
layerId = "E64FF656-58E6-4C13-B3CC-343A43FBFB06";
paths = (
{
closed = 1;
nodes = (
"1331 0 LINE",
"1093 1409 LINE",
"745 1409 LINE",
"-42 0 LINE",
"252 0 LINE",
"447 360 LINE",
"984 360 LINE",
"1039 0 LINE"
);
},
{
closed = 1;
nodes = (
"876 1169 OFFCURVE",
"894 1034 QCURVE SMOOTH",
"961 582 LINE",
"566 582 LINE",
"778 980 LINE SMOOTH",
"855 1128 OFFCURVE",
"876 1192 QCURVE"
);
}
);
width = 1479;
}
);
note = A;
unicode = 0041;
},
{
glyphname = B;
lastChange = "2019-11-19 22:35:12 +0000";
layers = (
{
layerId = "E64FF656-58E6-4C13-B3CC-343A43FBFB06";
paths = (
{
closed = 1;
nodes = (
"36 0 LINE",
"741 0 LINE SMOOTH",
"1055 0 OFFCURVE",
"1368 220 OFFCURVE",
"1368 431 QCURVE SMOOTH",
"1368 550 OFFCURVE",
"1215 715 OFFCURVE",
"1079 738 QCURVE",
"1238 771 OFFCURVE",
"1403 946 OFFCURVE",
"1403 1083 QCURVE SMOOTH",
"1403 1244 OFFCURVE",
"1145 1409 OFFCURVE",
"894 1409 QCURVE SMOOTH",
"310 1409 LINE"
);
},
{
closed = 1;
nodes = (
"561 1190 LINE",
"862 1190 LINE SMOOTH",
"996 1190 OFFCURVE",
"1110 1118 OFFCURVE",
"1110 1038 QCURVE SMOOTH",
"1110 933 OFFCURVE",
"963 841 OFFCURVE",
"788 841 QCURVE SMOOTH",
"494 841 LINE"
);
},
{
closed = 1;
nodes = (
"452 623 LINE",
"782 623 LINE SMOOTH",
"936 623 OFFCURVE",
"1072 527 OFFCURVE",
"1072 437 QCURVE SMOOTH",
"1072 320 OFFCURVE",
"910 219 OFFCURVE",
"701 219 QCURVE SMOOTH",
"373 219 LINE"
);
}
);
width = 1479;
}
);
note = B;
unicode = 0042;
},
{
glyphname = C;
lastChange = "2019-11-19 22:35:12 +0000";
layers = (
{
layerId = "E64FF656-58E6-4C13-B3CC-343A43FBFB06";
paths = (
{
closed = 1;
nodes = (
"401 862 OFFCURVE",
"676 1198 OFFCURVE",
"918 1198 QCURVE SMOOTH",
"1036 1198 OFFCURVE",
"1200 1074 OFFCURVE",
"1229 967 QCURVE",
"1503 1038 LINE",
"1452 1233 OFFCURVE",
"1157 1430 OFFCURVE",
"927 1430 QCURVE SMOOTH",
"687 1430 OFFCURVE",
"310 1218 OFFCURVE",
"100 821 OFFCURVE",
"100 569 QCURVE SMOOTH",
"100 391 OFFCURVE",
"243 124 OFFCURVE",
"520 -20 OFFCURVE",
"711 -20 QCURVE SMOOTH",
"1166 -20 OFFCURVE",
"1376 352 QCURVE",
"1149 469 LINE",
"997 211 OFFCURVE",
"731 211 QCURVE SMOOTH",
"572 211 OFFCURVE",
"401 400 OFFCURVE",
"401 573 QCURVE SMOOTH"
);
}
);
width = 1479;
}
);
note = C;
unicode = 0043;
},
{
glyphname = D;
lastChange = "2019-11-19 22:35:12 +0000";
layers = (
{
layerId = "E64FF656-58E6-4C13-B3CC-343A43FBFB06";
paths = (
{
closed = 1;
nodes = (
"310 1409 LINE",
"36 0 LINE",
"614 0 LINE SMOOTH",
"847 0 OFFCURVE",
"1223 209 OFFCURVE",
"1421 571 OFFCURVE",
"1421 807 QCURVE SMOOTH",
"1421 1099 OFFCURVE",
"1067 1409 OFFCURVE",
"734 1409 QCURVE SMOOTH"
);
},
{
closed = 1;
nodes = (
"560 1181 LINE",
"736 1181 LINE SMOOTH",
"934 1181 OFFCURVE",
"1145 983 OFFCURVE",
"1145 794 QCURVE SMOOTH",
"1145 623 OFFCURVE",
"1012 365 OFFCURVE",
"765 228 OFFCURVE",
"605 228 QCURVE SMOOTH",
"375 228 LINE"
);
}
);
width = 1479;
}
);
note = D;
unicode = 0044;
},
{
glyphname = E;
lastChange = "2019-11-19 22:35:12 +0000";
layers = (
{
layerId = "E64FF656-58E6-4C13-B3CC-343A43FBFB06";
paths = (
{
closed = 1;
nodes = (
"1184 0 LINE",
"1229 228 LINE",
"375 228 LINE",
"447 599 LINE",
"1199 599 LINE",
"1243 827 LINE",
"491 827 LINE",
"560 1181 LINE",
"1373 1181 LINE",
"1417 1409 LINE",
"309 1409 LINE",
"36 0 LINE"
);
}
);
width = 1366;
}
);
note = E;
unicode = 0045;
},
{
glyphname = F;
lastChange = "2019-11-19 22:35:12 +0000";
layers = (
{
layerId = "E64FF656-58E6-4C13-B3CC-343A43FBFB06";
paths = (
{
closed = 1;
nodes = (
"1251 1181 LINE",
"1295 1409 LINE",
"309 1409 LINE",
"36 0 LINE",
"330 0 LINE",
"431 517 LINE",
"1099 517 LINE",
"1143 745 LINE",
"475 745 LINE",
"560 1181 LINE"
);
}
);
width = 1251;
}
);
note = F;
unicode = 0046;
},
{
glyphname = G;
lastChange = "2019-11-19 22:35:12 +0000";
layers = (
{
layerId = "E64FF656-58E6-4C13-B3CC-343A43FBFB06";
paths = (
{
closed = 1;
nodes = (
"932 -19 OFFCURVE",
"1244 68 OFFCURVE",
"1400 175 QCURVE",
"1505 743 LINE",
"891 743 LINE",
"852 535 LINE",
"1194 535 LINE",
"1148 307 LINE",
"1076 263 OFFCURVE",
"872 211 OFFCURVE",
"764 211 QCURVE SMOOTH",
"590 211 OFFCURVE",
"399 414 OFFCURVE",
"399 592 QCURVE SMOOTH",
"399 772 OFFCURVE",
"527 1048 OFFCURVE",
"767 1198 OFFCURVE",
"926 1198 QCURVE SMOOTH",
"1053 1198 OFFCURVE",
"1219 1074 OFFCURVE",
"1248 961 QCURVE",
"1530 1039 LINE",
"1477 1224 OFFCURVE",
"1170 1430 OFFCURVE",
"942 1430 QCURVE SMOOTH",
"692 1430 OFFCURVE",
"309 1221 OFFCURVE",
"100 833 OFFCURVE",
"100 583 QCURVE SMOOTH",
"100 298 OFFCURVE",
"440 -19 OFFCURVE",
"740 -19 QCURVE SMOOTH"
);
}
);
width = 1593;
}
);
note = G;
unicode = 0047;
},
{
glyphname = H;
lastChange = "2019-11-19 22:35:12 +0000";
layers = (
{
layerId = "E64FF656-58E6-4C13-B3CC-343A43FBFB06";
paths = (
{
closed = 1;
nodes = (
"1240 0 LINE",
"1514 1409 LINE",
"1230 1409 LINE",
"1121 848 LINE",
"495 848 LINE",
"604 1409 LINE",
"309 1409 LINE",
"36 0 LINE",
"330 0 LINE",
"448 604 LINE",
"1074 604 LINE",
"956 0 LINE"
);
}
);
width = 1479;
}
);
note = H;
unicode = 0048;
},
{
glyphname = I;
lastChange = "2019-11-19 22:35:12 +0000";
layers = (
{
layerId = "E64FF656-58E6-4C13-B3CC-343A43FBFB06";
paths = (
{
closed = 1;
nodes = (
"330 0 LINE",
"604 1409 LINE",
"309 1409 LINE",
"36 0 LINE"
);
}
);
width = 569;
}
);
note = I;
unicode = 0049;
},
{
glyphname = J;
lastChange = "2019-11-19 22:35:12 +0000";
layers = (
{
layerId = "E64FF656-58E6-4C13-B3CC-343A43FBFB06";
paths = (
{
closed = 1;
nodes = (
"696 -20 OFFCURVE",
"936 192 OFFCURVE",
"981 423 QCURVE SMOOTH",
"1174 1409 LINE",
"599 1409 LINE",
"555 1178 LINE",
"836 1178 LINE",
"693 440 LINE SMOOTH",
"675 347 OFFCURVE",
"627 259 OFFCURVE",
"553 211 OFFCURVE",
"499 211 QCURVE SMOOTH",
"338 211 OFFCURVE",
"292 437 QCURVE",
"25 379 LINE",
"63 172 OFFCURVE",
"290 -20 OFFCURVE",
"480 -20 QCURVE SMOOTH"
);
}
);
width = 1139;
}
);
note = J;
unicode = 004A;
},
{
glyphname = K;
lastChange = "2019-11-19 22:35:12 +0000";
layers = (
{
layerId = "E64FF656-58E6-4C13-B3CC-343A43FBFB06";
paths = (
{
closed = 1;
nodes = (
"1321 0 LINE",
"856 793 LINE",
"1603 1409 LINE",
"1234 1409 LINE",
"474 770 LINE",
"604 1409 LINE",
"309 1409 LINE",
"36 0 LINE",
"328 0 LINE",
"429 517 LINE",
"640 640 LINE",
"995 0 LINE"
);
}
);
width = 1479;
}
);
note = K;
unicode = 004B;
},
{
glyphname = L;
lastChange = "2019-11-19 22:35:12 +0000";
layers = (
{
layerId = "E64FF656-58E6-4C13-B3CC-343A43FBFB06";
paths = (
{
closed = 1;
nodes = (
"1086 0 LINE",
"1131 228 LINE",
"375 228 LINE",
"604 1409 LINE",
"309 1409 LINE",
"36 0 LINE"
);
}
);
width = 1251;
}
);
note = L;
unicode = 004C;
},
{
glyphname = M;
lastChange = "2019-11-19 22:35:12 +0000";
layers = (
{
layerId = "E64FF656-58E6-4C13-B3CC-343A43FBFB06";
paths = (
{
closed = 1;
nodes = (
"1468 0 LINE",
"1742 1409 LINE",
"1349 1409 LINE",
"916 555 OFFCURVE",
"854 425 OFFCURVE",
"818 345 QCURVE",
"793 621 LINE",
"705 1409 LINE",
"310 1409 LINE",
"36 0 LINE",
"298 0 LINE",
"470 887 LINE SMOOTH",
"485 962 OFFCURVE",
"513 1206 QCURVE",
"522 1110 OFFCURVE",
"553 819 QCURVE SMOOTH",
"647 0 LINE",
"857 0 LINE",
"1269 816 LINE SMOOTH",
"1304 881 OFFCURVE",
"1383 1055 QCURVE SMOOTH",
"1452 1206 LINE",
"1404 1014 OFFCURVE",
"1378 884 QCURVE SMOOTH",
"1206 0 LINE"
);
}
);
width = 1706;
}
);
note = M;
unicode = 004D;
},
{
glyphname = N;
lastChange = "2019-11-19 22:35:12 +0000";
layers = (
{
layerId = "E64FF656-58E6-4C13-B3CC-343A43FBFB06";
paths = (
{
closed = 1;
nodes = (
"1240 0 LINE",
"1514 1409 LINE",
"1252 1409 LINE",
"1078 524 LINE SMOOTH",
"1060 433 OFFCURVE",
"1049 350 QCURVE SMOOTH",
"1037 268 LINE",
"660 1409 LINE",
"310 1409 LINE",
"36 0 LINE",
"298 0 LINE",
"472 892 LINE SMOOTH",
"487 969 OFFCURVE",
"510 1131 QCURVE",
"884 0 LINE"
);
}
);
width = 1479;
}
);
note = N;
unicode = 004E;
},
{
glyphname = O;
lastChange = "2019-11-19 22:35:12 +0000";
layers = (
{
layerId = "E64FF656-58E6-4C13-B3CC-343A43FBFB06";
paths = (
{
closed = 1;
nodes = (
"685 1430 OFFCURVE",
"311 1215 OFFCURVE",
"100 808 OFFCURVE",
"100 573 QCURVE SMOOTH",
"100 393 OFFCURVE",
"249 124 OFFCURVE",
"534 -20 OFFCURVE",
"727 -20 QCURVE SMOOTH",
"970 -20 OFFCURVE",
"1348 197 OFFCURVE",
"1559 604 OFFCURVE",
"1559 851 QCURVE SMOOTH",
"1559 1119 OFFCURVE",
"1221 1430 OFFCURVE",
"928 1430 QCURVE SMOOTH"
);
},
{
closed = 1;
nodes = (
"1080 1197 OFFCURVE",
"1255 1003 OFFCURVE",
"1255 827 QCURVE SMOOTH",
"1255 658 OFFCURVE",
"1130 362 OFFCURVE",
"902 212 OFFCURVE",
"741 212 QCURVE SMOOTH",
"580 212 OFFCURVE",
"400 397 OFFCURVE",
"400 581 QCURVE SMOOTH",
"400 745 OFFCURVE",
"524 1047 OFFCURVE",
"752 1197 OFFCURVE",
"914 1197 QCURVE SMOOTH"
);
}
);
width = 1593;
}
);
note = O;
unicode = 004F;
},
{
glyphname = P;
lastChange = "2019-11-19 22:35:12 +0000";
layers = (
{
layerId = "E64FF656-58E6-4C13-B3CC-343A43FBFB06";
paths = (
{
closed = 1;
nodes = (
"309 1409 LINE",
"36 0 LINE",
"330 0 LINE",
"428 496 LINE",
"805 496 LINE SMOOTH",
"1062 496 OFFCURVE",
"1369 762 OFFCURVE",
"1369 987 QCURVE SMOOTH",
"1369 1185 OFFCURVE",
"1096 1409 OFFCURVE",
"850 1409 QCURVE SMOOTH"
);
},
{
closed = 1;
nodes = (
"560 1180 LINE",
"822 1180 LINE SMOOTH",
"942 1180 OFFCURVE",
"1070 1073 OFFCURVE",
"1070 971 QCURVE SMOOTH",
"1070 839 OFFCURVE",
"915 723 OFFCURVE",
"760 723 QCURVE SMOOTH",
"471 723 LINE"
);
}
);
width = 1366;
}
);
note = P;
unicode = 0050;
},
{
glyphname = Q;
lastChange = "2019-11-19 22:35:12 +0000";
layers = (
{
layerId = "E64FF656-58E6-4C13-B3CC-343A43FBFB06";
paths = (
{
closed = 1;
nodes = (
"685 1430 OFFCURVE",
"311 1215 OFFCURVE",
"100 808 OFFCURVE",
"100 573 QCURVE SMOOTH",
"100 458 OFFCURVE",
"162 262 OFFCURVE",
"285 111 OFFCURVE",
"466 10 OFFCURVE",
"584 -9 QCURVE",
"607 -212 OFFCURVE",
"820 -400 OFFCURVE",
"1017 -400 QCURVE SMOOTH",
"1114 -400 OFFCURVE",
"1186 -375 QCURVE",
"1231 -180 LINE",
"1161 -194 OFFCURVE",
"1081 -194 QCURVE SMOOTH",
"992 -194 OFFCURVE",
"901 -106 OFFCURVE",
"882 -8 QCURVE",
"1012 13 OFFCURVE",
"1229 122 OFFCURVE",
"1397 291 OFFCURVE",
"1512 514 OFFCURVE",
"1539 649 QCURVE SMOOTH",
"1559 745 OFFCURVE",
"1559 851 QCURVE SMOOTH",
"1559 1119 OFFCURVE",
"1221 1430 OFFCURVE",
"928 1430 QCURVE SMOOTH"
);
},
{
closed = 1;
nodes = (
"1080 1197 OFFCURVE",
"1255 1003 OFFCURVE",
"1255 827 QCURVE SMOOTH",
"1255 658 OFFCURVE",
"1130 362 OFFCURVE",
"902 212 OFFCURVE",
"741 212 QCURVE SMOOTH",
"580 212 OFFCURVE",
"400 397 OFFCURVE",
"400 581 QCURVE SMOOTH",
"400 745 OFFCURVE",
"524 1047 OFFCURVE",
"752 1197 OFFCURVE",
"914 1197 QCURVE SMOOTH"
);
}
);
width = 1593;
}
);
note = Q;
unicode = 0051;
},
{
glyphname = R;
lastChange = "2019-11-19 22:35:12 +0000";
layers = (
{
layerId = "E64FF656-58E6-4C13-B3CC-343A43FBFB06";
paths = (
{
closed = 1;
nodes = (
"1336 0 LINE",
"1062 583 LINE",
"1248 611 OFFCURVE",
"1465 841 OFFCURVE",
"1465 1006 QCURVE SMOOTH",
"1465 1129 OFFCURVE",
"1347 1311 OFFCURVE",
"1120 1409 OFFCURVE",
"961 1409 QCURVE SMOOTH",
"310 1409 LINE",
"36 0 LINE",
"331 0 LINE",
"434 534 LINE",
"780 534 LINE",
"1010 0 LINE"
);
},
{
closed = 1;
nodes = (
"479 764 LINE",
"560 1180 LINE",
"924 1180 LINE SMOOTH",
"1039 1180 OFFCURVE",
"1166 1082 OFFCURVE",
"1166 989 QCURVE SMOOTH",
"1166 881 OFFCURVE",
"1017 764 OFFCURVE",
"872 764 QCURVE SMOOTH"
);
}
);
width = 1479;
}
);
note = R;
unicode = 0052;
},
{
glyphname = S;
lastChange = "2019-11-19 22:35:12 +0000";
layers = (
{
layerId = "E64FF656-58E6-4C13-B3CC-343A43FBFB06";
paths = (
{
closed = 1;
nodes = (
"922 -20 OFFCURVE",
"1254 207 OFFCURVE",
"1254 423 QCURVE SMOOTH",
"1254 504 OFFCURVE",
"1206 628 OFFCURVE",
"1115 724 OFFCURVE",
"963 801 OFFCURVE",
"804 845 QCURVE SMOOTH",
"656 885 OFFCURVE",
"556 934 OFFCURVE",
"504 1000 OFFCURVE",
"504 1047 QCURVE SMOOTH",
"504 1128 OFFCURVE",
"646 1221 OFFCURVE",
"770 1221 QCURVE SMOOTH",
"888 1221 OFFCURVE",
"1035 1114 OFFCURVE",
"1057 1024 QCURVE",
"1345 1091 LINE",
"1312 1257 OFFCURVE",
"1024 1430 OFFCURVE",
"786 1430 QCURVE SMOOTH",
"527 1430 OFFCURVE",
"213 1214 OFFCURVE",
"213 1037 QCURVE SMOOTH",
"213 926 OFFCURVE",
"306 773 OFFCURVE",
"483 667 OFFCURVE",
"667 618 QCURVE SMOOTH",
"845 573 OFFCURVE",
"965 480 OFFCURVE",
"965 400 QCURVE SMOOTH",
"965 201 OFFCURVE",
"620 201 QCURVE SMOOTH",
"480 201 OFFCURVE",
"335 303 OFFCURVE",
"314 414 QCURVE",
"25 365 LINE",
"53 169 OFFCURVE",
"333 -20 OFFCURVE",
"600 -20 QCURVE SMOOTH"
);
}
);
width = 1366;
}
);
note = S;
unicode = 0053;
},
{
glyphname = T;
lastChange = "2019-11-19 22:35:12 +0000";
layers = (
{
layerId = "E64FF656-58E6-4C13-B3CC-343A43FBFB06";
paths = (
{
closed = 1;
nodes = (
"1351 1181 LINE",
"1395 1409 LINE",
"189 1409 LINE",
"145 1181 LINE",
"600 1181 LINE",
"370 0 LINE",
"665 0 LINE",
"895 1181 LINE"
);
}
);
width = 1251;
}
);
note = T;
unicode = 0054;
},
{
glyphname = U;
lastChange = "2019-11-19 22:35:12 +0000";
layers = (
{
layerId = "E64FF656-58E6-4C13-B3CC-343A43FBFB06";
paths = (
{
closed = 1;
nodes = (
"560 211 OFFCURVE",
"414 324 OFFCURVE",
"414 427 QCURVE SMOOTH",
"414 512 OFFCURVE",
"432 599 QCURVE SMOOTH",
"585 1409 LINE",
"290 1409 LINE",
"142 635 LINE SMOOTH",
"134 598 OFFCURVE",
"119 475 OFFCURVE",
"119 431 QCURVE SMOOTH",
"119 215 OFFCURVE",
"408 -20 OFFCURVE",
"672 -20 QCURVE SMOOTH",
"965 -20 OFFCURVE",
"1295 249 OFFCURVE",
"1350 530 QCURVE SMOOTH",
"1521 1409 LINE",
"1226 1409 LINE",
"1058 541 LINE SMOOTH",
"1024 363 OFFCURVE",
"853 211 OFFCURVE",
"688 211 QCURVE SMOOTH"
);
}
);
width = 1479;
}
);
note = U;
unicode = 0055;
},
{
glyphname = V;
lastChange = "2019-11-19 22:35:12 +0000";
layers = (
{
layerId = "E64FF656-58E6-4C13-B3CC-343A43FBFB06";
paths = (
{
closed = 1;
nodes = (
"1509 1409 LINE",
"1201 1409 LINE",
"716 466 OFFCURVE",
"659 344 OFFCURVE",
"612 238 QCURVE",
"606 357 OFFCURVE",
"590 504 QCURVE SMOOTH",
"476 1409 LINE",
"171 1409 LINE",
"398 0 LINE",
"737 0 LINE"
);
}
);
width = 1366;
}
);
note = V;
unicode = 0056;
},
{
glyphname = W;
lastChange = "2019-11-19 22:35:12 +0000";
layers = (
{
layerId = "E64FF656-58E6-4C13-B3CC-343A43FBFB06";
paths = (
{
closed = 1;
nodes = (
"2079 1409 LINE",
"1788 1409 LINE",
"1449 584 OFFCURVE",
"1346 321 OFFCURVE",
"1319 248 QCURVE",
"1277 1409 LINE",
"961 1409 LINE",
"606 577 LINE",
"530 392 LINE",
"473 248 LINE",
"473 426 OFFCURVE",
"466 594 QCURVE SMOOTH",
"430 1409 LINE",
"150 1409 LINE",
"239 0 LINE",
"594 0 LINE",
"936 798 OFFCURVE",
"999 956 OFFCURVE",
"1059 1116 QCURVE",
"1060 1032 LINE",
"1064 812 LINE",
"1091 0 LINE",
"1441 0 LINE"
);
}
);
width = 1933;
}
);
note = W;
unicode = 0057;
},
{
glyphname = X;
lastChange = "2019-11-19 22:35:12 +0000";
layers = (
{
layerId = "E64FF656-58E6-4C13-B3CC-343A43FBFB06";
paths = (
{
closed = 1;
nodes = (
"558 736 LINE",
"-94 0 LINE",
"220 0 LINE",
"675 532 LINE",
"928 0 LINE",
"1235 0 LINE",
"868 732 LINE",
"1468 1409 LINE",
"1155 1409 LINE",
"753 938 LINE",
"529 1409 LINE",
"220 1409 LINE"
);
}
);
width = 1366;
}
);
note = X;
unicode = 0058;
},
{
glyphname = Y;
lastChange = "2019-11-19 22:35:12 +0000";
layers = (
{
layerId = "E64FF656-58E6-4C13-B3CC-343A43FBFB06";
paths = (
{
closed = 1;
nodes = (
"836 578 LINE",
"1520 1409 LINE",
"1197 1409 LINE",
"723 804 LINE",
"464 1409 LINE",
"172 1409 LINE",
"542 578 LINE",
"430 0 LINE",
"724 0 LINE"
);
}
);
width = 1366;
}
);
note = Y;
unicode = 0059;
},
{
glyphname = Z;
lastChange = "2019-11-19 22:35:12 +0000";
layers = (
{
layerId = "E64FF656-58E6-4C13-B3CC-343A43FBFB06";
paths = (
{
closed = 1;
nodes = (
"1127 231 LINE",
"345 231 LINE",
"1275 1204 LINE",
"1315 1409 LINE",
"301 1409 LINE",
"256 1178 LINE",
"919 1178 LINE",
"-8 209 LINE",
"-48 0 LINE",
"1082 0 LINE"
);
}
);
width = 1251;
}
);
note = Z;
unicode = 005A;
},
{
glyphname = bracketleft;
lastChange = "2019-11-19 22:35:12 +0000";
layers = (
{
layerId = "E64FF656-58E6-4C13-B3CC-343A43FBFB06";
paths = (
{
closed = 1;
nodes = (
"487 -425 LINE",
"524 -234 LINE",
"248 -234 LINE",
"545 1294 LINE",
"821 1294 LINE",
"858 1484 LINE",
"316 1484 LINE",
"-54 -425 LINE"
);
}
);
width = 682;
}
);
note = bracketleft;
unicode = 005B;
},
{
glyphname = backslash;
lastChange = "2019-11-19 22:35:12 +0000";
layers = (
{
layerId = "E64FF656-58E6-4C13-B3CC-343A43FBFB06";
paths = (
{
closed = 1;
nodes = (
"532 -41 LINE",
"349 1485 LINE",
"111 1485 LINE",
"289 -41 LINE"
);
}
);
width = 569;
}
);
note = backslash;
unicode = 005C;
},
{
glyphname = bracketright;
lastChange = "2019-11-19 22:35:12 +0000";
layers = (
{
layerId = "E64FF656-58E6-4C13-B3CC-343A43FBFB06";
paths = (
{
closed = 1;
nodes = (
"367 -425 LINE",
"738 1484 LINE",
"196 1484 LINE",
"159 1294 LINE",
"437 1294 LINE",
"140 -234 LINE",
"-137 -234 LINE",
"-174 -425 LINE"
);
}
);
width = 682;
}
);
note = bracketright;
unicode = 005D;
},
{
glyphname = asciicircum;
lastChange = "2019-11-19 22:35:12 +0000";
layers = (
{
layerId = "E64FF656-58E6-4C13-B3CC-343A43FBFB06";
paths = (
{
closed = 1;
nodes = (
"1191 514 LINE",
"798 1409 LINE",
"476 1409 LINE",
"85 514 LINE",
"312 514 LINE",
"636 1266 LINE",
"962 514 LINE"
);
}
);
width = 1196;
}
);
note = asciicircum;
unicode = 005E;
},
{
glyphname = underscore;
lastChange = "2019-11-19 22:35:12 +0000";
layers = (
{
layerId = "E64FF656-58E6-4C13-B3CC-343A43FBFB06";
paths = (
{
closed = 1;
nodes = (
"1057 -250 LINE",
"1057 -172 LINE",
"-120 -172 LINE",
"-120 -250 LINE"
);
}
);
width = 1139;
}
);
note = underscore;
unicode = 005F;
},
{
glyphname = grave;
lastChange = "2019-11-19 22:35:12 +0000";
layers = (
{
layerId = "E64FF656-58E6-4C13-B3CC-343A43FBFB06";
paths = (
{
closed = 1;
nodes = (
"744 1183 LINE",
"750 1214 LINE",
"555 1502 LINE",
"297 1502 LINE",
"289 1459 LINE",
"596 1183 LINE"
);
}
);
width = 682;
}
);
note = grave;
unicode = 0060;
},
{
glyphname = a;
lastChange = "2019-11-19 22:35:12 +0000";
layers = (
{
layerId = "E64FF656-58E6-4C13-B3CC-343A43FBFB06";
paths = (
{
closed = 1;
nodes = (
"937 -10 OFFCURVE",
"1023 -4 OFFCURVE",
"1065 12 QCURVE",
"1079 167 LINE",
"1047 160 OFFCURVE",
"1017 160 QCURVE SMOOTH",
"1010 160 OFFCURVE",
"984 163 OFFCURVE",
"958 175 OFFCURVE",
"938 201 OFFCURVE",
"938 225 QCURVE SMOOTH",
"938 252 OFFCURVE",
"946 297 QCURVE SMOOTH",
"1017 650 LINE SMOOTH",
"1041 770 OFFCURVE",
"1041 807 QCURVE SMOOTH",
"1041 956 OFFCURVE",
"848 1102 OFFCURVE",
"641 1102 QCURVE SMOOTH",
"443 1102 OFFCURVE",
"204 952 OFFCURVE",
"170 808 QCURVE",
"433 777 LINE",
"450 846 OFFCURVE",
"542 919 OFFCURVE",
"636 919 QCURVE SMOOTH",
"763 919 OFFCURVE",
"763 791 QCURVE SMOOTH",
"763 755 OFFCURVE",
"742 660 QCURVE",
"551 657 LINE SMOOTH",
"265 652 OFFCURVE",
"10 463 OFFCURVE",
"10 278 QCURVE SMOOTH",
"10 147 OFFCURVE",
"177 -20 OFFCURVE",
"317 -20 QCURVE SMOOTH",
"435 -20 OFFCURVE",
"599 77 OFFCURVE",
"683 207 QCURVE",
"689 207 LINE",
"684 180 OFFCURVE",
"684 143 QCURVE SMOOTH",
"684 74 OFFCURVE",
"792 -10 OFFCURVE",
"892 -10 QCURVE SMOOTH"
);
},
{
closed = 1;
nodes = (
"689 411 LINE SMOOTH",
"662 305 OFFCURVE",
"526 176 OFFCURVE",
"443 176 QCURVE SMOOTH",
"376 176 OFFCURVE",
"297 255 OFFCURVE",
"297 325 QCURVE SMOOTH",
"297 409 OFFCURVE",
"432 501 OFFCURVE",
"549 503 QCURVE SMOOTH",
"711 503 LINE"
);
}
);
width = 1139;
}
);
note = a;
unicode = 0061;
},
{
glyphname = b;
lastChange = "2019-11-20 22:29:24 +0000";
layers = (
{
layerId = "E64FF656-58E6-4C13-B3CC-343A43FBFB06";
paths = (
{
closed = 1;
nodes = (
"734 1102 OFFCURVE",
"555 997 OFFCURVE",
"499 913 QCURVE",
"495 913 LINE",
"514 992 OFFCURVE",
"527 1057 QCURVE SMOOTH",
"611 1484 LINE",
"330 1484 LINE",
"84 223 LINE SMOOTH",
"70 149 OFFCURVE",
"40 15 OFFCURVE",
"35 0 QCURVE",
"306 0 LINE",
"327 67 LINE SMOOTH",
"338 104 OFFCURVE",
"354 178 QCURVE",
"357 178 LINE",
"389 84 OFFCURVE",
"544 -20 OFFCURVE",
"669 -20 QCURVE SMOOTH",
"843 -20 OFFCURVE",
"1068 163 OFFCURVE",
"1192 546 OFFCURVE",
"1192 734 QCURVE SMOOTH",
"1192 748 LINE SMOOTH",
"1192 913 OFFCURVE",
"1014 1102 OFFCURVE",
"855 1102 QCURVE SMOOTH"
);
},
{
closed = 1;
nodes = (
"828 907 OFFCURVE",
"899 799 OFFCURVE",
"899 694 QCURVE SMOOTH",
"899 597 OFFCURVE",
"823 298 OFFCURVE",
"709 173 OFFCURVE",
"608 173 QCURVE SMOOTH",
"513 173 OFFCURVE",
"407 294 OFFCURVE",
"407 401 QCURVE SMOOTH",
"407 461 OFFCURVE",
"424 554 QCURVE SMOOTH",
"458 731 OFFCURVE",
"609 907 OFFCURVE",
"735 907 QCURVE SMOOTH"
);
}
);
width = 1251;
}
);
note = b;
unicode = 0062;
},
{
glyphname = c;
lastChange = "2019-11-19 22:35:12 +0000";
layers = (
{
layerId = "E64FF656-58E6-4C13-B3CC-343A43FBFB06";
paths = (
{
closed = 1;
nodes = (
"358 173 OFFCURVE",
"358 407 QCURVE SMOOTH",
"358 460 OFFCURVE",
"381 575 QCURVE",
"430 762 OFFCURVE",
"551 909 OFFCURVE",
"658 909 QCURVE SMOOTH",
"814 909 OFFCURVE",
"825 718 QCURVE",
"1109 741 LINE",
"1095 911 OFFCURVE",
"869 1102 OFFCURVE",
"680 1102 QCURVE SMOOTH",
"484 1102 OFFCURVE",
"221 942 OFFCURVE",
"63 600 OFFCURVE",
"63 405 QCURVE SMOOTH",
"63 205 OFFCURVE",
"300 -20 OFFCURVE",
"520 -20 QCURVE SMOOTH",
"923 -20 OFFCURVE",
"1030 331 QCURVE",
"759 381 LINE",
"727 278 OFFCURVE",
"619 173 OFFCURVE",
"536 173 QCURVE SMOOTH"
);
}
);
width = 1139;
}
);
note = c;
unicode = 0063;
},
{
glyphname = d;
lastChange = "2019-11-19 22:35:12 +0000";
layers = (
{
layerId = "E64FF656-58E6-4C13-B3CC-343A43FBFB06";
paths = (
{
closed = 1;
nodes = (
"753 160 LINE",
"738 63 OFFCURVE",
"738 0 QCURVE",
"1019 0 LINE",
"1028 119 OFFCURVE",
"1048 231 QCURVE SMOOTH",
"1286 1484 LINE",
"1009 1484 LINE",
"925 1066 LINE SMOOTH",
"913 1004 OFFCURVE",
"901 924 OFFCURVE",
"899 904 QCURVE",
"894 904 LINE",
"836 1102 OFFCURVE",
"580 1102 QCURVE SMOOTH",
"417 1102 OFFCURVE",
"186 911 OFFCURVE",
"58 545 OFFCURVE",
"58 354 QCURVE SMOOTH",
"58 183 OFFCURVE",
"238 -21 OFFCURVE",
"392 -21 QCURVE SMOOTH",
"513 -21 OFFCURVE",
"678 67 OFFCURVE",
"749 160 QCURVE"
);
},
{
closed = 1;
nodes = (
"355 172 OFFCURVE",
"355 393 QCURVE SMOOTH",
"355 506 OFFCURVE",
"423 772 OFFCURVE",
"552 910 OFFCURVE",
"654 910 QCURVE SMOOTH",
"748 910 OFFCURVE",
"842 801 OFFCURVE",
"842 681 QCURVE SMOOTH",
"842 600 OFFCURVE",
"794 384 OFFCURVE",
"712 241 OFFCURVE",
"596 172 OFFCURVE",
"515 172 QCURVE SMOOTH"
);
}
);
width = 1251;
}
);
note = d;
unicode = 0064;
},
{
glyphname = e;
lastChange = "2019-11-19 22:35:12 +0000";
layers = (
{
layerId = "E64FF656-58E6-4C13-B3CC-343A43FBFB06";
paths = (
{
closed = 1;
nodes = (
"1058 476 LINE",
"1082 592 OFFCURVE",
"1082 691 QCURVE SMOOTH",
"1082 887 OFFCURVE",
"855 1102 OFFCURVE",
"646 1102 QCURVE SMOOTH",
"472 1102 OFFCURVE",
"207 936 OFFCURVE",
"63 625 OFFCURVE",
"63 418 QCURVE SMOOTH",
"63 211 OFFCURVE",
"303 -20 OFFCURVE",
"516 -20 QCURVE SMOOTH",
"696 -20 OFFCURVE",
"918 104 OFFCURVE",
"993 263 QCURVE",
"748 337 LINE",
"682 168 OFFCURVE",
"535 168 QCURVE SMOOTH",
"444 168 OFFCURVE",
"351 281 OFFCURVE",
"351 387 QCURVE SMOOTH",
"351 438 OFFCURVE",
"358 476 QCURVE"
);
},
{
closed = 1;
nodes = (
"391 663 LINE",
"419 791 OFFCURVE",
"550 924 OFFCURVE",
"646 924 QCURVE SMOOTH",
"726 924 OFFCURVE",
"825 826 OFFCURVE",
"825 719 QCURVE",
"822 663 LINE"
);
}
);
width = 1139;
}
);
note = e;
unicode = 0065;
},
{
glyphname = f;
lastChange = "2019-11-19 22:35:12 +0000";
layers = (
{
layerId = "E64FF656-58E6-4C13-B3CC-343A43FBFB06";
paths = (
{
closed = 1;
nodes = (
"741 892 LINE",
"778 1082 LINE",
"565 1082 LINE",
"581 1167 LINE SMOOTH",
"594 1232 OFFCURVE",
"654 1296 OFFCURVE",
"721 1296 QCURVE SMOOTH",
"742 1296 OFFCURVE",
"806 1288 OFFCURVE",
"817 1286 QCURVE",
"853 1467 LINE",
"771 1484 OFFCURVE",
"698 1484 QCURVE SMOOTH",
"526 1484 OFFCURVE",
"337 1350 OFFCURVE",
"307 1195 QCURVE SMOOTH",
"285 1082 LINE",
"127 1082 LINE",
"90 892 LINE",
"248 892 LINE",
"74 0 LINE",
"354 0 LINE",
"528 892 LINE"
);
}
);
width = 682;
}
);
note = f;
unicode = 0066;
},
{
glyphname = g;
lastChange = "2019-11-19 22:35:12 +0000";
layers = (
{
layerId = "E64FF656-58E6-4C13-B3CC-343A43FBFB06";
paths = (
{
closed = 1;
nodes = (
"685 -425 OFFCURVE",
"955 -223 OFFCURVE",
"1002 10 QCURVE SMOOTH",
"1167 853 LINE",
"1197 999 LINE",
"1216 1082 LINE",
"951 1082 LINE",
"946 1074 OFFCURVE",
"909 922 OFFCURVE",
"903 893 QCURVE",
"901 893 LINE",
"874 989 OFFCURVE",
"704 1101 OFFCURVE",
"586 1101 QCURVE SMOOTH",
"415 1101 OFFCURVE",
"192 926 OFFCURVE",
"65 557 OFFCURVE",
"65 356 QCURVE SMOOTH",
"65 192 OFFCURVE",
"250 -8 OFFCURVE",
"405 -8 QCURVE SMOOTH",
"482 -8 OFFCURVE",
"601 34 OFFCURVE",
"696 112 OFFCURVE",
"759 201 QCURVE",
"761 201 LINE",
"750 123 OFFCURVE",
"730 27 QCURVE SMOOTH",
"696 -121 OFFCURVE",
"574 -239 OFFCURVE",
"464 -239 QCURVE SMOOTH",
"303 -239 OFFCURVE",
"276 -112 QCURVE",
"-7 -142 LINE",
"18 -287 OFFCURVE",
"232 -425 OFFCURVE",
"431 -425 QCURVE SMOOTH"
);
},
{
closed = 1;
nodes = (
"846 562 OFFCURVE",
"767 331 OFFCURVE",
"621 197 OFFCURVE",
"532 197 QCURVE SMOOTH",
"359 197 OFFCURVE",
"359 396 QCURVE SMOOTH",
"359 469 OFFCURVE",
"404 702 OFFCURVE",
"473 845 OFFCURVE",
"572 909 OFFCURVE",
"648 909 QCURVE SMOOTH",
"742 909 OFFCURVE",
"846 790 OFFCURVE",
"846 686 QCURVE SMOOTH"
);
}
);
width = 1251;
}
);
note = g;
unicode = 0067;
},
{
glyphname = h;
lastChange = "2019-11-19 22:35:12 +0000";
layers = (
{
layerId = "E64FF656-58E6-4C13-B3CC-343A43FBFB06";
paths = (
{
closed = 1;
nodes = (
"321 1484 LINE",
"35 0 LINE",
"317 0 LINE",
"435 606 LINE SMOOTH",
"457 725 OFFCURVE",
"629 889 OFFCURVE",
"730 889 QCURVE SMOOTH",
"882 889 OFFCURVE",
"882 760 QCURVE SMOOTH",
"882 719 OFFCURVE",
"856 595 QCURVE SMOOTH",
"738 0 LINE",
"1017 0 LINE",
"1144 653 LINE SMOOTH",
"1151 683 OFFCURVE",
"1165 792 OFFCURVE",
"1165 817 QCURVE SMOOTH",
"1165 955 OFFCURVE",
"1011 1101 OFFCURVE",
"859 1101 QCURVE SMOOTH",
"742 1101 OFFCURVE",
"561 1001 OFFCURVE",
"486 897 QCURVE",
"483 897 LINE",
"522 1079 LINE",
"601 1484 LINE"
);
}
);
width = 1251;
}
);
note = h;
unicode = 0068;
},
{
glyphname = i;
lastChange = "2019-11-19 22:35:12 +0000";
layers = (
{
layerId = "E64FF656-58E6-4C13-B3CC-343A43FBFB06";
paths = (
{
closed = 1;
nodes = (
"563 1277 LINE",
"604 1484 LINE",
"323 1484 LINE",
"282 1277 LINE"
);
},
{
closed = 1;
nodes = (
"315 0 LINE",
"526 1082 LINE",
"245 1082 LINE",
"35 0 LINE"
);
}
);
width = 569;
}
);
note = i;
unicode = 0069;
},
{
glyphname = j;
lastChange = "2019-11-19 22:35:12 +0000";
layers = (
{
layerId = "E64FF656-58E6-4C13-B3CC-343A43FBFB06";
paths = (
{
closed = 1;
nodes = (
"564 1277 LINE",
"604 1484 LINE",
"323 1484 LINE",
"283 1277 LINE"
);
},
{
closed = 1;
nodes = (
"86 -425 OFFCURVE",
"261 -272 OFFCURVE",
"290 -128 QCURVE SMOOTH",
"526 1082 LINE",
"245 1082 LINE",
"22 -60 LINE SMOOTH",
"4 -153 OFFCURVE",
"-59 -222 OFFCURVE",
"-126 -222 QCURVE",
"-184 -218 LINE",
"-220 -406 LINE",
"-149 -425 OFFCURVE",
"-54 -425 QCURVE SMOOTH"
);
}
);
width = 569;
}
);
note = j;
unicode = 006A;
},
{
glyphname = k;
lastChange = "2019-11-19 22:35:12 +0000";
layers = (
{
layerId = "E64FF656-58E6-4C13-B3CC-343A43FBFB06";
paths = (
{
closed = 1;
nodes = (
"1026 0 LINE",
"751 660 LINE",
"1224 1082 LINE",
"902 1082 LINE",
"437 634 LINE",
"604 1484 LINE",
"323 1484 LINE",
"35 0 LINE",
"315 0 LINE",
"400 422 LINE",
"540 497 LINE",
"728 0 LINE"
);
}
);
width = 1139;
}
);
note = k;
unicode = 006B;
},
{
glyphname = l;
lastChange = "2019-11-19 22:35:12 +0000";
layers = (
{
layerId = "E64FF656-58E6-4C13-B3CC-343A43FBFB06";
paths = (
{
closed = 1;
nodes = (
"315 0 LINE",
"604 1484 LINE",
"323 1484 LINE",
"35 0 LINE"
);
}
);
width = 569;
}
);
note = l;
unicode = 006C;
},
{
glyphname = m;
lastChange = "2019-11-19 22:35:12 +0000";
layers = (
{
layerId = "E64FF656-58E6-4C13-B3CC-343A43FBFB06";
paths = (
{
closed = 1;
nodes = (
"1445 892 OFFCURVE",
"1448 771 QCURVE SMOOTH",
"1448 766 LINE SMOOTH",
"1448 717 OFFCURVE",
"1430 627 QCURVE SMOOTH",
"1308 0 LINE",
"1587 0 LINE",
"1715 653 LINE SMOOTH",
"1736 753 OFFCURVE",
"1736 817 QCURVE SMOOTH",
"1736 955 OFFCURVE",
"1589 1101 OFFCURVE",
"1451 1101 QCURVE SMOOTH",
"1342 1101 OFFCURVE",
"1177 994 OFFCURVE",
"1097 869 QCURVE",
"1083 982 OFFCURVE",
"939 1101 OFFCURVE",
"815 1101 QCURVE SMOOTH",
"713 1101 OFFCURVE",
"564 1013 OFFCURVE",
"487 897 QCURVE",
"484 897 LINE",
"491 938 OFFCURVE",
"512 1071 OFFCURVE",
"512 1082 QCURVE",
"240 1082 LINE",
"221 946 OFFCURVE",
"201 851 QCURVE SMOOTH",
"35 0 LINE",
"317 0 LINE",
"435 604 LINE SMOOTH",
"462 741 OFFCURVE",
"599 892 OFFCURVE",
"687 892 QCURVE SMOOTH",
"813 892 OFFCURVE",
"813 771 QCURVE SMOOTH",
"813 726 OFFCURVE",
"796 635 QCURVE SMOOTH",
"673 0 LINE",
"952 0 LINE",
"1071 607 LINE SMOOTH",
"1097 738 OFFCURVE",
"1231 892 OFFCURVE",
"1322 892 QCURVE SMOOTH"
);
}
);
width = 1821;
}
);
note = m;
unicode = 006D;
},
{
glyphname = n;
lastChange = "2019-11-19 22:35:12 +0000";
layers = (
{
layerId = "E64FF656-58E6-4C13-B3CC-343A43FBFB06";
paths = (
{
closed = 1;
nodes = (
"1017 0 LINE",
"1144 653 LINE SMOOTH",
"1151 683 OFFCURVE",
"1165 792 OFFCURVE",
"1165 817 QCURVE SMOOTH",
"1165 955 OFFCURVE",
"1011 1101 OFFCURVE",
"859 1101 QCURVE SMOOTH",
"742 1101 OFFCURVE",
"561 1001 OFFCURVE",
"486 897 QCURVE",
"483 897 LINE",
"488 923 OFFCURVE",
"507 1073 OFFCURVE",
"507 1082 QCURVE",
"239 1082 LINE",
"217 930 OFFCURVE",
"201 851 QCURVE SMOOTH",
"35 0 LINE",
"317 0 LINE",
"435 606 LINE SMOOTH",
"457 725 OFFCURVE",
"629 889 OFFCURVE",
"730 889 QCURVE SMOOTH",
"882 889 OFFCURVE",
"882 760 QCURVE SMOOTH",
"882 719 OFFCURVE",
"856 595 QCURVE SMOOTH",
"738 0 LINE"
);
}
);
width = 1251;
}
);
note = n;
unicode = 006E;
},
{
glyphname = o;
lastChange = "2019-11-19 22:35:12 +0000";
layers = (
{
layerId = "E64FF656-58E6-4C13-B3CC-343A43FBFB06";
paths = (
{
closed = 1;
nodes = (
"1185 882 OFFCURVE",
"939 1101 OFFCURVE",
"704 1101 QCURVE SMOOTH",
"516 1101 OFFCURVE",
"222 930 OFFCURVE",
"63 620 OFFCURVE",
"63 419 QCURVE SMOOTH",
"63 215 OFFCURVE",
"317 -20 OFFCURVE",
"535 -20 QCURVE SMOOTH",
"723 -20 OFFCURVE",
"1022 154 OFFCURVE",
"1185 476 OFFCURVE",
"1185 683 QCURVE SMOOTH"
);
},
{
closed = 1;
nodes = (
"884 515 OFFCURVE",
"809 285 OFFCURVE",
"678 172 OFFCURVE",
"566 172 QCURVE SMOOTH",
"358 172 OFFCURVE",
"358 431 QCURVE SMOOTH",
"358 544 OFFCURVE",
"434 789 OFFCURVE",
"569 909 OFFCURVE",
"683 909 QCURVE SMOOTH",
"891 909 OFFCURVE",
"891 662 QCURVE"
);
}
);
width = 1251;
}
);
note = o;
unicode = 006F;
},
{
glyphname = p;
lastChange = "2019-11-19 22:35:12 +0000";
layers = (
{
layerId = "E64FF656-58E6-4C13-B3CC-343A43FBFB06";
paths = (
{
closed = 1;
nodes = (
"812 907 OFFCURVE",
"889 800 OFFCURVE",
"889 694 QCURVE SMOOTH",
"889 585 OFFCURVE",
"821 301 OFFCURVE",
"703 173 OFFCURVE",
"601 173 QCURVE SMOOTH",
"506 173 OFFCURVE",
"400 294 OFFCURVE",
"400 401 QCURVE SMOOTH",
"400 461 OFFCURVE",
"417 554 QCURVE SMOOTH",
"451 731 OFFCURVE",
"602 907 OFFCURVE",
"728 907 QCURVE SMOOTH"
);
},
{
closed = 1;
nodes = (
"489 913 LINE",
"497 941 OFFCURVE",
"512 1068 OFFCURVE",
"512 1082 QCURVE",
"237 1082 LINE",
"218 943 LINE",
"198 833 LINE",
"-45 -425 LINE",
"235 -425 LINE",
"315 -10 LINE SMOOTH",
"340 116 OFFCURVE",
"347 178 QCURVE",
"349 178 LINE",
"381 84 OFFCURVE",
"537 -20 OFFCURVE",
"662 -20 QCURVE SMOOTH",
"836 -20 OFFCURVE",
"1061 163 OFFCURVE",
"1185 546 OFFCURVE",
"1185 748 QCURVE SMOOTH",
"1185 913 OFFCURVE",
"1007 1102 OFFCURVE",
"848 1102 QCURVE SMOOTH",
"730 1102 OFFCURVE",
"565 1013 OFFCURVE",
"493 913 QCURVE"
);
}
);
width = 1251;
}
);
note = p;
unicode = 0070;
},
{
glyphname = q;
lastChange = "2019-11-19 22:35:12 +0000";
layers = (
{
layerId = "E64FF656-58E6-4C13-B3CC-343A43FBFB06";
paths = (
{
closed = 1;
nodes = (
"893 903 LINE",
"852 1011 OFFCURVE",
"710 1102 OFFCURVE",
"580 1102 QCURVE SMOOTH",
"419 1102 OFFCURVE",
"187 910 OFFCURVE",
"59 544 OFFCURVE",
"59 348 QCURVE SMOOTH",
"59 175 OFFCURVE",
"242 -21 OFFCURVE",
"394 -21 QCURVE SMOOTH",
"510 -21 OFFCURVE",
"679 65 OFFCURVE",
"754 163 QCURVE",
"758 163 LINE",
"722 7 LINE",
"637 -425 LINE",
"918 -425 LINE",
"1163 843 OFFCURVE",
"1207 1055 OFFCURVE",
"1215 1082 QCURVE",
"945 1082 LINE",
"923 1026 OFFCURVE",
"898 903 QCURVE"
);
},
{
closed = 1;
nodes = (
"437 172 OFFCURVE",
"356 282 OFFCURVE",
"356 386 QCURVE SMOOTH",
"356 509 OFFCURVE",
"427 781 OFFCURVE",
"559 910 OFFCURVE",
"669 910 QCURVE SMOOTH",
"843 910 OFFCURVE",
"843 680 QCURVE SMOOTH",
"843 615 OFFCURVE",
"827 527 QCURVE SMOOTH",
"795 349 OFFCURVE",
"645 172 OFFCURVE",
"518 172 QCURVE SMOOTH"
);
}
);
width = 1251;
}
);
note = q;
unicode = 0071;
},
{
glyphname = r;
lastChange = "2019-11-19 22:35:12 +0000";
layers = (
{
layerId = "E64FF656-58E6-4C13-B3CC-343A43FBFB06";
paths = (
{
closed = 1;
nodes = (
"890 1088 LINE",
"834 1102 OFFCURVE",
"787 1102 QCURVE SMOOTH",
"695 1102 OFFCURVE",
"553 995 OFFCURVE",
"480 861 QCURVE",
"476 861 LINE",
"484 910 LINE",
"506 1082 LINE",
"238 1082 LINE",
"220 950 OFFCURVE",
"196 830 QCURVE SMOOTH",
"35 0 LINE",
"316 0 LINE",
"417 514 LINE SMOOTH",
"452 694 OFFCURVE",
"607 868 OFFCURVE",
"730 868 QCURVE SMOOTH",
"775 868 OFFCURVE",
"844 853 QCURVE"
);
}
);
width = 797;
}
);
note = r;
unicode = 0072;
},
{
glyphname = s;
lastChange = "2019-11-19 22:35:12 +0000";
layers = (
{
layerId = "E64FF656-58E6-4C13-B3CC-343A43FBFB06";
paths = (
{
closed = 1;
nodes = (
"1000 458 OFFCURVE",
"850 610 OFFCURVE",
"668 651 QCURVE SMOOTH",
"527 684 OFFCURVE",
"453 716 OFFCURVE",
"413 760 OFFCURVE",
"413 793 QCURVE SMOOTH",
"413 913 OFFCURVE",
"618 913 QCURVE SMOOTH",
"703 913 OFFCURVE",
"801 851 OFFCURVE",
"818 782 QCURVE",
"1069 811 LINE",
"1045 958 OFFCURVE",
"843 1099 OFFCURVE",
"637 1099 QCURVE SMOOTH",
"404 1099 OFFCURVE",
"153 929 OFFCURVE",
"153 769 QCURVE SMOOTH",
"153 643 OFFCURVE",
"316 484 OFFCURVE",
"515 439 QCURVE SMOOTH",
"656 409 OFFCURVE",
"739 354 OFFCURVE",
"739 302 QCURVE SMOOTH",
"739 236 OFFCURVE",
"626 166 OFFCURVE",
"517 166 QCURVE SMOOTH",
"407 166 OFFCURVE",
"295 232 OFFCURVE",
"274 307 QCURVE",
"23 271 LINE",
"64 122 OFFCURVE",
"296 -20 OFFCURVE",
"497 -20 QCURVE SMOOTH",
"743 -20 OFFCURVE",
"1000 160 OFFCURVE",
"1000 334 QCURVE SMOOTH"
);
}
);
width = 1139;
}
);
note = s;
unicode = 0073;
},
{
glyphname = t;
lastChange = "2019-11-19 22:35:12 +0000";
layers = (
{
layerId = "E64FF656-58E6-4C13-B3CC-343A43FBFB06";
paths = (
{
closed = 1;
nodes = (
"479 -16 OFFCURVE",
"560 8 QCURVE",
"592 190 LINE",
"516 177 OFFCURVE",
"484 177 QCURVE SMOOTH",
"444 177 OFFCURVE",
"397 222 OFFCURVE",
"397 268 QCURVE SMOOTH",
"397 301 OFFCURVE",
"408 357 QCURVE SMOOTH",
"512 892 LINE",
"717 892 LINE",
"752 1082 LINE",
"550 1082 LINE",
"598 1336 LINE",
"422 1336 LINE",
"285 1082 LINE",
"123 1082 LINE",
"86 892 LINE",
"234 892 LINE",
"132 366 LINE SMOOTH",
"116 280 OFFCURVE",
"116 209 QCURVE SMOOTH",
"116 101 OFFCURVE",
"252 -16 OFFCURVE",
"376 -16 QCURVE SMOOTH"
);
}
);
width = 682;
}
);
note = t;
unicode = 0074;
},
{
glyphname = u;
lastChange = "2019-11-19 22:35:12 +0000";
layers = (
{
layerId = "E64FF656-58E6-4C13-B3CC-343A43FBFB06";
paths = (
{
closed = 1;
nodes = (
"233 1082 LINE",
"106 429 LINE",
"99 401 OFFCURVE",
"85 290 OFFCURVE",
"85 265 QCURVE SMOOTH",
"85 127 OFFCURVE",
"239 -19 OFFCURVE",
"391 -19 QCURVE SMOOTH",
"507 -19 OFFCURVE",
"688 78 OFFCURVE",
"764 185 QCURVE",
"767 185 LINE",
"762 159 OFFCURVE",
"743 9 OFFCURVE",
"743 0 QCURVE",
"1011 0 LINE",
"1033 152 OFFCURVE",
"1049 231 QCURVE SMOOTH",
"1215 1082 LINE",
"933 1082 LINE",
"815 476 LINE SMOOTH",
"792 355 OFFCURVE",
"621 193 OFFCURVE",
"520 193 QCURVE SMOOTH",
"368 193 OFFCURVE",
"368 322 QCURVE SMOOTH",
"368 364 OFFCURVE",
"394 487 QCURVE SMOOTH",
"512 1082 LINE"
);
}
);
width = 1251;
}
);
note = u;
unicode = 0075;
},
{
glyphname = v;
lastChange = "2019-11-19 22:35:12 +0000";
layers = (
{
layerId = "E64FF656-58E6-4C13-B3CC-343A43FBFB06";
paths = (
{
closed = 1;
nodes = (
"1232 1082 LINE",
"930 1082 LINE",
"614 474 LINE SMOOTH",
"553 351 OFFCURVE",
"492 208 QCURVE",
"492 231 OFFCURVE",
"474 447 OFFCURVE",
"470 477 QCURVE SMOOTH",
"399 1082 LINE",
"110 1082 LINE",
"286 0 LINE",
"622 0 LINE"
);
}
);
width = 1139;
}
);
note = v;
unicode = 0076;
},
{
glyphname = w;
lastChange = "2019-11-19 22:35:12 +0000";
layers = (
{
layerId = "E64FF656-58E6-4C13-B3CC-343A43FBFB06";
paths = (
{
closed = 1;
nodes = (
"1702 1082 LINE",
"1436 1082 LINE",
"1145 387 LINE",
"1092 255 LINE",
"1087 446 LINE",
"1045 1082 LINE",
"744 1082 LINE",
"450 446 LINE",
"398 323 LINE",
"371 255 LINE",
"371 386 LINE",
"357 1082 LINE",
"99 1082 LINE",
"168 0 LINE",
"465 0 LINE",
"767 658 LINE SMOOTH",
"809 748 OFFCURVE",
"862 890 QCURVE",
"867 660 LINE",
"910 0 LINE",
"1207 0 LINE"
);
}
);
width = 1593;
}
);
note = w;
unicode = 0077;
},
{
glyphname = x;
lastChange = "2019-11-19 22:35:12 +0000";
layers = (
{
layerId = "E64FF656-58E6-4C13-B3CC-343A43FBFB06";
paths = (
{
closed = 1;
nodes = (
"1019 0 LINE",
"725 557 LINE",
"1208 1082 LINE",
"900 1082 LINE",
"604 735 LINE",
"431 1082 LINE",
"139 1082 LINE",
"418 562 LINE",
"-90 0 LINE",
"211 0 LINE",
"538 383 LINE",
"724 0 LINE"
);
}
);
width = 1139;
}
);
note = x;
unicode = 0078;
},
{
glyphname = y;
lastChange = "2019-11-19 22:35:12 +0000";
layers = (
{
layerId = "E64FF656-58E6-4C13-B3CC-343A43FBFB06";
paths = (
{
closed = 1;
nodes = (
"181 -425 OFFCURVE",
"328 -360 OFFCURVE",
"463 -224 OFFCURVE",
"570 -57 QCURVE",
"1224 1082 LINE",
"924 1082 LINE",
"665 581 LINE",
"526 288 LINE",
"509 251 LINE",
"511 260 OFFCURVE",
"480 554 OFFCURVE",
"474 585 QCURVE",
"403 1082 LINE",
"112 1082 LINE",
"324 24 LINE",
"296 -24 LINE SMOOTH",
"237 -128 OFFCURVE",
"118 -220 OFFCURVE",
"40 -220 QCURVE SMOOTH",
"-7 -220 OFFCURVE",
"-47 -211 QCURVE",
"-85 -407 LINE",
"-9 -425 OFFCURVE",
"88 -425 QCURVE SMOOTH"
);
}
);
width = 1139;
}
);
note = y;
unicode = 0079;
},
{
glyphname = z;
lastChange = "2019-11-19 22:35:12 +0000";
layers = (
{
layerId = "E64FF656-58E6-4C13-B3CC-343A43FBFB06";
paths = (
{
closed = 1;
nodes = (
"848 0 LINE",
"888 205 LINE",
"361 205 LINE",
"971 881 LINE",
"1010 1082 LINE",
"241 1082 LINE",
"201 879 LINE",
"641 879 LINE",
"28 199 LINE",
"-10 0 LINE"
);
}
);
width = 1024;
}
);
note = z;
unicode = 007A;
},
{
glyphname = braceleft;
lastChange = "2019-11-19 22:35:12 +0000";
layers = (
{
layerId = "E64FF656-58E6-4C13-B3CC-343A43FBFB06";
paths = (
{
closed = 1;
nodes = (
"571 -425 LINE",
"608 -234 LINE",
"528 -234 LINE SMOOTH",
"472 -234 OFFCURVE",
"406 -182 OFFCURVE",
"406 -129 QCURVE SMOOTH",
"406 -95 OFFCURVE",
"415 -53 QCURVE SMOOTH",
"480 281 LINE SMOOTH",
"485 304 OFFCURVE",
"485 333 QCURVE SMOOTH",
"485 408 OFFCURVE",
"396 509 OFFCURVE",
"322 528 QCURVE",
"323 532 LINE",
"420 552 OFFCURVE",
"560 685 OFFCURVE",
"579 779 QCURVE SMOOTH",
"639 1089 LINE SMOOTH",
"661 1201 OFFCURVE",
"747 1294 OFFCURVE",
"829 1294 QCURVE SMOOTH",
"905 1294 LINE",
"942 1484 LINE",
"748 1484 LINE SMOOTH",
"594 1484 OFFCURVE",
"427 1336 OFFCURVE",
"398 1190 QCURVE SMOOTH",
"331 852 LINE SMOOTH",
"288 629 OFFCURVE",
"57 625 QCURVE",
"19 433 LINE",
"211 429 OFFCURVE",
"211 275 QCURVE SMOOTH",
"211 242 OFFCURVE",
"204 207 QCURVE SMOOTH",
"143 -101 LINE SMOOTH",
"132 -158 OFFCURVE",
"132 -202 QCURVE SMOOTH",
"132 -304 OFFCURVE",
"269 -425 OFFCURVE",
"388 -425 QCURVE SMOOTH"
);
}
);
width = 797;
}
);
note = braceleft;
unicode = 007B;
},
{
glyphname = bar;
lastChange = "2019-11-19 22:35:12 +0000";
layers = (
{
layerId = "E64FF656-58E6-4C13-B3CC-343A43FBFB06";
paths = (
{
closed = 1;
nodes = (
"453 -425 LINE",
"453 1484 LINE",
"191 1484 LINE",
"191 -425 LINE"
);
}
);
width = 573;
}
);
note = bar;
unicode = 007C;
},
{
glyphname = braceright;
lastChange = "2019-11-19 22:35:12 +0000";
layers = (
{
layerId = "E64FF656-58E6-4C13-B3CC-343A43FBFB06";
paths = (
{
closed = 1;
nodes = (
"216 1485 LINE",
"179 1294 LINE",
"259 1294 LINE SMOOTH",
"315 1294 OFFCURVE",
"381 1242 OFFCURVE",
"381 1189 QCURVE SMOOTH",
"381 1157 OFFCURVE",
"372 1112 QCURVE SMOOTH",
"307 779 LINE SMOOTH",
"302 756 OFFCURVE",
"302 727 QCURVE SMOOTH",
"302 653 OFFCURVE",
"390 550 OFFCURVE",
"465 531 QCURVE",
"464 528 LINE",
"367 508 OFFCURVE",
"227 375 OFFCURVE",
"208 280 QCURVE SMOOTH",
"148 -30 LINE SMOOTH",
"126 -142 OFFCURVE",
"40 -235 OFFCURVE",
"-42 -235 QCURVE SMOOTH",
"-118 -235 LINE",
"-155 -425 LINE",
"39 -425 LINE SMOOTH",
"189 -425 OFFCURVE",
"358 -282 OFFCURVE",
"389 -130 QCURVE SMOOTH",
"456 207 LINE SMOOTH",
"478 320 OFFCURVE",
"612 433 OFFCURVE",
"730 435 QCURVE",
"768 627 LINE",
"669 629 OFFCURVE",
"576 708 OFFCURVE",
"576 785 QCURVE SMOOTH",
"576 820 OFFCURVE",
"583 853 QCURVE SMOOTH",
"644 1161 LINE SMOOTH",
"655 1216 OFFCURVE",
"655 1262 QCURVE SMOOTH",
"655 1364 OFFCURVE",
"518 1485 OFFCURVE",
"399 1485 QCURVE SMOOTH"
);
}
);
width = 797;
}
);
note = braceright;
unicode = 007D;
},
{
glyphname = asciitilde;
lastChange = "2019-11-19 22:35:12 +0000";
layers = (
{
layerId = "E64FF656-58E6-4C13-B3CC-343A43FBFB06";
paths = (
{
closed = 1;
nodes = (
"975 516 OFFCURVE",
"1092 552 OFFCURVE",
"1156 596 QCURVE",
"1156 815 LINE",
"1042 723 OFFCURVE",
"908 723 QCURVE SMOOTH",
"830 723 OFFCURVE",
"696 770 QCURVE SMOOTH",
"622 796 OFFCURVE",
"469 840 OFFCURVE",
"389 840 QCURVE SMOOTH",
"231 840 OFFCURVE",
"118 756 QCURVE",
"118 543 LINE",
"183 588 OFFCURVE",
"302 631 OFFCURVE",
"373 631 QCURVE SMOOTH",
"459 631 OFFCURVE",
"594 584 QCURVE SMOOTH",
"669 558 OFFCURVE",
"814 516 OFFCURVE",
"889 516 QCURVE SMOOTH"
);
}
);
width = 1196;
}
);
note = asciitilde;
unicode = 007E;
},
{
glyphname = dagger;
lastChange = "2019-11-19 22:35:12 +0000";
layers = (
{
layerId = "E64FF656-58E6-4C13-B3CC-343A43FBFB06";
paths = (
{
closed = 1;
nodes = (
"1077 933 LINE",
"1117 1137 LINE",
"778 1108 LINE",
"879 1484 LINE",
"624 1484 LINE",
"579 1108 LINE",
"253 1137 LINE",
"213 933 LINE",
"550 960 LINE",
"359 -138 LINE",
"514 -138 LINE",
"749 960 LINE"
);
}
);
width = 1139;
}
);
note = dagger;
unicode = 2020;
},
{
glyphname = degree;
lastChange = "2019-11-19 22:35:12 +0000";
layers = (
{
layerId = "E64FF656-58E6-4C13-B3CC-343A43FBFB06";
paths = (
{
closed = 1;
nodes = (
"830 1240 OFFCURVE",
"644 1425 OFFCURVE",
"509 1425 QCURVE SMOOTH",
"421 1425 OFFCURVE",
"274 1342 OFFCURVE",
"189 1196 OFFCURVE",
"189 1110 QCURVE SMOOTH",
"189 977 OFFCURVE",
"377 795 OFFCURVE",
"509 795 QCURVE SMOOTH",
"643 795 OFFCURVE",
"830 980 OFFCURVE",
"830 1110 QCURVE SMOOTH"
);
},
{
closed = 1;
nodes = (
"672 1040 OFFCURVE",
"576 942 OFFCURVE",
"509 942 QCURVE SMOOTH",
"441 942 OFFCURVE",
"343 1041 OFFCURVE",
"343 1110 QCURVE SMOOTH",
"343 1179 OFFCURVE",
"438 1276 OFFCURVE",
"509 1276 QCURVE SMOOTH",
"579 1276 OFFCURVE",
"672 1180 OFFCURVE",
"672 1110 QCURVE SMOOTH"
);
}
);
width = 819;
}
);
note = degree;
unicode = 00B0;
},
{
glyphname = cent;
lastChange = "2019-11-19 22:35:12 +0000";
layers = (
{
layerId = "E64FF656-58E6-4C13-B3CC-343A43FBFB06";
paths = (
{
closed = 1;
nodes = (
"371 328 OFFCURVE",
"371 562 QCURVE SMOOTH",
"371 615 OFFCURVE",
"394 730 QCURVE",
"443 917 OFFCURVE",
"564 1064 OFFCURVE",
"671 1064 QCURVE SMOOTH",
"827 1064 OFFCURVE",
"838 873 QCURVE",
"1122 896 LINE",
"1111 1039 OFFCURVE",
"941 1225 OFFCURVE",
"799 1248 QCURVE",
"831 1409 LINE",
"669 1409 LINE",
"638 1255 LINE",
"418 1244 OFFCURVE",
"150 983 OFFCURVE",
"94 739 QCURVE SMOOTH",
"76 665 OFFCURVE",
"76 560 QCURVE SMOOTH",
"76 385 OFFCURVE",
"257 169 OFFCURVE",
"422 143 QCURVE",
"390 -31 LINE",
"552 -31 LINE",
"584 136 LINE",
"760 147 OFFCURVE",
"991 317 OFFCURVE",
"1043 486 QCURVE",
"772 536 LINE",
"740 433 OFFCURVE",
"632 328 OFFCURVE",
"549 328 QCURVE SMOOTH"
);
}
);
width = 1139;
}
);
note = cent;
unicode = 00A2;
},
{
glyphname = sterling;
lastChange = "2019-11-19 22:35:12 +0000";
layers = (
{
layerId = "E64FF656-58E6-4C13-B3CC-343A43FBFB06";
paths = (
{
closed = 1;
nodes = (
"879 402 LINE",
"855 300 OFFCURVE",
"736 210 OFFCURVE",
"641 210 QCURVE SMOOTH",
"233 210 LINE",
"423 283 OFFCURVE",
"465 478 QCURVE SMOOTH",
"492 604 LINE",
"778 604 LINE",
"811 774 LINE",
"525 774 LINE",
"578 1042 LINE SMOOTH",
"598 1147 OFFCURVE",
"682 1239 OFFCURVE",
"760 1239 QCURVE SMOOTH",
"831 1239 OFFCURVE",
"914 1166 OFFCURVE",
"929 1082 QCURVE",
"1174 1130 LINE",
"1157 1271 OFFCURVE",
"948 1430 OFFCURVE",
"772 1430 QCURVE SMOOTH",
"575 1430 OFFCURVE",
"355 1241 OFFCURVE",
"316 1034 QCURVE SMOOTH",
"265 774 LINE",
"87 774 LINE",
"55 604 LINE",
"242 604 LINE",
"217 481 LINE SMOOTH",
"196 376 OFFCURVE",
"82 243 OFFCURVE",
"-12 205 QCURVE",
"-51 0 LINE",
"663 0 LINE SMOOTH",
"834 0 OFFCURVE",
"1062 184 OFFCURVE",
"1104 363 QCURVE"
);
}
);
width = 1139;
}
);
note = sterling;
unicode = 00A3;
},
{
glyphname = section;
lastChange = "2019-11-19 22:35:12 +0000";
layers = (
{
layerId = "E64FF656-58E6-4C13-B3CC-343A43FBFB06";
paths = (
{
closed = 1;
nodes = (
"467 1427 OFFCURVE",
"221 1265 OFFCURVE",
"221 1100 QCURVE SMOOTH",
"221 1022 OFFCURVE",
"295 900 OFFCURVE",
"366 861 QCURVE",
"95 794 OFFCURVE",
"95 585 QCURVE SMOOTH",
"95 354 OFFCURVE",
"416 283 QCURVE SMOOTH",
"572 247 OFFCURVE",
"665 205 OFFCURVE",
"716 143 OFFCURVE",
"716 95 QCURVE SMOOTH",
"716 21 OFFCURVE",
"574 -59 OFFCURVE",
"438 -59 QCURVE SMOOTH",
"332 -59 OFFCURVE",
"216 13 OFFCURVE",
"202 96 QCURVE",
"-42 59 LINE",
"-23 -90 OFFCURVE",
"205 -229 OFFCURVE",
"425 -229 QCURVE SMOOTH",
"685 -229 OFFCURVE",
"962 -40 OFFCURVE",
"962 142 QCURVE SMOOTH",
"962 217 OFFCURVE",
"893 333 OFFCURVE",
"830 368 QCURVE",
"963 410 OFFCURVE",
"1079 556 OFFCURVE",
"1079 668 QCURVE SMOOTH",
"1079 881 OFFCURVE",
"722 963 QCURVE SMOOTH",
"613 989 OFFCURVE",
"521 1030 OFFCURVE",
"469 1086 OFFCURVE",
"469 1124 QCURVE SMOOTH",
"469 1257 OFFCURVE",
"697 1257 QCURVE SMOOTH",
"780 1257 OFFCURVE",
"892 1196 OFFCURVE",
"904 1128 QCURVE",
"1148 1153 LINE",
"1141 1287 OFFCURVE",
"922 1427 OFFCURVE",
"718 1427 QCURVE SMOOTH"
);
},
{
closed = 1;
nodes = (
"721 746 OFFCURVE",
"830 667 OFFCURVE",
"830 598 QCURVE SMOOTH",
"830 536 OFFCURVE",
"711 463 OFFCURVE",
"600 454 QCURVE",
"482 482 OFFCURVE",
"395 525 OFFCURVE",
"346 584 OFFCURVE",
"346 626 QCURVE SMOOTH",
"346 696 OFFCURVE",
"468 774 OFFCURVE",
"571 780 QCURVE"
);
}
);
width = 1139;
}
);
note = section;
unicode = 00A7;
},
{
glyphname = bullet;
lastChange = "2019-11-19 22:35:12 +0000";
layers = (
{
layerId = "E64FF656-58E6-4C13-B3CC-343A43FBFB06";
paths = (
{
closed = 1;
nodes = (
"676 798 OFFCURVE",
"503 969 OFFCURVE",
"381 969 QCURVE SMOOTH",
"261 969 OFFCURVE",
"90 798 OFFCURVE",
"90 676 QCURVE SMOOTH",
"90 554 OFFCURVE",
"262 381 OFFCURVE",
"381 381 QCURVE SMOOTH",
"502 381 OFFCURVE",
"676 555 OFFCURVE",
"676 676 QCURVE SMOOTH"
);
}
);
width = 717;
}
);
note = bullet;
unicode = 2022;
},
{
glyphname = paragraph;
lastChange = "2019-11-19 22:35:12 +0000";
layers = (
{
layerId = "E64FF656-58E6-4C13-B3CC-343A43FBFB06";
paths = (
{
closed = 1;
nodes = (
"1106 1266 LINE",
"1106 1409 LINE",
"477 1409 LINE SMOOTH",
"303 1409 OFFCURVE",
"106 1218 OFFCURVE",
"106 1049 QCURVE SMOOTH",
"106 879 OFFCURVE",
"300 694 OFFCURVE",
"469 694 QCURVE",
"469 -264 LINE",
"624 -264 LINE",
"624 1266 LINE",
"819 1266 LINE",
"819 -264 LINE",
"975 -264 LINE",
"975 1266 LINE"
);
}
);
width = 1139;
}
);
note = paragraph;
unicode = 00B6;
},
{
glyphname = germandbls;
lastChange = "2019-11-19 22:35:12 +0000";
layers = (
{
layerId = "E64FF656-58E6-4C13-B3CC-343A43FBFB06";
paths = (
{
closed = 1;
nodes = (
"316 0 LINE",
"513 1021 LINE SMOOTH",
"539 1153 OFFCURVE",
"672 1281 OFFCURVE",
"788 1281 QCURVE SMOOTH",
"858 1281 OFFCURVE",
"931 1221 OFFCURVE",
"931 1168 QCURVE SMOOTH",
"931 1110 OFFCURVE",
"863 1012 OFFCURVE",
"785 953 QCURVE SMOOTH",
"707 895 OFFCURVE",
"638 786 OFFCURVE",
"638 718 QCURVE SMOOTH",
"638 650 OFFCURVE",
"697 547 OFFCURVE",
"761 501 QCURVE SMOOTH",
"827 452 OFFCURVE",
"883 373 OFFCURVE",
"883 322 QCURVE SMOOTH",
"883 250 OFFCURVE",
"800 166 OFFCURVE",
"720 166 QCURVE SMOOTH",
"670 166 OFFCURVE",
"574 187 OFFCURVE",
"496 223 QCURVE",
"428 37 LINE",
"546 -20 OFFCURVE",
"749 -20 QCURVE SMOOTH",
"931 -20 OFFCURVE",
"1152 178 OFFCURVE",
"1152 345 QCURVE SMOOTH",
"1152 507 OFFCURVE",
"1026 601 QCURVE SMOOTH",
"954 654 OFFCURVE",
"900 719 OFFCURVE",
"900 759 QCURVE SMOOTH",
"900 796 OFFCURVE",
"958 860 OFFCURVE",
"1044 924 QCURVE SMOOTH",
"1187 1031 OFFCURVE",
"1187 1196 QCURVE SMOOTH",
"1187 1330 OFFCURVE",
"978 1484 OFFCURVE",
"797 1484 QCURVE SMOOTH",
"562 1484 OFFCURVE",
"285 1264 OFFCURVE",
"235 1027 QCURVE SMOOTH",
"35 0 LINE"
);
}
);
width = 1251;
}
);
note = germandbls;
unicode = 00DF;
},
{
glyphname = registered;
lastChange = "2019-11-19 22:35:12 +0000";
layers = (
{
layerId = "E64FF656-58E6-4C13-B3CC-343A43FBFB06";
paths = (
{
closed = 1;
nodes = (
"1508 901 OFFCURVE",
"1316 1235 OFFCURVE",
"979 1430 OFFCURVE",
"785 1430 QCURVE SMOOTH",
"592 1430 OFFCURVE",
"256 1236 OFFCURVE",
"62 900 OFFCURVE",
"62 707 QCURVE SMOOTH",
"62 518 OFFCURVE",
"249 185 OFFCURVE",
"588 -16 OFFCURVE",
"785 -16 QCURVE SMOOTH",
"978 -16 OFFCURVE",
"1315 177 OFFCURVE",
"1508 514 OFFCURVE",
"1508 707 QCURVE SMOOTH"
);
},
{
closed = 1;
nodes = (
"1396 544 OFFCURVE",
"1233 260 OFFCURVE",
"949 96 OFFCURVE",
"785 96 QCURVE SMOOTH",
"621 96 OFFCURVE",
"340 260 OFFCURVE",
"177 544 OFFCURVE",
"177 707 QCURVE SMOOTH",
"177 876 OFFCURVE",
"348 1159 OFFCURVE",
"628 1315 OFFCURVE",
"785 1315 QCURVE SMOOTH",
"948 1315 OFFCURVE",
"1232 1151 OFFCURVE",
"1396 870 OFFCURVE",
"1396 707 QCURVE SMOOTH"
);
},
{
closed = 1;
nodes = (
"1154 297 LINE",
"941 633 LINE",
"1019 658 OFFCURVE",
"1115 776 OFFCURVE",
"1115 870 QCURVE SMOOTH",
"1115 983 OFFCURVE",
"963 1112 OFFCURVE",
"810 1112 QCURVE SMOOTH",
"480 1112 LINE",
"480 297 LINE",
"658 297 LINE",
"658 610 LINE",
"775 610 LINE",
"953 297 LINE"
);
},
{
closed = 1;
nodes = (
"935 810 OFFCURVE",
"868 739 OFFCURVE",
"802 739 QCURVE SMOOTH",
"658 739 LINE",
"658 985 LINE",
"791 985 LINE SMOOTH",
"860 985 OFFCURVE",
"935 925 OFFCURVE",
"935 868 QCURVE SMOOTH"
);
}
);
width = 1509;
}
);
note = registered;
unicode = 00AE;
},
{
glyphname = copyright;
lastChange = "2019-11-19 22:35:12 +0000";
layers = (
{
layerId = "E64FF656-58E6-4C13-B3CC-343A43FBFB06";
paths = (
{
closed = 1;
nodes = (
"1508 901 OFFCURVE",
"1316 1235 OFFCURVE",
"979 1430 OFFCURVE",
"785 1430 QCURVE SMOOTH",
"592 1430 OFFCURVE",
"256 1236 OFFCURVE",
"62 900 OFFCURVE",
"62 707 QCURVE SMOOTH",
"62 518 OFFCURVE",
"249 185 OFFCURVE",
"588 -16 OFFCURVE",
"785 -16 QCURVE SMOOTH",
"978 -16 OFFCURVE",
"1315 177 OFFCURVE",
"1508 514 OFFCURVE",
"1508 707 QCURVE SMOOTH"
);
},
{
closed = 1;
nodes = (
"1396 544 OFFCURVE",
"1233 260 OFFCURVE",
"949 96 OFFCURVE",
"785 96 QCURVE SMOOTH",
"621 96 OFFCURVE",
"340 260 OFFCURVE",
"177 544 OFFCURVE",
"177 707 QCURVE SMOOTH",
"177 876 OFFCURVE",
"348 1159 OFFCURVE",
"628 1315 OFFCURVE",
"785 1315 QCURVE SMOOTH",
"948 1315 OFFCURVE",
"1232 1151 OFFCURVE",
"1396 870 OFFCURVE",
"1396 707 QCURVE SMOOTH"
);
},
{
closed = 1;
nodes = (
"922 285 OFFCURVE",
"1096 397 OFFCURVE",
"1154 522 QCURVE",
"994 569 LINE",
"966 500 OFFCURVE",
"864 426 OFFCURVE",
"798 426 QCURVE SMOOTH",
"692 426 OFFCURVE",
"574 574 OFFCURVE",
"574 709 QCURVE SMOOTH",
"574 843 OFFCURVE",
"685 983 OFFCURVE",
"794 983 QCURVE SMOOTH",
"863 983 OFFCURVE",
"960 915 OFFCURVE",
"986 854 QCURVE",
"1142 895 LINE",
"1094 1012 OFFCURVE",
"919 1124 OFFCURVE",
"789 1124 QCURVE SMOOTH",
"598 1124 OFFCURVE",
"394 912 OFFCURVE",
"394 709 QCURVE SMOOTH",
"394 507 OFFCURVE",
"605 285 OFFCURVE",
"798 285 QCURVE SMOOTH"
);
}
);
width = 1509;
}
);
note = copyright;
unicode = 00A9;
},
{
glyphname = trademark;
lastChange = "2019-11-19 22:35:12 +0000";
layers = (
{
layerId = "E64FF656-58E6-4C13-B3CC-343A43FBFB06";
paths = (
{
closed = 1;
nodes = (
"1119 1108 LINE SMOOTH",
"1119 1137 OFFCURVE",
"1112 1280 QCURVE",
"1189 1096 LINE",
"1338 768 LINE",
"1469 768 LINE",
"1623 1096 LINE",
"1669 1205 LINE",
"1699 1280 LINE",
"1691 1124 OFFCURVE",
"1691 1108 QCURVE SMOOTH",
"1691 768 LINE",
"1856 768 LINE",
"1856 1409 LINE",
"1613 1409 LINE",
"1469 1108 LINE",
"1428 1009 LINE",
"1405 948 LINE",
"1362 1059 OFFCURVE",
"1340 1108 QCURVE SMOOTH",
"1201 1409 LINE",
"953 1409 LINE",
"953 768 LINE",
"1119 768 LINE"
);
},
{
closed = 1;
nodes = (
"859 1270 LINE",
"859 1409 LINE",
"185 1409 LINE",
"185 1270 LINE",
"428 1270 LINE",
"428 768 LINE",
"608 768 LINE",
"608 1270 LINE"
);
}
);
width = 2048;
}
);
note = trademark;
unicode = 2122;
},
{
glyphname = acute;
lastChange = "2019-11-19 22:35:12 +0000";
layers = (
{
layerId = "E64FF656-58E6-4C13-B3CC-343A43FBFB06";
paths = (
{
closed = 1;
nodes = (
"401 1183 LINE",
"777 1459 LINE",
"785 1502 LINE",
"508 1502 LINE",
"261 1214 LINE",
"255 1183 LINE"
);
}
);
width = 682;
}
);
note = acute;
unicode = 00B4;
},
{
glyphname = dieresis;
lastChange = "2019-11-19 22:35:12 +0000";
layers = (
{
layerId = "E64FF656-58E6-4C13-B3CC-343A43FBFB06";
paths = (
{
closed = 1;
nodes = (
"785 1199 LINE",
"828 1418 LINE",
"611 1418 LINE",
"568 1199 LINE"
);
},
{
closed = 1;
nodes = (
"348 1199 LINE",
"391 1418 LINE",
"177 1418 LINE",
"135 1199 LINE"
);
}
);
width = 682;
}
);
note = dieresis;
unicode = 00A8;
},
{
glyphname = notequal;
lastChange = "2019-11-19 22:35:12 +0000";
layers = (
{
layerId = "E64FF656-58E6-4C13-B3CC-343A43FBFB06";
paths = (
{
closed = 1;
nodes = (
"1126 291 LINE",
"1126 512 LINE",
"599 512 LINE",
"765 842 LINE",
"1126 842 LINE",
"1126 1065 LINE",
"874 1065 LINE",
"1005 1323 LINE",
"794 1323 LINE",
"661 1065 LINE",
"59 1065 LINE",
"59 842 LINE",
"552 842 LINE",
"386 512 LINE",
"59 512 LINE",
"59 291 LINE",
"278 291 LINE",
"149 37 LINE",
"362 37 LINE",
"491 291 LINE"
);
}
);
width = 1124;
}
);
note = notequal;
unicode = 2260;
},
{
glyphname = AE;
lastChange = "2019-11-19 22:35:12 +0000";
layers = (
{
layerId = "E64FF656-58E6-4C13-B3CC-343A43FBFB06";
paths = (
{
closed = 1;
nodes = (
"1866 0 LINE",
"1910 227 LINE",
"1168 227 LINE",
"1241 606 LINE",
"1880 606 LINE",
"1923 827 LINE",
"1284 827 LINE",
"1353 1182 LINE",
"2054 1182 LINE",
"2099 1409 LINE",
"868 1409 LINE",
"-97 0 LINE",
"215 0 LINE",
"457 360 LINE",
"907 360 LINE",
"837 0 LINE"
);
},
{
closed = 1;
nodes = (
"950 582 LINE",
"602 582 LINE",
"871 983 LINE",
"1007 1192 LINE",
"1068 1192 LINE"
);
}
);
width = 2048;
}
);
note = AE;
unicode = 00C6;
},
{
glyphname = Oslash;
lastChange = "2019-11-19 22:35:12 +0000";
layers = (
{
layerId = "E64FF656-58E6-4C13-B3CC-343A43FBFB06";
paths = (
{
closed = 1;
nodes = (
"685 1430 OFFCURVE",
"311 1215 OFFCURVE",
"100 808 OFFCURVE",
"100 573 QCURVE SMOOTH",
"100 325 OFFCURVE",
"240 167 QCURVE",
"35 -53 LINE",
"242 -53 LINE",
"357 71 LINE",
"505 -20 OFFCURVE",
"727 -20 QCURVE SMOOTH",
"970 -20 OFFCURVE",
"1348 197 OFFCURVE",
"1559 604 OFFCURVE",
"1559 851 QCURVE SMOOTH",
"1559 1079 OFFCURVE",
"1435 1227 QCURVE",
"1658 1466 LINE",
"1455 1466 LINE",
"1324 1326 LINE",
"1165 1430 OFFCURVE",
"928 1430 QCURVE SMOOTH"
);
},
{
closed = 1;
nodes = (
"1051 1197 OFFCURVE",
"1138 1127 QCURVE",
"439 379 LINE",
"400 460 OFFCURVE",
"400 581 QCURVE SMOOTH",
"400 745 OFFCURVE",
"524 1047 OFFCURVE",
"752 1197 OFFCURVE",
"914 1197 QCURVE SMOOTH"
);
},
{
closed = 1;
nodes = (
"1255 658 OFFCURVE",
"1130 362 OFFCURVE",
"902 212 OFFCURVE",
"741 212 QCURVE SMOOTH",
"617 212 OFFCURVE",
"538 264 QCURVE",
"1226 1002 LINE",
"1255 927 OFFCURVE",
"1255 827 QCURVE SMOOTH"
);
}
);
width = 1593;
}
);
note = Oslash;
unicode = 00D8;
},
{
glyphname = infinity;
lastChange = "2019-11-19 22:35:12 +0000";
layers = (
{
layerId = "E64FF656-58E6-4C13-B3CC-343A43FBFB06";
paths = (
{
closed = 1;
nodes = (
"1398 752 OFFCURVE",
"1215 955 OFFCURVE",
"1063 955 QCURVE SMOOTH",
"866 955 OFFCURVE",
"739 725 QCURVE",
"674 853 OFFCURVE",
"509 964 OFFCURVE",
"406 964 QCURVE SMOOTH",
"266 964 OFFCURVE",
"81 756 OFFCURVE",
"81 597 QCURVE SMOOTH",
"81 431 OFFCURVE",
"261 226 OFFCURVE",
"406 226 QCURVE SMOOTH",
"608 226 OFFCURVE",
"739 455 QCURVE",
"861 216 OFFCURVE",
"1075 216 QCURVE SMOOTH",
"1212 216 OFFCURVE",
"1398 428 OFFCURVE",
"1398 583 QCURVE SMOOTH"
);
},
{
closed = 1;
nodes = (
"1122 782 OFFCURVE",
"1208 673 OFFCURVE",
"1208 585 QCURVE SMOOTH",
"1208 499 OFFCURVE",
"1119 389 OFFCURVE",
"1050 389 QCURVE SMOOTH",
"980 389 OFFCURVE",
"881 491 OFFCURVE",
"837 585 QCURVE",
"931 782 OFFCURVE",
"1051 782 QCURVE SMOOTH"
);
},
{
closed = 1;
nodes = (
"593 495 OFFCURVE",
"497 400 OFFCURVE",
"438 400 QCURVE SMOOTH",
"361 400 OFFCURVE",
"271 511 OFFCURVE",
"271 595 QCURVE SMOOTH",
"271 682 OFFCURVE",
"366 793 OFFCURVE",
"437 793 QCURVE SMOOTH",
"497 793 OFFCURVE",
"587 708 OFFCURVE",
"640 595 QCURVE"
);
}
);
width = 1460;
}
);
note = infinity;
unicode = 221E;
},
{
glyphname = plusminus;
lastChange = "2019-11-19 22:35:12 +0000";
layers = (
{
layerId = "E64FF656-58E6-4C13-B3CC-343A43FBFB06";
paths = (
{
closed = 1;
nodes = (
"1114 707 LINE",
"1114 930 LINE",
"712 930 LINE",
"712 1270 LINE",
"488 1270 LINE",
"488 930 LINE",
"87 930 LINE",
"87 707 LINE",
"488 707 LINE",
"488 366 LINE",
"712 366 LINE",
"712 707 LINE"
);
},
{
closed = 1;
nodes = (
"1114 0 LINE",
"1114 223 LINE",
"87 223 LINE",
"87 0 LINE"
);
}
);
width = 1124;
}
);
note = plusminus;
unicode = 00B1;
},
{
glyphname = lessequal;
lastChange = "2019-11-19 22:35:12 +0000";
layers = (
{
layerId = "E64FF656-58E6-4C13-B3CC-343A43FBFB06";
paths = (
{
closed = 1;
nodes = (
"1113 285 LINE",
"1113 512 LINE",
"281 791 LINE",
"1113 1071 LINE",
"1113 1298 LINE",
"87 952 LINE",
"87 631 LINE"
);
},
{
closed = 1;
nodes = (
"1111 0 LINE",
"1111 223 LINE",
"87 223 LINE",
"87 0 LINE"
);
}
);
width = 1124;
}
);
note = lessequal;
unicode = 2264;
},
{
glyphname = greaterequal;
lastChange = "2019-11-19 22:35:12 +0000";
layers = (
{
layerId = "E64FF656-58E6-4C13-B3CC-343A43FBFB06";
paths = (
{
closed = 1;
nodes = (
"1113 631 LINE",
"1113 952 LINE",
"87 1298 LINE",
"87 1071 LINE",
"918 791 LINE",
"87 512 LINE",
"87 285 LINE"
);
},
{
closed = 1;
nodes = (
"1113 0 LINE",
"1113 223 LINE",
"87 223 LINE",
"87 0 LINE"
);
}
);
width = 1124;
}
);
note = greaterequal;
unicode = 2265;
},
{
glyphname = yen;
lastChange = "2019-11-19 22:35:12 +0000";
layers = (
{
layerId = "E64FF656-58E6-4C13-B3CC-343A43FBFB06";
paths = (
{
closed = 1;
nodes = (
"1301 1409 LINE",
"1007 1409 LINE",
"617 813 LINE",
"463 1409 LINE",
"179 1409 LINE",
"403 691 LINE",
"127 691 LINE",
"99 545 LINE",
"436 545 LINE",
"404 383 LINE",
"67 383 LINE",
"39 236 LINE",
"375 236 LINE",
"329 0 LINE",
"601 0 LINE",
"647 236 LINE",
"985 236 LINE",
"1013 383 LINE",
"675 383 LINE",
"707 545 LINE",
"1045 545 LINE",
"1073 691 LINE",
"797 691 LINE"
);
}
);
width = 1139;
}
);
note = yen;
unicode = 00A5;
},
{
glyphname = mu1;
lastChange = "2019-11-19 22:35:12 +0000";
layers = (
{
layerId = "E64FF656-58E6-4C13-B3CC-343A43FBFB06";
paths = (
{
closed = 1;
nodes = (
"957 -20 OFFCURVE",
"1063 5 QCURVE",
"1079 198 LINE",
"1056 191 OFFCURVE",
"1033 191 QCURVE SMOOTH",
"983 191 OFFCURVE",
"983 260 QCURVE SMOOTH",
"983 280 OFFCURVE",
"992 325 QCURVE SMOOTH",
"1139 1082 LINE",
"858 1082 LINE",
"746 504 LINE SMOOTH",
"720 353 OFFCURVE",
"600 193 OFFCURVE",
"519 193 QCURVE SMOOTH",
"394 193 OFFCURVE",
"394 358 QCURVE SMOOTH",
"396 418 OFFCURVE",
"407 477 QCURVE SMOOTH",
"525 1082 LINE",
"244 1082 LINE",
"-47 -425 LINE",
"233 -425 LINE",
"306 -45 LINE",
"322 70 LINE",
"328 70 LINE",
"343 29 OFFCURVE",
"420 -20 OFFCURVE",
"479 -20 QCURVE SMOOTH",
"560 -20 OFFCURVE",
"666 77 OFFCURVE",
"708 164 QCURVE",
"712 164 LINE",
"710 143 LINE",
"710 122 LINE SMOOTH",
"710 45 OFFCURVE",
"787 -20 OFFCURVE",
"875 -20 QCURVE SMOOTH"
);
}
);
width = 1180;
}
);
note = mu1;
unicode = 00B5;
},
{
glyphname = partialdiff;
lastChange = "2019-11-19 22:35:12 +0000";
layers = (
{
layerId = "E64FF656-58E6-4C13-B3CC-343A43FBFB06";
paths = (
{
closed = 1;
nodes = (
"955 1179 OFFCURVE",
"747 1468 OFFCURVE",
"559 1468 QCURVE SMOOTH",
"444 1468 OFFCURVE",
"347 1411 QCURVE",
"302 1206 LINE",
"339 1234 OFFCURVE",
"458 1274 OFFCURVE",
"511 1274 QCURVE SMOOTH",
"622 1274 OFFCURVE",
"728 1084 OFFCURVE",
"728 911 QCURVE SMOOTH",
"728 863 LINE",
"727 821 LINE",
"723 821 LINE",
"692 897 OFFCURVE",
"570 983 OFFCURVE",
"494 983 QCURVE SMOOTH",
"373 983 OFFCURVE",
"182 832 OFFCURVE",
"63 533 OFFCURVE",
"63 371 QCURVE SMOOTH",
"63 179 OFFCURVE",
"240 -25 OFFCURVE",
"403 -25 QCURVE SMOOTH",
"531 -25 OFFCURVE",
"733 101 OFFCURVE",
"876 347 OFFCURVE",
"955 707 OFFCURVE",
"955 907 QCURVE SMOOTH"
);
},
{
closed = 1;
nodes = (
"673 448 OFFCURVE",
"527 170 OFFCURVE",
"433 170 QCURVE SMOOTH",
"371 170 OFFCURVE",
"300 278 OFFCURVE",
"300 375 QCURVE SMOOTH",
"300 480 OFFCURVE",
"367 696 OFFCURVE",
"475 813 OFFCURVE",
"539 813 QCURVE SMOOTH",
"594 813 OFFCURVE",
"680 720 OFFCURVE",
"695 645 QCURVE"
);
}
);
width = 1012;
}
);
note = partialdiff;
unicode = 2202;
},
{
glyphname = summation;
lastChange = "2019-11-19 22:35:12 +0000";
layers = (
{
layerId = "E64FF656-58E6-4C13-B3CC-343A43FBFB06";
paths = (
{
closed = 1;
nodes = (
"1378 -425 LINE",
"1378 -197 LINE",
"535 -197 LINE",
"1083 545 LINE",
"555 1182 LINE",
"1321 1182 LINE",
"1321 1409 LINE",
"184 1409 LINE",
"184 1257 LINE",
"768 547 LINE",
"164 -265 LINE",
"164 -425 LINE"
);
}
);
width = 1460;
}
);
note = summation;
unicode = 2211;
},
{
glyphname = product;
lastChange = "2019-11-19 22:35:12 +0000";
layers = (
{
layerId = "E64FF656-58E6-4C13-B3CC-343A43FBFB06";
paths = (
{
closed = 1;
nodes = (
"1502 -425 LINE",
"1502 1409 LINE",
"224 1409 LINE",
"224 -425 LINE",
"519 -425 LINE",
"519 1165 LINE",
"1220 1165 LINE",
"1220 -425 LINE"
);
}
);
width = 1686;
}
);
note = product;
unicode = 220F;
},
{
glyphname = integral;
lastChange = "2019-11-19 22:35:12 +0000";
layers = (
{
layerId = "E64FF656-58E6-4C13-B3CC-343A43FBFB06";
paths = (
{
closed = 1;
nodes = (
"215 -425 OFFCURVE",
"426 -226 OFFCURVE",
"426 -44 QCURVE SMOOTH",
"426 1079 LINE SMOOTH",
"426 1173 OFFCURVE",
"506 1274 OFFCURVE",
"583 1274 QCURVE SMOOTH",
"652 1274 OFFCURVE",
"702 1249 QCURVE",
"702 1468 LINE",
"635 1487 OFFCURVE",
"547 1487 QCURVE SMOOTH",
"357 1487 OFFCURVE",
"145 1286 OFFCURVE",
"145 1106 QCURVE SMOOTH",
"145 -15 LINE SMOOTH",
"145 -212 OFFCURVE",
"-10 -212 QCURVE SMOOTH",
"-63 -212 OFFCURVE",
"-129 -187 QCURVE",
"-129 -404 LINE",
"-109 -411 OFFCURVE",
"-17 -425 OFFCURVE",
"26 -425 QCURVE SMOOTH"
);
}
);
width = 561;
}
);
note = integral;
unicode = 222B;
},
{
glyphname = ordfeminine;
lastChange = "2019-11-19 22:35:12 +0000";
layers = (
{
layerId = "E64FF656-58E6-4C13-B3CC-343A43FBFB06";
paths = (
{
closed = 1;
nodes = (
"755 697 OFFCURVE",
"790 709 QCURVE",
"800 811 LINE",
"776 805 OFFCURVE",
"759 805 QCURVE SMOOTH",
"707 805 OFFCURVE",
"707 848 QCURVE",
"712 895 LINE",
"771 1183 OFFCURVE",
"775 1214 OFFCURVE",
"775 1227 QCURVE SMOOTH",
"775 1325 OFFCURVE",
"650 1418 OFFCURVE",
"515 1418 QCURVE SMOOTH",
"377 1418 OFFCURVE",
"229 1315 OFFCURVE",
"209 1227 QCURVE",
"380 1208 LINE",
"392 1253 OFFCURVE",
"452 1299 OFFCURVE",
"512 1299 QCURVE SMOOTH",
"594 1299 OFFCURVE",
"594 1217 QCURVE SMOOTH",
"594 1192 OFFCURVE",
"585 1156 QCURVE SMOOTH",
"580 1130 LINE",
"457 1128 LINE SMOOTH",
"270 1125 OFFCURVE",
"104 1001 OFFCURVE",
"104 884 QCURVE SMOOTH",
"104 797 OFFCURVE",
"215 689 OFFCURVE",
"304 689 QCURVE SMOOTH",
"380 689 OFFCURVE",
"486 749 OFFCURVE",
"542 836 QCURVE",
"545 836 LINE",
"542 795 LINE SMOOTH",
"542 749 OFFCURVE",
"613 697 OFFCURVE",
"679 697 QCURVE SMOOTH"
);
},
{
closed = 1;
nodes = (
"545 969 LINE SMOOTH",
"527 898 OFFCURVE",
"439 816 OFFCURVE",
"387 816 QCURVE SMOOTH",
"349 816 OFFCURVE",
"298 863 OFFCURVE",
"298 914 QCURVE SMOOTH",
"298 968 OFFCURVE",
"386 1025 OFFCURVE",
"463 1027 QCURVE SMOOTH",
"561 1029 LINE"
);
}
);
width = 758;
}
);
note = ordfeminine;
unicode = 00AA;
},
{
glyphname = ordmasculine;
lastChange = "2019-11-19 22:35:12 +0000";
layers = (
{
layerId = "E64FF656-58E6-4C13-B3CC-343A43FBFB06";
paths = (
{
closed = 1;
nodes = (
"828 1271 OFFCURVE",
"668 1418 OFFCURVE",
"515 1418 QCURVE SMOOTH",
"330 1418 OFFCURVE",
"102 1177 OFFCURVE",
"102 980 QCURVE SMOOTH",
"102 846 OFFCURVE",
"267 689 OFFCURVE",
"409 689 QCURVE SMOOTH",
"595 689 OFFCURVE",
"828 939 OFFCURVE",
"828 1142 QCURVE SMOOTH"
);
},
{
closed = 1;
nodes = (
"620 1055 OFFCURVE",
"599 963 OFFCURVE",
"572 900 OFFCURVE",
"531 850 OFFCURVE",
"479 826 OFFCURVE",
"429 826 QCURVE SMOOTH",
"369 826 OFFCURVE",
"306 908 OFFCURVE",
"306 987 QCURVE SMOOTH",
"306 1039 OFFCURVE",
"332 1164 OFFCURVE",
"381 1242 OFFCURVE",
"449 1280 OFFCURVE",
"501 1280 QCURVE SMOOTH",
"562 1280 OFFCURVE",
"625 1201 OFFCURVE",
"625 1128 QCURVE"
);
}
);
width = 748;
}
);
note = ordmasculine;
unicode = 00BA;
},
{
glyphname = Ohm;
lastChange = "2019-11-19 22:35:12 +0000";
layers = (
{
layerId = "E64FF656-58E6-4C13-B3CC-343A43FBFB06";
paths = (
{
closed = 1;
nodes = (
"480 1430 OFFCURVE",
"121 1110 OFFCURVE",
"121 829 QCURVE SMOOTH",
"121 614 OFFCURVE",
"328 313 OFFCURVE",
"537 217 QCURVE",
"427 228 OFFCURVE",
"363 228 QCURVE SMOOTH",
"93 228 LINE",
"93 0 LINE",
"729 0 LINE",
"729 309 LINE",
"573 385 OFFCURVE",
"416 608 OFFCURVE",
"416 774 QCURVE SMOOTH",
"416 977 OFFCURVE",
"616 1198 OFFCURVE",
"796 1198 QCURVE SMOOTH",
"977 1198 OFFCURVE",
"1176 976 OFFCURVE",
"1176 774 QCURVE SMOOTH",
"1176 611 OFFCURVE",
"1025 387 OFFCURVE",
"867 309 QCURVE",
"867 0 LINE",
"1496 0 LINE",
"1496 228 LINE",
"1228 228 LINE SMOOTH",
"1167 228 OFFCURVE",
"1057 217 QCURVE",
"1263 314 OFFCURVE",
"1468 615 OFFCURVE",
"1468 828 QCURVE SMOOTH",
"1468 1108 OFFCURVE",
"1110 1430 OFFCURVE",
"795 1430 QCURVE SMOOTH"
);
}
);
width = 1573;
}
);
note = Ohm;
unicode = 2126;
},
{
glyphname = ae;
lastChange = "2019-11-19 22:35:12 +0000";
layers = (
{
layerId = "E64FF656-58E6-4C13-B3CC-343A43FBFB06";
paths = (
{
closed = 1;
nodes = (
"1727 476 LINE",
"1751 592 OFFCURVE",
"1751 691 QCURVE SMOOTH",
"1751 887 OFFCURVE",
"1524 1102 OFFCURVE",
"1315 1102 QCURVE SMOOTH",
"1113 1102 OFFCURVE",
"973 989 QCURVE",
"880 1102 OFFCURVE",
"673 1102 QCURVE SMOOTH",
"475 1102 OFFCURVE",
"236 952 OFFCURVE",
"202 808 QCURVE",
"465 777 LINE",
"482 846 OFFCURVE",
"574 919 OFFCURVE",
"668 919 QCURVE SMOOTH",
"795 919 OFFCURVE",
"795 791 QCURVE SMOOTH",
"795 755 OFFCURVE",
"774 660 QCURVE",
"583 660 LINE SMOOTH",
"42 660 OFFCURVE",
"42 278 QCURVE SMOOTH",
"42 147 OFFCURVE",
"209 -20 OFFCURVE",
"349 -20 QCURVE SMOOTH",
"468 -20 OFFCURVE",
"615 24 OFFCURVE",
"740 119 OFFCURVE",
"791 199 QCURVE",
"888 -20 OFFCURVE",
"1185 -20 QCURVE SMOOTH",
"1365 -20 OFFCURVE",
"1587 104 OFFCURVE",
"1662 263 QCURVE",
"1417 337 LINE",
"1351 168 OFFCURVE",
"1204 168 QCURVE SMOOTH",
"1113 168 OFFCURVE",
"1020 281 OFFCURVE",
"1020 387 QCURVE SMOOTH",
"1020 438 OFFCURVE",
"1027 476 QCURVE"
);
},
{
closed = 1;
nodes = (
"721 411 LINE SMOOTH",
"694 305 OFFCURVE",
"558 176 OFFCURVE",
"475 176 QCURVE SMOOTH",
"410 176 OFFCURVE",
"341 253 OFFCURVE",
"341 325 QCURVE SMOOTH",
"341 408 OFFCURVE",
"469 500 OFFCURVE",
"582 500 QCURVE SMOOTH",
"743 500 LINE"
);
},
{
closed = 1;
nodes = (
"1060 663 LINE",
"1088 791 OFFCURVE",
"1219 924 OFFCURVE",
"1315 924 QCURVE SMOOTH",
"1395 924 OFFCURVE",
"1494 826 OFFCURVE",
"1494 719 QCURVE",
"1491 663 LINE"
);
}
);
width = 1821;
}
);
note = ae;
unicode = 00E6;
},
{
glyphname = oslash;
lastChange = "2019-11-19 22:35:12 +0000";
layers = (
{
layerId = "E64FF656-58E6-4C13-B3CC-343A43FBFB06";
paths = (
{
closed = 1;
nodes = (
"233 -38 LINE",
"291 29 LINE",
"397 -20 OFFCURVE",
"535 -20 QCURVE SMOOTH",
"723 -20 OFFCURVE",
"1022 154 OFFCURVE",
"1185 476 OFFCURVE",
"1185 683 QCURVE SMOOTH",
"1185 855 OFFCURVE",
"1092 960 QCURVE",
"1226 1116 LINE",
"1037 1116 LINE",
"977 1047 LINE",
"863 1101 OFFCURVE",
"704 1101 QCURVE SMOOTH",
"516 1101 OFFCURVE",
"222 930 OFFCURVE",
"63 620 OFFCURVE",
"63 419 QCURVE SMOOTH",
"63 228 OFFCURVE",
"173 114 QCURVE",
"42 -38 LINE"
);
},
{
closed = 1;
nodes = (
"358 544 OFFCURVE",
"434 789 OFFCURVE",
"569 909 OFFCURVE",
"683 909 QCURVE SMOOTH",
"771 909 OFFCURVE",
"821 865 QCURVE",
"366 338 LINE",
"358 381 OFFCURVE",
"358 431 QCURVE SMOOTH"
);
},
{
closed = 1;
nodes = (
"884 515 OFFCURVE",
"809 285 OFFCURVE",
"678 172 OFFCURVE",
"566 172 QCURVE SMOOTH",
"492 172 OFFCURVE",
"443 206 QCURVE",
"887 722 LINE",
"891 694 OFFCURVE",
"891 662 QCURVE SMOOTH"
);
}
);
width = 1251;
}
);
note = oslash;
unicode = 00F8;
},
{
glyphname = questiondown;
lastChange = "2019-11-19 22:35:12 +0000";
layers = (
{
layerId = "E64FF656-58E6-4C13-B3CC-343A43FBFB06";
paths = (
{
closed = 1;
nodes = (
"934 -348 OFFCURVE",
"1051 34 QCURVE",
"785 74 LINE",
"733 -119 OFFCURVE",
"506 -119 QCURVE SMOOTH",
"405 -119 OFFCURVE",
"309 -36 OFFCURVE",
"309 27 QCURVE SMOOTH",
"309 66 OFFCURVE",
"331 128 OFFCURVE",
"385 189 OFFCURVE",
"476 255 OFFCURVE",
"545 298 QCURVE SMOOTH",
"663 371 OFFCURVE",
"760 464 OFFCURVE",
"822 579 OFFCURVE",
"836 656 QCURVE",
"569 656 LINE",
"564 616 OFFCURVE",
"531 555 OFFCURVE",
"477 502 OFFCURVE",
"394 447 QCURVE",
"237 360 OFFCURVE",
"101 239 OFFCURVE",
"26 97 OFFCURVE",
"26 7 QCURVE SMOOTH",
"26 -160 OFFCURVE",
"276 -348 OFFCURVE",
"490 -348 QCURVE SMOOTH"
);
},
{
closed = 1;
nodes = (
"637 1082 LINE",
"585 812 LINE",
"874 812 LINE",
"926 1082 LINE"
);
}
);
width = 1251;
}
);
note = questiondown;
unicode = 00BF;
},
{
glyphname = exclamdown;
lastChange = "2019-11-19 22:35:12 +0000";
layers = (
{
layerId = "E64FF656-58E6-4C13-B3CC-343A43FBFB06";
paths = (
{
closed = 1;
nodes = (
"535 812 LINE",
"588 1082 LINE",
"300 1082 LINE",
"247 812 LINE"
);
},
{
closed = 1;
nodes = (
"314 -327 LINE",
"472 654 LINE",
"242 654 LINE",
"20 -327 LINE"
);
}
);
width = 682;
}
);
note = exclamdown;
unicode = 00A1;
},
{
glyphname = logicalnot;
lastChange = "2019-11-19 22:35:12 +0000";
layers = (
{
layerId = "E64FF656-58E6-4C13-B3CC-343A43FBFB06";
paths = (
{
closed = 1;
nodes = (
"1102 141 LINE",
"1102 793 LINE",
"75 793 LINE",
"75 569 LINE",
"878 569 LINE",
"878 141 LINE"
);
}
);
width = 1196;
}
);
note = logicalnot;
unicode = 00AC;
},
{
glyphname = radical;
lastChange = "2019-11-19 22:35:12 +0000";
layers = (
{
layerId = "E64FF656-58E6-4C13-B3CC-343A43FBFB06";
paths = (
{
closed = 1;
nodes = (
"1252 1620 LINE",
"1066 1620 LINE",
"654 260 LINE",
"435 895 LINE",
"124 895 LINE",
"124 729 LINE",
"308 729 LINE",
"578 -25 LINE",
"746 -25 LINE"
);
}
);
width = 1124;
}
);
note = radical;
unicode = 221A;
},
{
glyphname = florin;
lastChange = "2019-11-19 22:35:12 +0000";
layers = (
{
layerId = "E64FF656-58E6-4C13-B3CC-343A43FBFB06";
paths = (
{
closed = 1;
nodes = (
"969 892 LINE",
"1006 1082 LINE",
"793 1082 LINE",
"809 1167 LINE SMOOTH",
"822 1232 OFFCURVE",
"882 1296 OFFCURVE",
"949 1296 QCURVE SMOOTH",
"970 1296 OFFCURVE",
"1034 1288 OFFCURVE",
"1045 1286 QCURVE",
"1081 1467 LINE",
"999 1484 OFFCURVE",
"926 1484 QCURVE SMOOTH",
"754 1484 OFFCURVE",
"565 1350 OFFCURVE",
"535 1195 QCURVE SMOOTH",
"513 1082 LINE",
"355 1082 LINE",
"318 892 LINE",
"476 892 LINE",
"218 -425 LINE",
"498 -425 LINE",
"756 892 LINE"
);
}
);
width = 1139;
}
);
note = florin;
unicode = 0192;
},
{
glyphname = approxequal;
lastChange = "2019-11-19 22:35:12 +0000";
layers = (
{
layerId = "E64FF656-58E6-4C13-B3CC-343A43FBFB06";
paths = (
{
closed = 1;
nodes = (
"923 756 OFFCURVE",
"1043 791 OFFCURVE",
"1106 836 QCURVE",
"1106 1055 LINE",
"992 963 OFFCURVE",
"858 963 QCURVE SMOOTH",
"784 963 OFFCURVE",
"646 1009 QCURVE SMOOTH",
"572 1035 OFFCURVE",
"419 1079 OFFCURVE",
"339 1079 QCURVE SMOOTH",
"178 1079 OFFCURVE",
"68 995 QCURVE",
"68 782 LINE",
"138 831 OFFCURVE",
"256 870 OFFCURVE",
"323 870 QCURVE SMOOTH",
"412 870 OFFCURVE",
"544 823 QCURVE SMOOTH",
"619 797 OFFCURVE",
"764 756 OFFCURVE",
"839 756 QCURVE SMOOTH"
);
},
{
closed = 1;
nodes = (
"925 274 OFFCURVE",
"1042 310 OFFCURVE",
"1106 354 QCURVE",
"1106 573 LINE",
"992 481 OFFCURVE",
"858 481 QCURVE SMOOTH",
"830 481 OFFCURVE",
"760 494 OFFCURVE",
"658 526 QCURVE SMOOTH",
"582 552 OFFCURVE",
"422 598 OFFCURVE",
"339 598 QCURVE SMOOTH",
"181 598 OFFCURVE",
"68 514 QCURVE",
"68 301 LINE",
"133 346 OFFCURVE",
"252 389 OFFCURVE",
"323 389 QCURVE SMOOTH",
"415 389 OFFCURVE",
"544 344 QCURVE",
"718 274 OFFCURVE",
"839 274 QCURVE SMOOTH"
);
}
);
width = 1124;
}
);
note = approxequal;
unicode = 2248;
},
{
glyphname = uni2206;
lastChange = "2019-11-19 22:35:12 +0000";
layers = (
{
layerId = "E64FF656-58E6-4C13-B3CC-343A43FBFB06";
paths = (
{
closed = 1;
nodes = (
"1209 0 LINE",
"1209 215 LINE",
"808 1409 LINE",
"440 1409 LINE",
"43 215 LINE",
"43 0 LINE"
);
},
{
closed = 1;
nodes = (
"627 1193 OFFCURVE",
"916 231 QCURVE",
"336 231 LINE",
"543 920 LINE",
"615 1174 LINE",
"624 1208 LINE"
);
}
);
width = 1253;
}
);
note = uni2206;
unicode = 2206;
},
{
glyphname = guillemotleft;
lastChange = "2019-11-19 22:35:12 +0000";
layers = (
{
layerId = "E64FF656-58E6-4C13-B3CC-343A43FBFB06";
paths = (
{
closed = 1;
nodes = (
"954 139 LINE",
"959 178 LINE",
"771 531 LINE",
"1100 897 LINE",
"1106 938 LINE",
"867 938 LINE",
"544 571 LINE",
"530 500 LINE",
"722 139 LINE"
);
},
{
closed = 1;
nodes = (
"496 139 LINE",
"501 178 LINE",
"313 531 LINE",
"642 897 LINE",
"648 938 LINE",
"409 938 LINE",
"86 571 LINE",
"72 500 LINE",
"264 139 LINE"
);
}
);
width = 1139;
}
);
note = guillemotleft;
unicode = 00AB;
},
{
glyphname = guillemotright;
lastChange = "2019-11-19 22:35:12 +0000";
layers = (
{
layerId = "E64FF656-58E6-4C13-B3CC-343A43FBFB06";
paths = (
{
closed = 1;
nodes = (
"190 938 LINE",
"185 899 LINE",
"373 546 LINE",
"44 180 LINE",
"38 139 LINE",
"277 139 LINE",
"600 506 LINE",
"614 577 LINE",
"422 938 LINE"
);
},
{
closed = 1;
nodes = (
"648 938 LINE",
"643 899 LINE",
"831 546 LINE",
"502 180 LINE",
"496 139 LINE",
"735 139 LINE",
"1058 506 LINE",
"1072 577 LINE",
"880 938 LINE"
);
}
);
width = 1139;
}
);
note = guillemotright;
unicode = 00BB;
},
{
glyphname = ellipsis;
lastChange = "2019-11-19 22:35:12 +0000";
layers = (
{
layerId = "E64FF656-58E6-4C13-B3CC-343A43FBFB06";
paths = (
{
closed = 1;
nodes = (
"422 0 LINE",
"481 305 LINE",
"192 305 LINE",
"133 0 LINE"
);
},
{
closed = 1;
nodes = (
"1076 0 LINE",
"1135 305 LINE",
"846 305 LINE",
"787 0 LINE"
);
},
{
closed = 1;
nodes = (
"1726 0 LINE",
"1785 305 LINE",
"1496 305 LINE",
"1437 0 LINE"
);
}
);
width = 2048;
}
);
note = ellipsis;
unicode = 2026;
},
{
glyphname = OE;
lastChange = "2019-11-19 22:35:12 +0000";
layers = (
{
layerId = "E64FF656-58E6-4C13-B3CC-343A43FBFB06";
paths = (
{
closed = 1;
nodes = (
"1866 0 LINE",
"1911 231 LINE",
"1203 231 LINE",
"1276 606 LINE",
"1882 606 LINE",
"1925 827 LINE",
"1319 827 LINE",
"1388 1182 LINE",
"2055 1182 LINE",
"2099 1409 LINE",
"1150 1409 LINE",
"1087 1415 LINE SMOOTH",
"1028 1420 OFFCURVE",
"949 1420 QCURVE SMOOTH",
"765 1420 OFFCURVE",
"449 1295 OFFCURVE",
"220 1058 OFFCURVE",
"103 743 OFFCURVE",
"103 573 QCURVE SMOOTH",
"103 295 OFFCURVE",
"420 -10 OFFCURVE",
"706 -10 QCURVE SMOOTH",
"854 -10 OFFCURVE",
"917 0 QCURVE"
);
},
{
closed = 1;
nodes = (
"575 222 OFFCURVE",
"403 399 OFFCURVE",
"403 563 QCURVE SMOOTH",
"403 690 OFFCURVE",
"477 935 OFFCURVE",
"617 1105 OFFCURVE",
"812 1188 OFFCURVE",
"939 1188 QCURVE SMOOTH",
"960 1188 OFFCURVE",
"1058 1179 OFFCURVE",
"1089 1169 QCURVE",
"909 242 LINE",
"838 222 OFFCURVE",
"736 222 QCURVE SMOOTH"
);
}
);
width = 2048;
}
);
note = OE;
unicode = 0152;
},
{
glyphname = oe;
lastChange = "2019-11-19 22:35:12 +0000";
layers = (
{
layerId = "E64FF656-58E6-4C13-B3CC-343A43FBFB06";
paths = (
{
closed = 1;
nodes = (
"1863 476 LINE",
"1887 592 OFFCURVE",
"1887 691 QCURVE SMOOTH",
"1887 887 OFFCURVE",
"1660 1102 OFFCURVE",
"1451 1102 QCURVE SMOOTH",
"1220 1102 OFFCURVE",
"1068 960 QCURVE",
"998 1034 OFFCURVE",
"824 1101 OFFCURVE",
"699 1101 QCURVE SMOOTH",
"511 1101 OFFCURVE",
"217 930 OFFCURVE",
"58 620 OFFCURVE",
"58 419 QCURVE SMOOTH",
"58 215 OFFCURVE",
"312 -20 OFFCURVE",
"530 -20 QCURVE SMOOTH",
"668 -20 OFFCURVE",
"887 57 OFFCURVE",
"955 132 QCURVE",
"1074 -20 OFFCURVE",
"1321 -20 QCURVE SMOOTH",
"1501 -20 OFFCURVE",
"1723 104 OFFCURVE",
"1798 263 QCURVE",
"1553 337 LINE",
"1487 168 OFFCURVE",
"1340 168 QCURVE SMOOTH",
"1249 168 OFFCURVE",
"1156 281 OFFCURVE",
"1156 387 QCURVE SMOOTH",
"1156 438 OFFCURVE",
"1163 476 QCURVE"
);
},
{
closed = 1;
nodes = (
"880 523 OFFCURVE",
"806 289 OFFCURVE",
"676 172 OFFCURVE",
"562 172 QCURVE SMOOTH",
"457 172 OFFCURVE",
"353 307 OFFCURVE",
"353 431 QCURVE SMOOTH",
"353 544 OFFCURVE",
"429 789 OFFCURVE",
"564 909 OFFCURVE",
"678 909 QCURVE SMOOTH",
"886 909 OFFCURVE",
"886 662 QCURVE"
);
},
{
closed = 1;
nodes = (
"1196 663 LINE",
"1224 791 OFFCURVE",
"1355 924 OFFCURVE",
"1451 924 QCURVE SMOOTH",
"1531 924 OFFCURVE",
"1630 826 OFFCURVE",
"1630 719 QCURVE",
"1627 663 LINE"
);
}
);
width = 1933;
}
);
note = oe;
unicode = 0153;
},
{
glyphname = endash;
lastChange = "2019-11-19 22:35:12 +0000";
layers = (
{
layerId = "E64FF656-58E6-4C13-B3CC-343A43FBFB06";
paths = (
{
closed = 1;
nodes = (
"1058 448 LINE",
"1090 651 LINE",
"76 651 LINE",
"44 448 LINE"
);
}
);
width = 1139;
}
);
note = endash;
unicode = 2013;
},
{
glyphname = emdash;
lastChange = "2019-11-19 22:35:12 +0000";
layers = (
{
layerId = "E64FF656-58E6-4C13-B3CC-343A43FBFB06";
paths = (
{
closed = 1;
nodes = (
"2028 448 LINE",
"2067 651 LINE",
"19 651 LINE",
"-19 448 LINE"
);
}
);
width = 2048;
}
);
note = emdash;
unicode = 2014;
},
{
glyphname = quotedblleft;
lastChange = "2019-11-19 22:35:12 +0000";
layers = (
{
layerId = "E64FF656-58E6-4C13-B3CC-343A43FBFB06";
paths = (
{
closed = 1;
nodes = (
"906 831 LINE",
"957 1092 LINE",
"830 1092 LINE",
"845 1166 OFFCURVE",
"947 1333 OFFCURVE",
"1023 1409 QCURVE",
"841 1409 LINE",
"765 1328 OFFCURVE",
"678 1143 OFFCURVE",
"655 1026 QCURVE SMOOTH",
"617 831 LINE"
);
},
{
closed = 1;
nodes = (
"476 831 LINE",
"527 1092 LINE",
"400 1092 LINE",
"415 1166 OFFCURVE",
"517 1333 OFFCURVE",
"593 1409 QCURVE",
"410 1409 LINE",
"339 1332 OFFCURVE",
"251 1149 OFFCURVE",
"227 1026 QCURVE SMOOTH",
"189 831 LINE"
);
}
);
width = 1024;
}
);
note = quotedblleft;
unicode = 201C;
},
{
glyphname = quotedblright;
lastChange = "2019-11-19 22:35:12 +0000";
layers = (
{
layerId = "E64FF656-58E6-4C13-B3CC-343A43FBFB06";
paths = (
{
closed = 1;
nodes = (
"872 909 OFFCURVE",
"961 1091 OFFCURVE",
"985 1217 QCURVE SMOOTH",
"1023 1409 LINE",
"736 1409 LINE",
"685 1149 LINE",
"812 1149 LINE",
"781 995 OFFCURVE",
"617 831 QCURVE",
"801 831 LINE"
);
},
{
closed = 1;
nodes = (
"448 915 OFFCURVE",
"532 1096 OFFCURVE",
"555 1217 QCURVE SMOOTH",
"593 1409 LINE",
"306 1409 LINE",
"255 1149 LINE",
"382 1149 LINE",
"352 999 OFFCURVE",
"189 831 QCURVE",
"371 831 LINE"
);
}
);
width = 1024;
}
);
note = quotedblright;
unicode = 201D;
},
{
glyphname = quoteleft;
lastChange = "2019-11-19 22:35:12 +0000";
layers = (
{
layerId = "E64FF656-58E6-4C13-B3CC-343A43FBFB06";
paths = (
{
closed = 1;
nodes = (
"476 831 LINE",
"527 1092 LINE",
"400 1092 LINE",
"415 1166 OFFCURVE",
"517 1333 OFFCURVE",
"593 1409 QCURVE",
"410 1409 LINE",
"339 1332 OFFCURVE",
"251 1149 OFFCURVE",
"227 1026 QCURVE SMOOTH",
"189 831 LINE"
);
}
);
width = 569;
}
);
note = quoteleft;
unicode = 2018;
},
{
glyphname = quoteright;
lastChange = "2019-11-19 22:35:12 +0000";
layers = (
{
layerId = "E64FF656-58E6-4C13-B3CC-343A43FBFB06";
paths = (
{
closed = 1;
nodes = (
"447 915 OFFCURVE",
"532 1097 OFFCURVE",
"555 1214 QCURVE SMOOTH",
"593 1409 LINE",
"306 1409 LINE",
"255 1149 LINE",
"382 1149 LINE",
"352 999 OFFCURVE",
"189 831 QCURVE",
"371 831 LINE"
);
}
);
width = 569;
}
);
note = quoteright;
unicode = 2019;
},
{
glyphname = divide;
lastChange = "2019-11-19 22:35:12 +0000";
layers = (
{
layerId = "E64FF656-58E6-4C13-B3CC-343A43FBFB06";
paths = (
{
closed = 1;
nodes = (
"700 961 LINE",
"700 1194 LINE",
"462 1194 LINE",
"462 961 LINE"
);
},
{
closed = 1;
nodes = (
"1096 569 LINE",
"1096 793 LINE",
"69 793 LINE",
"69 569 LINE"
);
},
{
closed = 1;
nodes = (
"700 170 LINE",
"700 403 LINE",
"462 403 LINE",
"462 170 LINE"
);
}
);
width = 1124;
}
);
note = divide;
unicode = 00F7;
},
{
glyphname = lozenge;
lastChange = "2019-11-19 22:35:12 +0000";
layers = (
{
layerId = "E64FF656-58E6-4C13-B3CC-343A43FBFB06";
paths = (
{
closed = 1;
nodes = (
"1052 723 LINE",
"598 1446 LINE",
"494 1446 LINE",
"43 721 LINE",
"494 0 LINE",
"598 0 LINE"
);
},
{
closed = 1;
nodes = (
"836 723 LINE",
"547 229 LINE",
"258 723 LINE",
"547 1204 LINE"
);
}
);
width = 1012;
}
);
note = lozenge;
unicode = 25CA;
},
{
glyphname = fraction;
lastChange = "2019-11-19 22:35:12 +0000";
layers = (
{
layerId = "E64FF656-58E6-4C13-B3CC-343A43FBFB06";
paths = (
{
closed = 1;
nodes = (
"857 1409 LINE",
"658 1409 LINE",
"-428 0 LINE",
"-231 0 LINE"
);
}
);
width = 342;
}
);
note = fraction;
unicode = "2044,2215";
},
{
glyphname = Euro;
lastChange = "2019-11-19 22:35:12 +0000";
layers = (
{
layerId = "E64FF656-58E6-4C13-B3CC-343A43FBFB06";
paths = (
{
closed = 1;
nodes = (
"878 1210 OFFCURVE",
"945 1148 OFFCURVE",
"956 1083 QCURVE",
"1213 1130 LINE",
"1193 1430 OFFCURVE",
"848 1430 QCURVE SMOOTH",
"614 1430 OFFCURVE",
"319 1176 OFFCURVE",
"245 915 QCURVE",
"111 915 LINE",
"79 766 LINE",
"205 766 LINE",
"195 727 OFFCURVE",
"186 659 QCURVE",
"59 659 LINE",
"28 510 LINE",
"169 510 LINE",
"169 250 OFFCURVE",
"393 -18 OFFCURVE",
"619 -18 QCURVE SMOOTH",
"783 -18 OFFCURVE",
"1003 135 OFFCURVE",
"1054 287 QCURVE",
"811 327 LINE",
"754 199 OFFCURVE",
"619 199 QCURVE SMOOTH",
"543 199 OFFCURVE",
"455 316 OFFCURVE",
"455 441 QCURVE SMOOTH",
"458 510 LINE",
"762 510 LINE",
"791 659 LINE",
"481 659 LINE",
"486 713 OFFCURVE",
"500 766 QCURVE",
"801 766 LINE",
"830 915 LINE",
"534 915 LINE",
"570 1062 OFFCURVE",
"696 1210 OFFCURVE",
"803 1210 QCURVE SMOOTH"
);
}
);
width = 1139;
}
);
note = Euro;
unicode = 20AC;
},
{
glyphname = guilsinglleft;
lastChange = "2019-11-19 22:35:12 +0000";
layers = (
{
layerId = "E64FF656-58E6-4C13-B3CC-343A43FBFB06";
paths = (
{
closed = 1;
nodes = (
"497 139 LINE",
"502 178 LINE",
"314 531 LINE",
"643 897 LINE",
"649 938 LINE",
"410 938 LINE",
"87 571 LINE",
"73 500 LINE",
"265 139 LINE"
);
}
);
width = 682;
}
);
note = guilsinglleft;
unicode = 2039;
},
{
glyphname = guilsinglright;
lastChange = "2019-11-19 22:35:12 +0000";
layers = (
{
layerId = "E64FF656-58E6-4C13-B3CC-343A43FBFB06";
paths = (
{
closed = 1;
nodes = (
"185 938 LINE",
"180 899 LINE",
"368 546 LINE",
"39 180 LINE",
"33 139 LINE",
"272 139 LINE",
"595 506 LINE",
"609 577 LINE",
"417 938 LINE"
);
}
);
width = 682;
}
);
note = guilsinglright;
unicode = 203A;
},
{
glyphname = daggerdbl;
lastChange = "2019-11-19 22:35:12 +0000";
layers = (
{
layerId = "E64FF656-58E6-4C13-B3CC-343A43FBFB06";
paths = (
{
closed = 1;
nodes = (
"511 670 LINE",
"425 363 LINE",
"90 390 LINE",
"50 186 LINE",
"397 215 LINE",
"311 -141 LINE",
"526 -141 LINE",
"580 215 LINE",
"934 186 LINE",
"974 390 LINE",
"608 363 LINE",
"642 670 LINE",
"728 980 LINE",
"1084 953 LINE",
"1124 1157 LINE",
"757 1128 LINE",
"842 1484 LINE",
"627 1484 LINE",
"574 1128 LINE",
"240 1157 LINE",
"200 953 LINE",
"545 980 LINE"
);
}
);
width = 1139;
}
);
note = daggerdbl;
unicode = 2021;
},
{
glyphname = periodcentered;
lastChange = "2019-11-19 22:35:12 +0000";
layers = (
{
layerId = "E64FF656-58E6-4C13-B3CC-343A43FBFB06";
paths = (
{
closed = 1;
nodes = (
"414 531 LINE",
"473 836 LINE",
"185 836 LINE",
"126 531 LINE"
);
}
);
width = 569;
}
);
note = periodcentered;
unicode = 2219;
},
{
glyphname = quotesinglbase;
lastChange = "2019-11-19 22:35:12 +0000";
layers = (
{
layerId = "E64FF656-58E6-4C13-B3CC-343A43FBFB06";
paths = (
{
closed = 1;
nodes = (
"240 -237 OFFCURVE",
"326 -54 OFFCURVE",
"349 66 QCURVE SMOOTH",
"387 260 LINE",
"99 260 LINE",
"48 0 LINE",
"177 0 LINE",
"164 -70 OFFCURVE",
"61 -238 OFFCURVE",
"-18 -317 QCURVE",
"167 -317 LINE"
);
}
);
width = 569;
}
);
note = quotesinglbase;
unicode = 201A;
},
{
glyphname = quotedblbase;
lastChange = "2019-11-19 22:35:12 +0000";
layers = (
{
layerId = "E64FF656-58E6-4C13-B3CC-343A43FBFB06";
paths = (
{
closed = 1;
nodes = (
"677 -236 OFFCURVE",
"762 -54 OFFCURVE",
"785 66 QCURVE SMOOTH",
"823 260 LINE",
"536 260 LINE",
"485 0 LINE",
"612 0 LINE",
"601 -66 OFFCURVE",
"499 -236 OFFCURVE",
"418 -317 QCURVE",
"602 -317 LINE"
);
},
{
closed = 1;
nodes = (
"246 -239 OFFCURVE",
"332 -53 OFFCURVE",
"355 66 QCURVE SMOOTH",
"393 260 LINE",
"106 260 LINE",
"55 0 LINE",
"182 0 LINE",
"170 -69 OFFCURVE",
"68 -239 OFFCURVE",
"-10 -317 QCURVE",
"172 -317 LINE"
);
}
);
width = 1024;
}
);
note = quotedblbase;
unicode = 201E;
},
{
glyphname = perthousand;
lastChange = "2019-11-19 22:35:12 +0000";
layers = (
{
layerId = "E64FF656-58E6-4C13-B3CC-343A43FBFB06";
paths = (
{
closed = 1;
nodes = (
"210 1419 OFFCURVE",
"142 1094 QCURVE",
"123 1024 OFFCURVE",
"123 953 QCURVE SMOOTH",
"123 833 OFFCURVE",
"246 700 OFFCURVE",
"359 700 QCURVE SMOOTH",
"488 700 OFFCURVE",
"665 876 OFFCURVE",
"697 1030 QCURVE",
"718 1103 OFFCURVE",
"718 1172 QCURVE SMOOTH",
"718 1293 OFFCURVE",
"590 1419 OFFCURVE",
"471 1419 QCURVE SMOOTH"
);
},
{
closed = 1;
nodes = (
"546 1298 OFFCURVE",
"546 1187 QCURVE SMOOTH",
"546 1125 OFFCURVE",
"524 1038 QCURVE",
"504 935 OFFCURVE",
"427 829 OFFCURVE",
"363 829 QCURVE SMOOTH",
"294 829 OFFCURVE",
"294 942 QCURVE SMOOTH",
"294 1011 OFFCURVE",
"336 1203 OFFCURVE",
"409 1298 OFFCURVE",
"470 1298 QCURVE SMOOTH"
);
},
{
closed = 1;
nodes = (
"805 712 OFFCURVE",
"737 387 QCURVE",
"718 317 OFFCURVE",
"718 246 QCURVE SMOOTH",
"718 126 OFFCURVE",
"841 -7 OFFCURVE",
"954 -7 QCURVE SMOOTH",
"1083 -7 OFFCURVE",
"1260 169 OFFCURVE",
"1292 323 QCURVE",
"1313 396 OFFCURVE",
"1313 465 QCURVE SMOOTH",
"1313 586 OFFCURVE",
"1185 712 OFFCURVE",
"1066 712 QCURVE SMOOTH"
);
},
{
closed = 1;
nodes = (
"1141 591 OFFCURVE",
"1141 480 QCURVE SMOOTH",
"1141 418 OFFCURVE",
"1119 331 QCURVE",
"1099 228 OFFCURVE",
"1022 122 OFFCURVE",
"958 122 QCURVE SMOOTH",
"889 122 OFFCURVE",
"889 235 QCURVE SMOOTH",
"889 304 OFFCURVE",
"931 496 OFFCURVE",
"1004 591 OFFCURVE",
"1065 591 QCURVE SMOOTH"
);
},
{
closed = 1;
nodes = (
"1469 712 OFFCURVE",
"1401 387 QCURVE",
"1382 317 OFFCURVE",
"1382 246 QCURVE SMOOTH",
"1382 126 OFFCURVE",
"1505 -7 OFFCURVE",
"1618 -7 QCURVE SMOOTH",
"1747 -7 OFFCURVE",
"1924 169 OFFCURVE",
"1956 323 QCURVE",
"1977 396 OFFCURVE",
"1977 465 QCURVE SMOOTH",
"1977 586 OFFCURVE",
"1849 712 OFFCURVE",
"1730 712 QCURVE SMOOTH"
);
},
{
closed = 1;
nodes = (
"1805 591 OFFCURVE",
"1805 480 QCURVE SMOOTH",
"1805 418 OFFCURVE",
"1783 331 QCURVE",
"1763 228 OFFCURVE",
"1686 122 OFFCURVE",
"1622 122 QCURVE SMOOTH",
"1553 122 OFFCURVE",
"1553 235 QCURVE SMOOTH",
"1553 304 OFFCURVE",
"1595 496 OFFCURVE",
"1668 591 OFFCURVE",
"1729 591 QCURVE SMOOTH"
);
},
{
closed = 1;
nodes = (
"1357 1409 LINE",
"1158 1409 LINE",
"72 0 LINE",
"269 0 LINE"
);
}
);
width = 2048;
}
);
note = perthousand;
unicode = 2030;
},
{
glyphname = dotlessi;
lastChange = "2019-11-19 22:35:12 +0000";
layers = (
{
layerId = "E64FF656-58E6-4C13-B3CC-343A43FBFB06";
paths = (
{
closed = 1;
nodes = (
"315 0 LINE",
"526 1082 LINE",
"245 1082 LINE",
"35 0 LINE"
);
}
);
width = 569;
}
);
note = dotlessi;
unicode = 0131;
},
{
glyphname = circumflex;
lastChange = "2019-11-19 22:35:12 +0000";
layers = (
{
layerId = "E64FF656-58E6-4C13-B3CC-343A43FBFB06";
paths = (
{
closed = 1;
nodes = (
"630 1529 LINE",
"401 1529 LINE",
"81 1211 LINE",
"76 1183 LINE",
"245 1183 LINE",
"493 1375 LINE",
"497 1375 LINE",
"663 1183 LINE",
"813 1183 LINE",
"818 1211 LINE"
);
}
);
width = 682;
}
);
note = circumflex;
unicode = 02C6;
},
{
glyphname = tilde;
lastChange = "2019-11-19 22:35:12 +0000";
layers = (
{
layerId = "E64FF656-58E6-4C13-B3CC-343A43FBFB06";
paths = (
{
closed = 1;
nodes = (
"726 1183 OFFCURVE",
"865 1318 OFFCURVE",
"904 1476 QCURVE",
"769 1476 LINE",
"745 1409 OFFCURVE",
"689 1353 OFFCURVE",
"646 1353 QCURVE SMOOTH",
"617 1353 OFFCURVE",
"551 1391 OFFCURVE",
"477 1438 OFFCURVE",
"394 1476 OFFCURVE",
"349 1476 QCURVE SMOOTH",
"246 1476 OFFCURVE",
"107 1341 OFFCURVE",
"68 1183 QCURVE",
"204 1183 LINE",
"229 1255 OFFCURVE",
"284 1306 OFFCURVE",
"326 1306 QCURVE SMOOTH",
"356 1306 OFFCURVE",
"424 1268 OFFCURVE",
"499 1221 OFFCURVE",
"580 1183 OFFCURVE",
"624 1183 QCURVE SMOOTH"
);
}
);
width = 682;
}
);
note = tilde;
unicode = 02DC;
},
{
glyphname = macron;
lastChange = "2019-11-19 22:35:12 +0000";
layers = (
{
layerId = "E64FF656-58E6-4C13-B3CC-343A43FBFB06";
paths = (
{
closed = 1;
nodes = (
"790 1371 LINE",
"200 1371 LINE",
"167 1203 LINE",
"753 1203 LINE"
);
}
);
width = 682;
}
);
note = macron;
unicode = 02C9;
},
{
glyphname = breve;
lastChange = "2019-11-19 22:35:12 +0000";
layers = (
{
layerId = "E64FF656-58E6-4C13-B3CC-343A43FBFB06";
paths = (
{
closed = 1;
nodes = (
"630 1183 OFFCURVE",
"824 1342 OFFCURVE",
"867 1506 QCURVE",
"703 1506 LINE",
"679 1427 OFFCURVE",
"564 1340 OFFCURVE",
"486 1340 QCURVE SMOOTH",
"413 1340 OFFCURVE",
"322 1432 OFFCURVE",
"322 1506 QCURVE",
"159 1506 LINE",
"157 1468 LINE SMOOTH",
"157 1340 OFFCURVE",
"330 1183 OFFCURVE",
"470 1183 QCURVE SMOOTH"
);
}
);
width = 682;
}
);
note = breve;
unicode = 02D8;
},
{
glyphname = dotaccent;
lastChange = "2019-11-19 22:35:12 +0000";
layers = (
{
layerId = "E64FF656-58E6-4C13-B3CC-343A43FBFB06";
paths = (
{
closed = 1;
nodes = (
"611 1277 LINE",
"652 1484 LINE",
"371 1484 LINE",
"330 1277 LINE"
);
}
);
width = 682;
}
);
note = dotaccent;
unicode = 02D9;
},
{
glyphname = ring;
lastChange = "2019-11-19 22:35:12 +0000";
layers = (
{
layerId = "E64FF656-58E6-4C13-B3CC-343A43FBFB06";
paths = (
{
closed = 1;
nodes = (
"735 1495 OFFCURVE",
"586 1644 OFFCURVE",
"481 1644 QCURVE SMOOTH",
"376 1644 OFFCURVE",
"227 1495 OFFCURVE",
"227 1390 QCURVE SMOOTH",
"227 1285 OFFCURVE",
"374 1136 OFFCURVE",
"481 1136 QCURVE SMOOTH",
"588 1136 OFFCURVE",
"735 1285 OFFCURVE",
"735 1390 QCURVE SMOOTH"
);
},
{
closed = 1;
nodes = (
"608 1336 OFFCURVE",
"534 1262 OFFCURVE",
"481 1262 QCURVE SMOOTH",
"430 1262 OFFCURVE",
"356 1334 OFFCURVE",
"356 1390 QCURVE SMOOTH",
"356 1443 OFFCURVE",
"430 1515 OFFCURVE",
"481 1515 QCURVE SMOOTH",
"535 1515 OFFCURVE",
"608 1441 OFFCURVE",
"608 1390 QCURVE SMOOTH"
);
}
);
width = 682;
}
);
note = ring;
unicode = 02DA;
},
{
glyphname = cedilla;
lastChange = "2019-11-19 22:35:12 +0000";
layers = (
{
layerId = "E64FF656-58E6-4C13-B3CC-343A43FBFB06";
paths = (
{
closed = 1;
nodes = (
"371 -425 OFFCURVE",
"539 -312 OFFCURVE",
"539 -215 QCURVE SMOOTH",
"539 -149 OFFCURVE",
"452 -84 OFFCURVE",
"382 -83 QCURVE",
"430 0 LINE",
"289 0 LINE",
"191 -171 LINE",
"219 -169 LINE",
"244 -169 LINE SMOOTH",
"354 -169 OFFCURVE",
"354 -232 QCURVE SMOOTH",
"354 -274 OFFCURVE",
"280 -309 OFFCURVE",
"199 -309 QCURVE SMOOTH",
"159 -309 OFFCURVE",
"117 -302 QCURVE",
"88 -419 LINE",
"144 -425 OFFCURVE",
"194 -425 QCURVE SMOOTH"
);
}
);
width = 682;
}
);
note = cedilla;
unicode = 00B8;
},
{
glyphname = hungarumlaut;
lastChange = "2019-11-19 22:35:12 +0000";
layers = (
{
layerId = "E64FF656-58E6-4C13-B3CC-343A43FBFB06";
paths = (
{
closed = 1;
nodes = (
"204 1183 LINE",
"576 1459 LINE",
"586 1502 LINE",
"325 1502 LINE",
"68 1214 LINE",
"58 1183 LINE"
);
},
{
closed = 1;
nodes = (
"609 1183 LINE",
"981 1459 LINE",
"991 1502 LINE",
"730 1502 LINE",
"473 1214 LINE",
"463 1183 LINE"
);
}
);
width = 682;
}
);
note = hungarumlaut;
unicode = 02DD;
},
{
glyphname = ogonek;
lastChange = "2019-11-19 22:35:12 +0000";
layers = (
{
layerId = "E64FF656-58E6-4C13-B3CC-343A43FBFB06";
paths = (
{
closed = 1;
nodes = (
"387 -425 OFFCURVE",
"466 -391 QCURVE",
"485 -264 LINE",
"432 -287 OFFCURVE",
"383 -287 QCURVE SMOOTH",
"348 -287 OFFCURVE",
"304 -249 OFFCURVE",
"304 -211 QCURVE SMOOTH",
"304 -156 OFFCURVE",
"389 -28 OFFCURVE",
"450 10 QCURVE",
"286 10 LINE",
"197 -40 OFFCURVE",
"106 -173 OFFCURVE",
"106 -246 QCURVE SMOOTH",
"106 -329 OFFCURVE",
"216 -425 OFFCURVE",
"306 -425 QCURVE SMOOTH"
);
}
);
width = 682;
}
);
note = ogonek;
unicode = 02DB;
},
{
glyphname = caron;
lastChange = "2019-11-19 22:35:12 +0000";
layers = (
{
layerId = "E64FF656-58E6-4C13-B3CC-343A43FBFB06";
paths = (
{
closed = 1;
nodes = (
"884 1500 LINE",
"890 1529 LINE",
"721 1529 LINE",
"481 1336 LINE",
"477 1336 LINE",
"303 1529 LINE",
"153 1529 LINE",
"147 1500 LINE",
"344 1183 LINE",
"573 1183 LINE"
);
}
);
width = 682;
}
);
note = caron;
unicode = 02C7;
},
{
glyphname = Lslash;
lastChange = "2019-11-19 22:35:12 +0000";
layers = (
{
layerId = "E64FF656-58E6-4C13-B3CC-343A43FBFB06";
paths = (
{
closed = 1;
nodes = (
"1086 0 LINE",
"1131 228 LINE",
"375 228 LINE",
"452 625 LINE",
"788 774 LINE",
"831 997 LINE",
"495 848 LINE",
"604 1409 LINE",
"309 1409 LINE",
"173 708 LINE",
"25 643 LINE",
"-19 418 LINE",
"129 482 LINE",
"36 0 LINE"
);
}
);
width = 1251;
}
);
note = Lslash;
unicode = 0141;
},
{
glyphname = lslash;
lastChange = "2019-11-19 22:35:12 +0000";
layers = (
{
layerId = "E64FF656-58E6-4C13-B3CC-343A43FBFB06";
paths = (
{
closed = 1;
nodes = (
"455 717 LINE",
"598 793 LINE",
"640 1006 LINE",
"496 932 LINE",
"604 1484 LINE",
"323 1484 LINE",
"185 776 LINE",
"47 707 LINE",
"6 492 LINE",
"143 561 LINE",
"35 0 LINE",
"315 0 LINE"
);
}
);
width = 569;
}
);
note = lslash;
unicode = 0142;
},
{
glyphname = brokenbar;
lastChange = "2019-11-19 22:35:12 +0000";
layers = (
{
layerId = "E64FF656-58E6-4C13-B3CC-343A43FBFB06";
paths = (
{
closed = 1;
nodes = (
"454 736 LINE",
"454 1484 LINE",
"192 1484 LINE",
"192 736 LINE"
);
},
{
closed = 1;
nodes = (
"454 -425 LINE",
"454 324 LINE",
"192 324 LINE",
"192 -425 LINE"
);
}
);
width = 573;
}
);
note = brokenbar;
unicode = 00A6;
},
{
glyphname = Eth;
lastChange = "2019-11-19 22:35:12 +0000";
layers = (
{
layerId = "E64FF656-58E6-4C13-B3CC-343A43FBFB06";
paths = (
{
closed = 1;
nodes = (
"310 1409 LINE",
"194 813 LINE",
"65 813 LINE",
"23 594 LINE",
"151 594 LINE",
"36 0 LINE",
"614 0 LINE SMOOTH",
"847 0 OFFCURVE",
"1223 209 OFFCURVE",
"1421 571 OFFCURVE",
"1421 807 QCURVE SMOOTH",
"1421 1099 OFFCURVE",
"1067 1409 OFFCURVE",
"734 1409 QCURVE SMOOTH"
);
},
{
closed = 1;
nodes = (
"560 1181 LINE",
"736 1181 LINE SMOOTH",
"934 1181 OFFCURVE",
"1145 983 OFFCURVE",
"1145 794 QCURVE SMOOTH",
"1145 623 OFFCURVE",
"1012 365 OFFCURVE",
"765 228 OFFCURVE",
"605 228 QCURVE SMOOTH",
"375 228 LINE",
"446 594 LINE",
"801 594 LINE",
"845 813 LINE",
"488 813 LINE"
);
}
);
width = 1479;
}
);
note = Eth;
unicode = 00D0;
},
{
glyphname = eth;
lastChange = "2019-11-19 22:35:12 +0000";
layers = (
{
layerId = "E64FF656-58E6-4C13-B3CC-343A43FBFB06";
paths = (
{
closed = 1;
nodes = (
"512 1248 LINE",
"479 1069 LINE",
"756 1180 LINE",
"849 1056 OFFCURVE",
"881 916 QCURVE",
"844 942 OFFCURVE",
"710 979 OFFCURVE",
"649 979 QCURVE SMOOTH",
"376 979 OFFCURVE",
"58 668 OFFCURVE",
"58 410 QCURVE SMOOTH",
"58 211 OFFCURVE",
"308 -20 OFFCURVE",
"527 -20 QCURVE SMOOTH",
"830 -20 OFFCURVE",
"1172 374 OFFCURVE",
"1172 728 QCURVE SMOOTH",
"1172 889 OFFCURVE",
"1086 1146 OFFCURVE",
"991 1269 QCURVE",
"1136 1323 LINE",
"1168 1499 LINE",
"873 1390 LINE",
"804 1446 OFFCURVE",
"732 1484 QCURVE",
"439 1484 LINE",
"537 1426 OFFCURVE",
"661 1305 QCURVE"
);
},
{
closed = 1;
nodes = (
"762 787 OFFCURVE",
"868 691 OFFCURVE",
"868 606 QCURVE SMOOTH",
"868 488 OFFCURVE",
"787 287 OFFCURVE",
"642 172 OFFCURVE",
"555 172 QCURVE SMOOTH",
"462 172 OFFCURVE",
"352 293 OFFCURVE",
"352 395 QCURVE SMOOTH",
"352 571 OFFCURVE",
"520 787 OFFCURVE",
"658 787 QCURVE SMOOTH"
);
}
);
width = 1251;
}
);
note = eth;
unicode = 00F0;
},
{
glyphname = Thorn;
lastChange = "2019-11-19 22:35:12 +0000";
layers = (
{
layerId = "E64FF656-58E6-4C13-B3CC-343A43FBFB06";
paths = (
{
closed = 1;
nodes = (
"384 271 LINE",
"762 271 LINE SMOOTH",
"1019 271 OFFCURVE",
"1326 537 OFFCURVE",
"1326 762 QCURVE SMOOTH",
"1326 960 OFFCURVE",
"1053 1184 OFFCURVE",
"807 1184 QCURVE SMOOTH",
"561 1184 LINE",
"605 1409 LINE",
"310 1409 LINE",
"36 0 LINE",
"331 0 LINE"
);
},
{
closed = 1;
nodes = (
"517 955 LINE",
"779 955 LINE SMOOTH",
"899 955 OFFCURVE",
"1027 848 OFFCURVE",
"1027 746 QCURVE SMOOTH",
"1027 614 OFFCURVE",
"872 498 OFFCURVE",
"717 498 QCURVE SMOOTH",
"428 498 LINE"
);
}
);
width = 1366;
}
);
note = Thorn;
unicode = 00DE;
},
{
glyphname = thorn;
lastChange = "2019-11-19 22:35:12 +0000";
layers = (
{
layerId = "E64FF656-58E6-4C13-B3CC-343A43FBFB06";
paths = (
{
closed = 1;
nodes = (
"812 907 OFFCURVE",
"889 800 OFFCURVE",
"889 694 QCURVE SMOOTH",
"889 585 OFFCURVE",
"821 301 OFFCURVE",
"703 173 OFFCURVE",
"601 173 QCURVE SMOOTH",
"506 173 OFFCURVE",
"400 294 OFFCURVE",
"400 401 QCURVE SMOOTH",
"400 461 OFFCURVE",
"417 554 QCURVE SMOOTH",
"451 731 OFFCURVE",
"602 907 OFFCURVE",
"728 907 QCURVE SMOOTH"
);
},
{
closed = 1;
nodes = (
"503 965 OFFCURVE",
"521 1057 QCURVE SMOOTH",
"604 1484 LINE",
"323 1484 LINE",
"-46 -425 LINE",
"234 -425 LINE",
"315 -10 LINE",
"333 88 LINE",
"347 178 LINE",
"349 178 LINE",
"381 84 OFFCURVE",
"537 -20 OFFCURVE",
"662 -20 QCURVE SMOOTH",
"836 -20 OFFCURVE",
"1061 163 OFFCURVE",
"1185 546 OFFCURVE",
"1185 748 QCURVE SMOOTH",
"1185 913 OFFCURVE",
"1007 1102 OFFCURVE",
"848 1102 QCURVE SMOOTH",
"730 1102 OFFCURVE",
"565 1013 OFFCURVE",
"493 913 QCURVE",
"487 913 LINE"
);
}
);
width = 1251;
}
);
note = thorn;
unicode = 00FE;
},
{
glyphname = minus;
lastChange = "2019-11-19 22:35:12 +0000";
layers = (
{
layerId = "E64FF656-58E6-4C13-B3CC-343A43FBFB06";
paths = (
{
closed = 1;
nodes = (
"1152 569 LINE",
"1152 793 LINE",
"125 793 LINE",
"125 569 LINE"
);
}
);
width = 1196;
}
);
note = minus;
unicode = 2212;
},
{
glyphname = multiply;
lastChange = "2019-11-19 22:35:12 +0000";
layers = (
{
layerId = "E64FF656-58E6-4C13-B3CC-343A43FBFB06";
paths = (
{
closed = 1;
nodes = (
"284 168 LINE",
"640 526 LINE",
"992 172 LINE",
"1150 332 LINE",
"798 682 LINE",
"1150 1036 LINE",
"992 1194 LINE",
"640 842 LINE",
"288 1192 LINE",
"130 1036 LINE",
"482 684 LINE",
"126 326 LINE"
);
}
);
width = 1196;
}
);
note = multiply;
unicode = 00D7;
},
{
glyphname = onesuperior;
lastChange = "2019-11-19 22:35:12 +0000";
layers = (
{
layerId = "E64FF656-58E6-4C13-B3CC-343A43FBFB06";
paths = (
{
closed = 1;
nodes = (
"634 693 LINE",
"657 814 LINE",
"487 814 LINE",
"603 1413 LINE",
"428 1413 LINE",
"226 1296 LINE",
"202 1174 LINE",
"396 1282 LINE",
"305 814 LINE",
"121 814 LINE",
"98 693 LINE"
);
}
);
width = 682;
}
);
note = onesuperior;
unicode = 00B9;
},
{
glyphname = twosuperior;
lastChange = "2019-11-19 22:35:12 +0000";
layers = (
{
layerId = "E64FF656-58E6-4C13-B3CC-343A43FBFB06";
paths = (
{
closed = 1;
nodes = (
"635 696 LINE",
"660 839 LINE",
"311 839 LINE",
"333 869 OFFCURVE",
"411 918 OFFCURVE",
"503 967 OFFCURVE",
"599 1021 OFFCURVE",
"676 1090 OFFCURVE",
"726 1179 OFFCURVE",
"726 1239 QCURVE SMOOTH",
"726 1325 OFFCURVE",
"594 1426 OFFCURVE",
"479 1426 QCURVE SMOOTH",
"356 1426 OFFCURVE",
"218 1335 OFFCURVE",
"187 1236 QCURVE",
"349 1202 LINE",
"375 1299 OFFCURVE",
"463 1299 QCURVE SMOOTH",
"498 1299 OFFCURVE",
"542 1260 OFFCURVE",
"542 1231 QCURVE SMOOTH",
"542 1180 OFFCURVE",
"465 1095 OFFCURVE",
"373 1045 QCURVE SMOOTH",
"263 983 OFFCURVE",
"135 879 OFFCURVE",
"95 816 QCURVE",
"71 696 LINE"
);
}
);
width = 682;
}
);
note = twosuperior;
unicode = 00B2;
},
{
glyphname = threesuperior;
lastChange = "2019-11-19 22:35:12 +0000";
layers = (
{
layerId = "E64FF656-58E6-4C13-B3CC-343A43FBFB06";
paths = (
{
closed = 1;
nodes = (
"496 864 OFFCURVE",
"431 811 OFFCURVE",
"385 811 QCURVE SMOOTH",
"294 811 OFFCURVE",
"277 910 QCURVE",
"96 885 LINE",
"123 688 OFFCURVE",
"369 688 QCURVE SMOOTH",
"514 688 OFFCURVE",
"684 812 OFFCURVE",
"684 913 QCURVE SMOOTH",
"684 976 OFFCURVE",
"606 1053 OFFCURVE",
"542 1065 QCURVE",
"543 1067 LINE",
"625 1074 OFFCURVE",
"726 1176 OFFCURVE",
"726 1247 QCURVE SMOOTH",
"726 1337 OFFCURVE",
"594 1426 OFFCURVE",
"476 1426 QCURVE SMOOTH",
"344 1426 OFFCURVE",
"204 1332 OFFCURVE",
"178 1234 QCURVE",
"341 1210 LINE",
"366 1304 OFFCURVE",
"456 1304 QCURVE SMOOTH",
"539 1304 OFFCURVE",
"539 1221 QCURVE SMOOTH",
"539 1176 OFFCURVE",
"463 1126 OFFCURVE",
"401 1126 QCURVE SMOOTH",
"341 1126 LINE",
"317 1000 LINE",
"385 1000 LINE SMOOTH",
"496 1000 OFFCURVE",
"496 915 QCURVE SMOOTH"
);
}
);
width = 682;
}
);
note = threesuperior;
unicode = 00B3;
},
{
glyphname = franc;
lastChange = "2019-11-19 22:35:12 +0000";
layers = (
{
layerId = "E64FF656-58E6-4C13-B3CC-343A43FBFB06";
paths = (
{
closed = 1;
nodes = (
"1225 1201 LINE",
"1265 1409 LINE",
"310 1409 LINE",
"116 407 LINE",
"-13 407 LINE",
"-42 258 LINE",
"87 258 LINE",
"37 0 LINE",
"321 0 LINE",
"372 258 LINE",
"686 258 LINE",
"715 407 LINE",
"401 407 LINE",
"438 597 LINE",
"1075 597 LINE",
"1115 805 LINE",
"478 805 LINE",
"555 1201 LINE"
);
}
);
width = 1139;
}
);
note = franc;
unicode = 20A3;
},
{
glyphname = dcroat;
lastChange = "2019-11-19 22:35:12 +0000";
layers = (
{
layerId = "E64FF656-58E6-4C13-B3CC-343A43FBFB06";
paths = (
{
closed = 1;
nodes = (
"753 160 LINE",
"738 63 OFFCURVE",
"738 0 QCURVE",
"1019 0 LINE",
"1028 119 OFFCURVE",
"1048 231 QCURVE SMOOTH",
"1227 1175 LINE",
"1358 1175 LINE",
"1391 1345 LINE",
"1259 1345 LINE",
"1286 1484 LINE",
"1009 1484 LINE",
"981 1345 LINE",
"691 1345 LINE",
"658 1175 LINE",
"947 1175 LINE",
"922 1053 LINE SMOOTH",
"908 984 OFFCURVE",
"895 893 OFFCURVE",
"893 871 QCURVE",
"887 871 LINE",
"858 964 OFFCURVE",
"698 1061 OFFCURVE",
"571 1061 QCURVE SMOOTH",
"413 1061 OFFCURVE",
"184 875 OFFCURVE",
"58 522 OFFCURVE",
"58 340 QCURVE SMOOTH",
"58 175 OFFCURVE",
"238 -21 OFFCURVE",
"392 -21 QCURVE SMOOTH",
"513 -21 OFFCURVE",
"678 67 OFFCURVE",
"749 160 QCURVE"
);
},
{
closed = 1;
nodes = (
"355 172 OFFCURVE",
"355 382 QCURVE SMOOTH",
"355 489 OFFCURVE",
"423 745 OFFCURVE",
"551 874 OFFCURVE",
"648 874 QCURVE SMOOTH",
"742 874 OFFCURVE",
"836 771 OFFCURVE",
"836 656 QCURVE SMOOTH",
"836 549 OFFCURVE",
"759 297 OFFCURVE",
"621 172 OFFCURVE",
"515 172 QCURVE SMOOTH"
);
}
);
width = 1251;
}
);
note = dcroat;
unicode = 0111;
},
{
glyphname = overscore;
lastChange = "2019-11-19 22:35:12 +0000";
layers = (
{
layerId = "E64FF656-58E6-4C13-B3CC-343A43FBFB06";
paths = (
{
closed = 1;
nodes = (
"1148 1546 LINE",
"-17 1546 LINE",
"-17 1452 LINE",
"1148 1452 LINE"
);
}
);
width = 1131;
}
);
note = overscore;
unicode = 00AF;
},
{
glyphname = middot;
lastChange = "2019-11-19 22:35:12 +0000";
layers = (
{
layerId = "E64FF656-58E6-4C13-B3CC-343A43FBFB06";
paths = (
{
closed = 1;
nodes = (
"477 531 LINE",
"536 836 LINE",
"248 836 LINE",
"189 531 LINE"
);
}
);
width = 682;
}
);
note = middot;
unicode = 00B7;
},
{
glyphname = Gamma;
lastChange = "2019-11-19 22:35:12 +0000";
layers = (
{
layerId = "E64FF656-58E6-4C13-B3CC-343A43FBFB06";
paths = (
{
closed = 1;
nodes = (
"309 1409 LINE",
"36 1 LINE",
"331 1 LINE",
"560 1181 LINE",
"1286 1181 LINE",
"1330 1409 LINE"
);
}
);
width = 1249;
}
);
note = Gamma;
unicode = 0393;
},
{
glyphname = Theta;
lastChange = "2019-11-19 22:35:12 +0000";
layers = (
{
layerId = "E64FF656-58E6-4C13-B3CC-343A43FBFB06";
paths = (
{
closed = 1;
nodes = (
"512 599 LINE",
"1099 599 LINE",
"1143 827 LINE",
"556 827 LINE"
);
},
{
closed = 1;
nodes = (
"685 1430 OFFCURVE",
"311 1215 OFFCURVE",
"100 808 OFFCURVE",
"100 573 QCURVE SMOOTH",
"100 393 OFFCURVE",
"249 124 OFFCURVE",
"534 -20 OFFCURVE",
"727 -20 QCURVE SMOOTH",
"970 -20 OFFCURVE",
"1348 197 OFFCURVE",
"1559 604 OFFCURVE",
"1559 851 QCURVE SMOOTH",
"1559 1119 OFFCURVE",
"1221 1430 OFFCURVE",
"928 1430 QCURVE SMOOTH"
);
},
{
closed = 1;
nodes = (
"1080 1197 OFFCURVE",
"1255 1003 OFFCURVE",
"1255 827 QCURVE SMOOTH",
"1255 658 OFFCURVE",
"1130 362 OFFCURVE",
"902 212 OFFCURVE",
"741 212 QCURVE SMOOTH",
"580 212 OFFCURVE",
"400 397 OFFCURVE",
"400 581 QCURVE SMOOTH",
"400 745 OFFCURVE",
"524 1047 OFFCURVE",
"752 1197 OFFCURVE",
"914 1197 QCURVE SMOOTH"
);
}
);
width = 1593;
}
);
note = Theta;
unicode = 0398;
},
{
glyphname = Phi;
lastChange = "2019-11-19 22:35:12 +0000";
layers = (
{
layerId = "E64FF656-58E6-4C13-B3CC-343A43FBFB06";
paths = (
{
closed = 1;
nodes = (
"1133 1052 LINE SMOOTH",
"1240 1052 OFFCURVE",
"1363 911 OFFCURVE",
"1363 789 QCURVE SMOOTH",
"1363 609 OFFCURVE",
"1168 397 OFFCURVE",
"998 397 QCURVE SMOOTH",
"944 397 LINE",
"1071 1052 LINE"
);
},
{
closed = 1;
nodes = (
"865 -11 LINE",
"903 188 LINE",
"984 188 LINE SMOOTH",
"1298 188 OFFCURVE",
"1654 507 OFFCURVE",
"1654 793 QCURVE SMOOTH",
"1654 933 OFFCURVE",
"1539 1145 OFFCURVE",
"1324 1261 OFFCURVE",
"1179 1261 QCURVE SMOOTH",
"1112 1261 LINE",
"1142 1419 LINE",
"872 1419 LINE",
"842 1261 LINE",
"773 1261 LINE SMOOTH",
"448 1261 OFFCURVE",
"96 943 OFFCURVE",
"96 651 QCURVE SMOOTH",
"96 444 OFFCURVE",
"350 188 OFFCURVE",
"557 188 QCURVE SMOOTH",
"633 188 LINE",
"595 -11 LINE"
);
},
{
closed = 1;
nodes = (
"674 397 LINE",
"608 397 LINE SMOOTH",
"505 397 OFFCURVE",
"387 540 OFFCURVE",
"387 662 QCURVE SMOOTH",
"387 850 OFFCURVE",
"580 1052 OFFCURVE",
"755 1052 QCURVE SMOOTH",
"801 1052 LINE"
);
}
);
width = 1684;
}
);
note = Phi;
unicode = 03A6;
},
{
glyphname = alpha;
lastChange = "2019-11-19 22:35:12 +0000";
layers = (
{
layerId = "E64FF656-58E6-4C13-B3CC-343A43FBFB06";
paths = (
{
closed = 1;
nodes = (
"473 1101 OFFCURVE",
"271 1002 OFFCURVE",
"131 800 OFFCURVE",
"57 505 OFFCURVE",
"57 375 QCURVE SMOOTH",
"57 189 OFFCURVE",
"238 -21 OFFCURVE",
"405 -21 QCURVE SMOOTH",
"522 -21 OFFCURVE",
"710 95 OFFCURVE",
"803 240 QCURVE",
"807 240 LINE",
"807 225 LINE SMOOTH",
"807 125 OFFCURVE",
"833 0 QCURVE",
"1111 0 LINE",
"1088 120 OFFCURVE",
"1074 246 OFFCURVE",
"1065 409 OFFCURVE",
"1065 514 QCURVE",
"1107 641 OFFCURVE",
"1273 983 OFFCURVE",
"1341 1082 QCURVE",
"1069 1082 LINE",
"1045 1045 OFFCURVE",
"968 890 OFFCURVE",
"952 847 QCURVE",
"950 847 LINE",
"927 966 OFFCURVE",
"753 1101 OFFCURVE",
"612 1101 QCURVE SMOOTH"
);
},
{
closed = 1;
nodes = (
"704 907 OFFCURVE",
"792 755 OFFCURVE",
"792 616 QCURVE SMOOTH",
"790 552 LINE",
"737 370 OFFCURVE",
"580 174 OFFCURVE",
"495 174 QCURVE SMOOTH",
"349 174 OFFCURVE",
"349 387 QCURVE SMOOTH",
"349 504 OFFCURVE",
"414 776 OFFCURVE",
"527 907 OFFCURVE",
"616 907 QCURVE SMOOTH"
);
}
);
width = 1270;
}
);
note = alpha;
unicode = 03B1;
},
{
glyphname = delta;
lastChange = "2019-11-19 22:35:12 +0000";
layers = (
{
layerId = "E64FF656-58E6-4C13-B3CC-343A43FBFB06";
paths = (
{
closed = 1;
nodes = (
"459 177 OFFCURVE",
"345 315 OFFCURVE",
"345 430 QCURVE SMOOTH",
"345 517 OFFCURVE",
"387 654 OFFCURVE",
"466 762 OFFCURVE",
"591 852 OFFCURVE",
"719 900 QCURVE",
"793 816 OFFCURVE",
"855 653 OFFCURVE",
"855 558 QCURVE SMOOTH",
"855 385 OFFCURVE",
"694 177 OFFCURVE",
"557 177 QCURVE SMOOTH"
);
},
{
closed = 1;
nodes = (
"1225 1294 LINE",
"1253 1484 LINE",
"414 1484 LINE",
"378 1325 LINE",
"625 1013 LINE",
"55 863 OFFCURVE",
"55 415 QCURVE SMOOTH",
"55 220 OFFCURVE",
"316 -19 OFFCURVE",
"533 -19 QCURVE SMOOTH",
"812 -19 OFFCURVE",
"1146 282 OFFCURVE",
"1146 537 QCURVE SMOOTH",
"1146 644 OFFCURVE",
"1068 849 OFFCURVE",
"960 992 QCURVE",
"703 1302 LINE",
"715 1301 OFFCURVE",
"756 1299 OFFCURVE",
"779 1298 QCURVE SMOOTH",
"855 1294 LINE"
);
}
);
width = 1250;
}
);
note = delta;
unicode = 03B4;
},
{
glyphname = epsilon;
lastChange = "2019-11-19 22:35:12 +0000";
layers = (
{
layerId = "E64FF656-58E6-4C13-B3CC-343A43FBFB06";
paths = (
{
closed = 1;
nodes = (
"396 170 OFFCURVE",
"317 245 OFFCURVE",
"317 304 QCURVE SMOOTH",
"317 370 OFFCURVE",
"394 444 OFFCURVE",
"536 477 OFFCURVE",
"699 477 QCURVE",
"723 652 LINE",
"577 652 OFFCURVE",
"425 725 OFFCURVE",
"425 794 QCURVE SMOOTH",
"425 855 OFFCURVE",
"520 923 OFFCURVE",
"603 923 QCURVE SMOOTH",
"741 923 OFFCURVE",
"807 804 QCURVE",
"999 888 LINE",
"942 996 OFFCURVE",
"749 1101 OFFCURVE",
"602 1101 QCURVE SMOOTH",
"391 1101 OFFCURVE",
"161 946 OFFCURVE",
"161 806 QCURVE SMOOTH",
"161 726 OFFCURVE",
"262 606 OFFCURVE",
"350 581 QCURVE",
"349 579 LINE",
"191 563 OFFCURVE",
"26 414 OFFCURVE",
"26 292 QCURVE SMOOTH",
"26 154 OFFCURVE",
"244 -20 OFFCURVE",
"420 -20 QCURVE SMOOTH",
"571 -20 OFFCURVE",
"795 64 OFFCURVE",
"897 159 QCURVE",
"769 310 LINE",
"700 249 OFFCURVE",
"551 170 OFFCURVE",
"462 170 QCURVE SMOOTH"
);
}
);
width = 980;
}
);
note = epsilon;
unicode = 03B5;
},
{
glyphname = sigma;
lastChange = "2019-11-19 22:35:12 +0000";
layers = (
{
layerId = "E64FF656-58E6-4C13-B3CC-343A43FBFB06";
paths = (
{
closed = 1;
nodes = (
"726 -20 OFFCURVE",
"1011 132 OFFCURVE",
"1160 409 OFFCURVE",
"1160 592 QCURVE SMOOTH",
"1160 746 OFFCURVE",
"1065 894 QCURVE",
"1066 898 LINE",
"1253 892 LINE",
"1387 892 LINE",
"1424 1082 LINE",
"838 1082 LINE SMOOTH",
"650 1082 OFFCURVE",
"359 989 OFFCURVE",
"161 804 OFFCURVE",
"64 550 OFFCURVE",
"64 411 QCURVE SMOOTH",
"64 206 OFFCURVE",
"313 -20 OFFCURVE",
"532 -20 QCURVE SMOOTH"
);
},
{
closed = 1;
nodes = (
"463 172 OFFCURVE",
"356 306 OFFCURVE",
"356 426 QCURVE SMOOTH",
"356 513 OFFCURVE",
"407 695 OFFCURVE",
"515 826 OFFCURVE",
"674 892 OFFCURVE",
"776 892 QCURVE SMOOTH",
"847 892 LINE",
"880 781 OFFCURVE",
"880 660 QCURVE SMOOTH",
"880 413 OFFCURVE",
"722 172 OFFCURVE",
"564 172 QCURVE SMOOTH"
);
}
);
width = 1359;
}
);
note = sigma;
unicode = 03C3;
},
{
glyphname = tau;
lastChange = "2019-11-19 22:35:12 +0000";
layers = (
{
layerId = "E64FF656-58E6-4C13-B3CC-343A43FBFB06";
paths = (
{
closed = 1;
nodes = (
"334 892 LINE",
"227 339 LINE SMOOTH",
"215 281 OFFCURVE",
"215 219 QCURVE SMOOTH",
"215 103 OFFCURVE",
"340 -20 OFFCURVE",
"455 -20 QCURVE SMOOTH",
"506 -20 OFFCURVE",
"624 -3 OFFCURVE",
"660 7 QCURVE",
"692 190 LINE",
"670 187 LINE SMOOTH",
"617 177 OFFCURVE",
"588 177 QCURVE SMOOTH",
"497 177 OFFCURVE",
"497 271 QCURVE SMOOTH",
"497 296 OFFCURVE",
"503 329 QCURVE SMOOTH",
"612 892 LINE",
"887 892 LINE",
"924 1082 LINE",
"279 1082 LINE SMOOTH",
"227 1082 OFFCURVE",
"125 1065 OFFCURVE",
"96 1053 QCURVE",
"57 855 LINE",
"85 869 OFFCURVE",
"230 892 OFFCURVE",
"311 892 QCURVE SMOOTH"
);
}
);
width = 837;
}
);
note = tau;
unicode = 03C4;
},
{
glyphname = phi;
lastChange = "2019-11-19 22:35:12 +0000";
layers = (
{
layerId = "E64FF656-58E6-4C13-B3CC-343A43FBFB06";
paths = (
{
closed = 1;
nodes = (
"698 1104 OFFCURVE",
"621 702 QCURVE SMOOTH",
"517 167 LINE",
"426 173 OFFCURVE",
"332 311 OFFCURVE",
"332 429 QCURVE SMOOTH",
"332 623 OFFCURVE",
"491 898 OFFCURVE",
"617 927 QCURVE",
"631 1106 LINE",
"356 1061 OFFCURVE",
"64 716 OFFCURVE",
"64 435 QCURVE SMOOTH",
"64 235 OFFCURVE",
"293 -12 OFFCURVE",
"480 -20 QCURVE",
"402 -425 LINE",
"640 -425 LINE",
"719 -18 LINE",
"1030 -14 OFFCURVE",
"1379 370 OFFCURVE",
"1379 715 QCURVE SMOOTH",
"1379 892 OFFCURVE",
"1190 1104 OFFCURVE",
"1026 1104 QCURVE SMOOTH"
);
},
{
closed = 1;
nodes = (
"1113 930 OFFCURVE",
"1113 709 QCURVE SMOOTH",
"1113 202 OFFCURVE",
"754 166 QCURVE",
"858 699 LINE SMOOTH",
"881 818 OFFCURVE",
"954 930 OFFCURVE",
"1014 930 QCURVE SMOOTH"
);
}
);
width = 1441;
}
);
note = phi;
unicode = 03C6;
},
{
glyphname = nsuperior;
lastChange = "2019-11-19 22:35:12 +0000";
layers = (
{
layerId = "E64FF656-58E6-4C13-B3CC-343A43FBFB06";
paths = (
{
closed = 1;
nodes = (
"690 519 LINE",
"769 923 LINE SMOOTH",
"778 964 OFFCURVE",
"778 1006 QCURVE SMOOTH",
"778 1181 OFFCURVE",
"602 1181 QCURVE SMOOTH",
"530 1181 OFFCURVE",
"421 1126 OFFCURVE",
"370 1058 QCURVE",
"367 1058 LINE",
"381 1169 LINE",
"215 1169 LINE",
"191 1030 LINE",
"92 519 LINE",
"270 519 LINE",
"338 870 LINE SMOOTH",
"355 961 OFFCURVE",
"449 1057 OFFCURVE",
"510 1057 QCURVE SMOOTH",
"595 1057 OFFCURVE",
"595 982 QCURVE SMOOTH",
"595 944 OFFCURVE",
"585 898 QCURVE SMOOTH",
"511 519 LINE"
);
}
);
width = 811;
}
);
note = nsuperior;
unicode = 207F;
},
{
glyphname = peseta;
lastChange = "2019-11-19 22:35:12 +0000";
layers = (
{
layerId = "E64FF656-58E6-4C13-B3CC-343A43FBFB06";
paths = (
{
closed = 1;
nodes = (
"1468 813 LINE",
"1321 813 LINE",
"1368 1055 LINE",
"1243 1055 LINE",
"1108 813 LINE",
"1039 813 LINE",
"1097 899 OFFCURVE",
"1097 1026 QCURVE SMOOTH",
"1097 1212 OFFCURVE",
"861 1409 OFFCURVE",
"647 1409 QCURVE SMOOTH",
"333 1409 LINE",
"59 0 LINE",
"300 0 LINE",
"407 549 LINE",
"543 549 LINE SMOOTH",
"692 549 OFFCURVE",
"909 637 OFFCURVE",
"983 733 QCURVE",
"964 646 LINE",
"1058 646 LINE",
"985 260 LINE SMOOTH",
"976 215 OFFCURVE",
"976 175 QCURVE SMOOTH",
"976 88 OFFCURVE",
"1080 -16 OFFCURVE",
"1186 -16 QCURVE SMOOTH",
"1260 -16 OFFCURVE",
"1330 8 QCURVE",
"1361 166 LINE",
"1316 152 OFFCURVE",
"1279 152 QCURVE SMOOTH",
"1211 152 OFFCURVE",
"1211 221 QCURVE SMOOTH",
"1211 243 OFFCURVE",
"1218 283 QCURVE SMOOTH",
"1288 646 LINE",
"1435 646 LINE"
);
},
{
closed = 1;
nodes = (
"1917 -20 OFFCURVE",
"2126 128 OFFCURVE",
"2126 269 QCURVE SMOOTH",
"2126 355 OFFCURVE",
"2003 471 OFFCURVE",
"1883 497 QCURVE SMOOTH",
"1807 514 LINE SMOOTH",
"1688 540 OFFCURVE",
"1688 590 QCURVE SMOOTH",
"1688 624 OFFCURVE",
"1748 656 OFFCURVE",
"1831 656 QCURVE SMOOTH",
"1954 656 OFFCURVE",
"1964 556 QCURVE",
"2171 578 LINE",
"2163 703 OFFCURVE",
"1991 824 OFFCURVE",
"1842 824 QCURVE SMOOTH",
"1661 824 OFFCURVE",
"1469 700 OFFCURVE",
"1469 578 QCURVE SMOOTH",
"1469 396 OFFCURVE",
"1697 342 QCURVE SMOOTH",
"1824 310 OFFCURVE",
"1881 286 OFFCURVE",
"1909 256 OFFCURVE",
"1909 234 QCURVE SMOOTH",
"1909 206 OFFCURVE",
"1881 172 OFFCURVE",
"1833 153 OFFCURVE",
"1768 147 OFFCURVE",
"1730 147 QCURVE SMOOTH",
"1651 147 OFFCURVE",
"1571 201 OFFCURVE",
"1562 261 QCURVE",
"1358 226 LINE",
"1373 99 OFFCURVE",
"1545 -20 OFFCURVE",
"1715 -20 QCURVE SMOOTH"
);
},
{
closed = 1;
nodes = (
"538 1216 LINE",
"608 1216 LINE SMOOTH",
"850 1216 OFFCURVE",
"850 1011 QCURVE SMOOTH",
"850 880 OFFCURVE",
"689 740 OFFCURVE",
"533 740 QCURVE SMOOTH",
"444 740 LINE"
);
}
);
width = 2261;
}
);
note = peseta;
unicode = 20A7;
},
{
glyphname = arrowleft;
lastChange = "2019-11-19 22:35:12 +0000";
layers = (
{
layerId = "E64FF656-58E6-4C13-B3CC-343A43FBFB06";
paths = (
{
closed = 1;
nodes = (
"1630 497 LINE",
"1630 583 LINE",
"641 583 LINE",
"698 650 OFFCURVE",
"760 780 QCURVE",
"688 780 LINE",
"561 631 OFFCURVE",
"418 558 QCURVE",
"418 522 LINE",
"561 449 OFFCURVE",
"688 300 QCURVE",
"760 300 LINE",
"698 430 OFFCURVE",
"641 497 QCURVE"
);
}
);
width = 2048;
}
);
note = arrowleft;
unicode = 2190;
},
{
glyphname = arrowup;
lastChange = "2019-11-19 22:35:12 +0000";
layers = (
{
layerId = "E64FF656-58E6-4C13-B3CC-343A43FBFB06";
paths = (
{
closed = 1;
nodes = (
"469 -61 LINE",
"555 -61 LINE",
"555 928 LINE",
"622 871 OFFCURVE",
"752 809 QCURVE",
"752 881 LINE",
"603 1008 OFFCURVE",
"530 1151 QCURVE",
"494 1151 LINE",
"421 1008 OFFCURVE",
"272 881 QCURVE",
"272 809 LINE",
"402 871 OFFCURVE",
"469 928 QCURVE"
);
}
);
width = 1024;
}
);
note = arrowup;
unicode = 2191;
},
{
glyphname = arrowright;
lastChange = "2019-11-19 22:35:12 +0000";
layers = (
{
layerId = "E64FF656-58E6-4C13-B3CC-343A43FBFB06";
paths = (
{
closed = 1;
nodes = (
"418 583 LINE",
"418 497 LINE",
"1407 497 LINE",
"1350 430 OFFCURVE",
"1288 300 QCURVE",
"1360 300 LINE",
"1487 449 OFFCURVE",
"1630 522 QCURVE",
"1630 558 LINE",
"1487 631 OFFCURVE",
"1360 780 QCURVE",
"1288 780 LINE",
"1350 650 OFFCURVE",
"1407 583 QCURVE"
);
}
);
width = 2048;
}
);
note = arrowright;
unicode = 2192;
},
{
glyphname = arrowdown;
lastChange = "2019-11-19 22:35:12 +0000";
layers = (
{
layerId = "E64FF656-58E6-4C13-B3CC-343A43FBFB06";
paths = (
{
closed = 1;
nodes = (
"555 1151 LINE",
"469 1151 LINE",
"469 162 LINE",
"402 219 OFFCURVE",
"272 281 QCURVE",
"272 209 LINE",
"421 82 OFFCURVE",
"494 -61 QCURVE",
"530 -61 LINE",
"603 82 OFFCURVE",
"752 209 QCURVE",
"752 281 LINE",
"622 219 OFFCURVE",
"555 162 QCURVE"
);
}
);
width = 1024;
}
);
note = arrowdown;
unicode = 2193;
},
{
glyphname = arrowboth;
lastChange = "2019-11-19 22:35:12 +0000";
layers = (
{
layerId = "E64FF656-58E6-4C13-B3CC-343A43FBFB06";
paths = (
{
closed = 1;
nodes = (
"1407 497 LINE",
"1350 430 OFFCURVE",
"1288 300 QCURVE",
"1360 300 LINE",
"1487 449 OFFCURVE",
"1630 522 QCURVE",
"1630 558 LINE",
"1487 631 OFFCURVE",
"1360 780 QCURVE",
"1288 780 LINE",
"1350 650 OFFCURVE",
"1407 583 QCURVE",
"641 583 LINE",
"698 650 OFFCURVE",
"760 780 QCURVE",
"688 780 LINE",
"561 631 OFFCURVE",
"418 558 QCURVE",
"418 522 LINE",
"561 449 OFFCURVE",
"688 300 QCURVE",
"760 300 LINE",
"698 430 OFFCURVE",
"641 497 QCURVE"
);
}
);
width = 2048;
}
);
note = arrowboth;
unicode = 2194;
},
{
glyphname = arrowupdn;
lastChange = "2019-11-19 22:35:12 +0000";
layers = (
{
layerId = "E64FF656-58E6-4C13-B3CC-343A43FBFB06";
paths = (
{
closed = 1;
nodes = (
"469 162 LINE",
"402 219 OFFCURVE",
"272 281 QCURVE",
"272 209 LINE",
"421 82 OFFCURVE",
"494 -61 QCURVE",
"530 -61 LINE",
"603 82 OFFCURVE",
"752 209 QCURVE",
"752 281 LINE",
"622 219 OFFCURVE",
"555 162 QCURVE",
"555 928 LINE",
"622 871 OFFCURVE",
"752 809 QCURVE",
"752 881 LINE",
"603 1008 OFFCURVE",
"530 1151 QCURVE",
"494 1151 LINE",
"421 1008 OFFCURVE",
"272 881 QCURVE",
"272 809 LINE",
"402 871 OFFCURVE",
"469 928 QCURVE"
);
}
);
width = 1024;
}
);
note = arrowupdn;
unicode = 2195;
},
{
glyphname = arrowupdnbse;
lastChange = "2019-11-19 22:35:12 +0000";
layers = (
{
layerId = "E64FF656-58E6-4C13-B3CC-343A43FBFB06";
paths = (
{
closed = 1;
nodes = (
"272 -184 LINE",
"752 -184 LINE",
"752 -104 LINE",
"272 -104 LINE"
);
},
{
closed = 1;
nodes = (
"469 162 LINE",
"402 219 OFFCURVE",
"272 281 QCURVE",
"272 209 LINE",
"421 82 OFFCURVE",
"494 -61 QCURVE",
"530 -61 LINE",
"603 82 OFFCURVE",
"752 209 QCURVE",
"752 281 LINE",
"622 219 OFFCURVE",
"555 162 QCURVE",
"555 928 LINE",
"622 871 OFFCURVE",
"752 809 QCURVE",
"752 881 LINE",
"603 1008 OFFCURVE",
"530 1151 QCURVE",
"494 1151 LINE",
"421 1008 OFFCURVE",
"272 881 QCURVE",
"272 809 LINE",
"402 871 OFFCURVE",
"469 928 QCURVE"
);
}
);
width = 1024;
}
);
note = arrowupdnbse;
unicode = 21A8;
},
{
glyphname = orthogonal;
lastChange = "2019-11-19 22:35:12 +0000";
layers = (
{
layerId = "E64FF656-58E6-4C13-B3CC-343A43FBFB06";
paths = (
{
closed = 1;
nodes = (
"408 0 LINE",
"1632 0 LINE",
"1632 94 LINE",
"502 94 LINE",
"502 1223 LINE",
"408 1223 LINE"
);
}
);
width = 2005;
}
);
note = orthogonal;
unicode = 221F;
},
{
glyphname = intersection;
lastChange = "2019-11-19 22:35:12 +0000";
layers = (
{
layerId = "E64FF656-58E6-4C13-B3CC-343A43FBFB06";
paths = (
{
closed = 1;
nodes = (
"384 -2 LINE",
"384 510 LINE SMOOTH",
"384 704 OFFCURVE",
"576 930 OFFCURVE",
"738 930 QCURVE SMOOTH",
"898 930 OFFCURVE",
"1094 702 OFFCURVE",
"1094 512 QCURVE SMOOTH",
"1094 -2 LINE",
"1197 -2 LINE",
"1197 510 LINE SMOOTH",
"1197 658 OFFCURVE",
"1078 900 OFFCURVE",
"867 1032 OFFCURVE",
"736 1032 QCURVE SMOOTH",
"606 1032 OFFCURVE",
"397 899 OFFCURVE",
"281 660 OFFCURVE",
"281 510 QCURVE SMOOTH",
"281 -2 LINE"
);
}
);
width = 1479;
}
);
note = intersection;
unicode = 2229;
},
{
glyphname = equivalence;
lastChange = "2019-11-19 22:35:12 +0000";
layers = (
{
layerId = "E64FF656-58E6-4C13-B3CC-343A43FBFB06";
paths = (
{
closed = 1;
nodes = (
"1095 956 LINE",
"1095 1104 LINE",
"100 1104 LINE",
"100 956 LINE"
);
},
{
closed = 1;
nodes = (
"1095 244 LINE",
"1095 392 LINE",
"100 392 LINE",
"100 244 LINE"
);
},
{
closed = 1;
nodes = (
"1095 600 LINE",
"1095 748 LINE",
"100 748 LINE",
"100 600 LINE"
);
}
);
width = 1195;
}
);
note = equivalence;
unicode = 2261;
},
{
glyphname = house;
lastChange = "2019-11-19 22:35:12 +0000";
layers = (
{
layerId = "E64FF656-58E6-4C13-B3CC-343A43FBFB06";
paths = (
{
closed = 1;
nodes = (
"1079 0 LINE",
"1079 635 LINE",
"618 1153 LINE",
"157 635 LINE",
"157 0 LINE"
);
},
{
closed = 1;
nodes = (
"237 600 LINE",
"618 1026 LINE",
"999 600 LINE",
"999 82 LINE",
"237 82 LINE"
);
}
);
width = 1237;
}
);
note = house;
unicode = 2302;
},
{
glyphname = revlogicalnot;
lastChange = "2019-11-19 22:35:12 +0000";
layers = (
{
layerId = "E64FF656-58E6-4C13-B3CC-343A43FBFB06";
paths = (
{
closed = 1;
nodes = (
"245 180 LINE",
"245 608 LINE",
"1095 608 LINE",
"1095 754 LINE",
"100 754 LINE",
"100 180 LINE"
);
}
);
width = 1196;
}
);
note = revlogicalnot;
unicode = 2310;
},
{
glyphname = integraltp;
lastChange = "2019-11-19 22:35:12 +0000";
layers = (
{
layerId = "E64FF656-58E6-4C13-B3CC-343A43FBFB06";
paths = (
{
closed = 1;
nodes = (
"693 1423 LINE SMOOTH",
"693 1528 OFFCURVE",
"699 1563 QCURVE SMOOTH",
"708 1602 OFFCURVE",
"744 1602 QCURVE SMOOTH",
"760 1602 OFFCURVE",
"793 1563 QCURVE SMOOTH",
"831 1521 OFFCURVE",
"847 1513 QCURVE",
"860 1503 OFFCURVE",
"890 1503 QCURVE SMOOTH",
"927 1503 OFFCURVE",
"978 1555 OFFCURVE",
"978 1595 QCURVE SMOOTH",
"978 1643 OFFCURVE",
"903 1706 OFFCURVE",
"840 1706 QCURVE SMOOTH",
"714 1706 OFFCURVE",
"546 1460 OFFCURVE",
"546 1264 QCURVE SMOOTH",
"546 -614 LINE",
"693 -614 LINE"
);
}
);
width = 1237;
}
);
note = integraltp;
unicode = 2320;
},
{
glyphname = integralbt;
lastChange = "2019-11-19 22:35:12 +0000";
layers = (
{
layerId = "E64FF656-58E6-4C13-B3CC-343A43FBFB06";
paths = (
{
closed = 1;
nodes = (
"546 -334 LINE SMOOTH",
"546 -461 OFFCURVE",
"523 -512 OFFCURVE",
"494 -512 QCURVE SMOOTH",
"478 -512 OFFCURVE",
"447 -475 QCURVE SMOOTH",
"416 -434 OFFCURVE",
"406 -430 QCURVE",
"380 -414 OFFCURVE",
"347 -414 QCURVE SMOOTH",
"311 -414 OFFCURVE",
"261 -467 OFFCURVE",
"261 -506 QCURVE SMOOTH",
"261 -553 OFFCURVE",
"339 -614 OFFCURVE",
"398 -614 QCURVE SMOOTH",
"530 -614 OFFCURVE",
"693 -369 OFFCURVE",
"693 -174 QCURVE SMOOTH",
"693 1706 LINE",
"546 1706 LINE"
);
}
);
width = 1237;
}
);
note = integralbt;
unicode = 2321;
},
{
glyphname = uni2500;
lastChange = "2019-11-19 22:35:12 +0000";
layers = (
{
layerId = "E64FF656-58E6-4C13-B3CC-343A43FBFB06";
paths = (
{
closed = 1;
nodes = (
"1461 549 LINE",
"1461 694 LINE",
"-10 694 LINE",
"-10 549 LINE"
);
}
);
width = 1451;
}
);
note = uni2500;
unicode = 2500;
},
{
glyphname = uni2502;
lastChange = "2019-11-19 22:35:12 +0000";
layers = (
{
layerId = "E64FF656-58E6-4C13-B3CC-343A43FBFB06";
paths = (
{
closed = 1;
nodes = (
"472 -621 LINE",
"617 -621 LINE",
"617 1864 LINE",
"472 1864 LINE"
);
}
);
width = 1280;
}
);
note = uni2502;
unicode = 2502;
},
{
glyphname = uni250C;
lastChange = "2019-11-19 22:35:12 +0000";
layers = (
{
layerId = "E64FF656-58E6-4C13-B3CC-343A43FBFB06";
paths = (
{
closed = 1;
nodes = (
"653 -621 LINE",
"798 -621 LINE",
"798 549 LINE",
"1461 549 LINE",
"1461 694 LINE",
"653 694 LINE"
);
}
);
width = 1451;
}
);
note = uni250C;
unicode = 250C;
},
{
glyphname = uni2510;
lastChange = "2019-11-19 22:35:12 +0000";
layers = (
{
layerId = "E64FF656-58E6-4C13-B3CC-343A43FBFB06";
paths = (
{
closed = 1;
nodes = (
"653 549 LINE",
"653 -621 LINE",
"798 -621 LINE",
"798 694 LINE",
"-10 694 LINE",
"-10 549 LINE"
);
}
);
width = 1451;
}
);
note = uni2510;
unicode = 2510;
},
{
glyphname = uni2514;
lastChange = "2019-11-19 22:35:12 +0000";
layers = (
{
layerId = "E64FF656-58E6-4C13-B3CC-343A43FBFB06";
paths = (
{
closed = 1;
nodes = (
"653 549 LINE",
"1461 549 LINE",
"1461 694 LINE",
"798 694 LINE",
"798 1864 LINE",
"653 1864 LINE"
);
}
);
width = 1451;
}
);
note = uni2514;
unicode = 2514;
},
{
glyphname = uni2518;
lastChange = "2019-11-19 22:35:12 +0000";
layers = (
{
layerId = "E64FF656-58E6-4C13-B3CC-343A43FBFB06";
paths = (
{
closed = 1;
nodes = (
"798 549 LINE",
"798 1864 LINE",
"653 1864 LINE",
"653 694 LINE",
"-10 694 LINE",
"-10 549 LINE"
);
}
);
width = 1451;
}
);
note = uni2518;
unicode = 2518;
},
{
glyphname = uni251C;
lastChange = "2019-11-19 22:35:12 +0000";
layers = (
{
layerId = "E64FF656-58E6-4C13-B3CC-343A43FBFB06";
paths = (
{
closed = 1;
nodes = (
"653 -621 LINE",
"798 -621 LINE",
"798 549 LINE",
"1461 549 LINE",
"1461 694 LINE",
"798 694 LINE",
"798 1864 LINE",
"653 1864 LINE"
);
}
);
width = 1451;
}
);
note = uni251C;
unicode = 251C;
},
{
glyphname = uni2524;
lastChange = "2019-11-19 22:35:12 +0000";
layers = (
{
layerId = "E64FF656-58E6-4C13-B3CC-343A43FBFB06";
paths = (
{
closed = 1;
nodes = (
"653 549 LINE",
"653 -621 LINE",
"798 -621 LINE",
"798 1864 LINE",
"653 1864 LINE",
"653 694 LINE",
"-10 694 LINE",
"-10 549 LINE"
);
}
);
width = 1451;
}
);
note = uni2524;
unicode = 2524;
},
{
glyphname = uni252C;
lastChange = "2019-11-19 22:35:12 +0000";
layers = (
{
layerId = "E64FF656-58E6-4C13-B3CC-343A43FBFB06";
paths = (
{
closed = 1;
nodes = (
"653 549 LINE",
"653 -621 LINE",
"798 -621 LINE",
"798 549 LINE",
"1461 549 LINE",
"1461 694 LINE",
"-10 694 LINE",
"-10 549 LINE"
);
}
);
width = 1451;
}
);
note = uni252C;
unicode = 252C;
},
{
glyphname = uni2534;
lastChange = "2019-11-19 22:35:12 +0000";
layers = (
{
layerId = "E64FF656-58E6-4C13-B3CC-343A43FBFB06";
paths = (
{
closed = 1;
nodes = (
"1461 549 LINE",
"1461 694 LINE",
"798 694 LINE",
"798 1864 LINE",
"653 1864 LINE",
"653 694 LINE",
"-10 694 LINE",
"-10 549 LINE"
);
}
);
width = 1451;
}
);
note = uni2534;
unicode = 2534;
},
{
glyphname = uni253C;
lastChange = "2019-11-19 22:35:12 +0000";
layers = (
{
layerId = "E64FF656-58E6-4C13-B3CC-343A43FBFB06";
paths = (
{
closed = 1;
nodes = (
"653 549 LINE",
"653 -621 LINE",
"798 -621 LINE",
"798 549 LINE",
"1461 549 LINE",
"1461 694 LINE",
"798 694 LINE",
"798 1864 LINE",
"653 1864 LINE",
"653 694 LINE",
"-10 694 LINE",
"-10 549 LINE"
);
}
);
width = 1451;
}
);
note = uni253C;
unicode = 253C;
},
{
glyphname = uni2550;
lastChange = "2019-11-19 22:35:12 +0000";
layers = (
{
layerId = "E64FF656-58E6-4C13-B3CC-343A43FBFB06";
paths = (
{
closed = 1;
nodes = (
"1461 729 LINE",
"1461 874 LINE",
"-10 874 LINE",
"-10 729 LINE"
);
},
{
closed = 1;
nodes = (
"1461 369 LINE",
"1461 514 LINE",
"-10 514 LINE",
"-10 369 LINE"
);
}
);
width = 1451;
}
);
note = uni2550;
unicode = 2550;
},
{
glyphname = uni2551;
lastChange = "2019-11-19 22:35:12 +0000";
layers = (
{
layerId = "E64FF656-58E6-4C13-B3CC-343A43FBFB06";
paths = (
{
closed = 1;
nodes = (
"473 -621 LINE",
"618 -621 LINE",
"618 1864 LINE",
"473 1864 LINE"
);
},
{
closed = 1;
nodes = (
"833 -621 LINE",
"978 -621 LINE",
"978 1864 LINE",
"833 1864 LINE"
);
}
);
width = 1451;
}
);
note = uni2551;
unicode = 2551;
},
{
glyphname = uni2552;
lastChange = "2019-11-19 22:35:12 +0000";
layers = (
{
layerId = "E64FF656-58E6-4C13-B3CC-343A43FBFB06";
paths = (
{
closed = 1;
nodes = (
"653 -621 LINE",
"798 -621 LINE",
"798 369 LINE",
"1461 369 LINE",
"1461 514 LINE",
"798 514 LINE",
"798 729 LINE",
"1461 729 LINE",
"1461 874 LINE",
"653 874 LINE"
);
}
);
width = 1451;
}
);
note = uni2552;
unicode = 2552;
},
{
glyphname = uni2553;
lastChange = "2019-11-19 22:35:12 +0000";
layers = (
{
layerId = "E64FF656-58E6-4C13-B3CC-343A43FBFB06";
paths = (
{
closed = 1;
nodes = (
"473 694 LINE",
"473 -621 LINE",
"618 -621 LINE",
"618 549 LINE",
"833 549 LINE",
"833 -621 LINE",
"978 -621 LINE",
"978 549 LINE",
"1461 549 LINE",
"1461 694 LINE"
);
}
);
width = 1451;
}
);
note = uni2553;
unicode = 2553;
},
{
glyphname = uni2554;
lastChange = "2019-11-19 22:35:12 +0000";
layers = (
{
layerId = "E64FF656-58E6-4C13-B3CC-343A43FBFB06";
paths = (
{
closed = 1;
nodes = (
"473 -621 LINE",
"618 -621 LINE",
"618 729 LINE",
"1461 729 LINE",
"1461 874 LINE",
"473 874 LINE"
);
},
{
closed = 1;
nodes = (
"833 -621 LINE",
"978 -621 LINE",
"978 369 LINE",
"1461 369 LINE",
"1461 514 LINE",
"833 514 LINE"
);
}
);
width = 1451;
}
);
note = uni2554;
unicode = 2554;
},
{
glyphname = uni2555;
lastChange = "2019-11-19 22:35:12 +0000";
layers = (
{
layerId = "E64FF656-58E6-4C13-B3CC-343A43FBFB06";
paths = (
{
closed = 1;
nodes = (
"653 369 LINE",
"653 -621 LINE",
"798 -621 LINE",
"798 874 LINE",
"-10 874 LINE",
"-10 729 LINE",
"653 729 LINE",
"653 514 LINE",
"-10 514 LINE",
"-10 369 LINE"
);
}
);
width = 1451;
}
);
note = uni2555;
unicode = 2555;
},
{
glyphname = uni2556;
lastChange = "2019-11-19 22:35:12 +0000";
layers = (
{
layerId = "E64FF656-58E6-4C13-B3CC-343A43FBFB06";
paths = (
{
closed = 1;
nodes = (
"473 549 LINE",
"473 -621 LINE",
"618 -621 LINE",
"618 549 LINE",
"833 549 LINE",
"833 -621 LINE",
"978 -621 LINE",
"978 694 LINE",
"-10 694 LINE",
"-10 549 LINE"
);
}
);
width = 1451;
}
);
note = uni2556;
unicode = 2556;
},
{
glyphname = uni2557;
lastChange = "2019-11-19 22:35:12 +0000";
layers = (
{
layerId = "E64FF656-58E6-4C13-B3CC-343A43FBFB06";
paths = (
{
closed = 1;
nodes = (
"-10 874 LINE",
"-10 729 LINE",
"833 729 LINE",
"833 -621 LINE",
"978 -621 LINE",
"978 874 LINE"
);
},
{
closed = 1;
nodes = (
"618 514 LINE",
"-10 514 LINE",
"-10 369 LINE",
"473 369 LINE",
"473 -621 LINE",
"618 -621 LINE"
);
}
);
width = 1451;
}
);
note = uni2557;
unicode = 2557;
},
{
glyphname = uni2558;
lastChange = "2019-11-19 22:35:12 +0000";
layers = (
{
layerId = "E64FF656-58E6-4C13-B3CC-343A43FBFB06";
paths = (
{
closed = 1;
nodes = (
"653 369 LINE",
"1461 369 LINE",
"1461 514 LINE",
"798 514 LINE",
"798 729 LINE",
"1461 729 LINE",
"1461 874 LINE",
"798 874 LINE",
"798 1864 LINE",
"653 1864 LINE"
);
}
);
width = 1451;
}
);
note = uni2558;
unicode = 2558;
},
{
glyphname = uni2559;
lastChange = "2019-11-19 22:35:12 +0000";
layers = (
{
layerId = "E64FF656-58E6-4C13-B3CC-343A43FBFB06";
paths = (
{
closed = 1;
nodes = (
"833 694 LINE",
"618 694 LINE",
"618 1864 LINE",
"473 1864 LINE",
"473 549 LINE",
"1461 549 LINE",
"1461 694 LINE",
"978 694 LINE",
"978 1864 LINE",
"833 1864 LINE"
);
}
);
width = 1451;
}
);
note = uni2559;
unicode = 2559;
},
{
glyphname = uni255A;
lastChange = "2019-11-19 22:35:12 +0000";
layers = (
{
layerId = "E64FF656-58E6-4C13-B3CC-343A43FBFB06";
paths = (
{
closed = 1;
nodes = (
"473 369 LINE",
"1461 369 LINE",
"1461 514 LINE",
"618 514 LINE",
"618 1864 LINE",
"473 1864 LINE"
);
},
{
closed = 1;
nodes = (
"833 729 LINE",
"1461 729 LINE",
"1461 874 LINE",
"978 874 LINE",
"978 1864 LINE",
"833 1864 LINE"
);
}
);
width = 1451;
}
);
note = uni255A;
unicode = 255A;
},
{
glyphname = uni255B;
lastChange = "2019-11-19 22:35:12 +0000";
layers = (
{
layerId = "E64FF656-58E6-4C13-B3CC-343A43FBFB06";
paths = (
{
closed = 1;
nodes = (
"798 369 LINE",
"798 1864 LINE",
"653 1864 LINE",
"653 874 LINE",
"-10 874 LINE",
"-10 729 LINE",
"653 729 LINE",
"653 514 LINE",
"-10 514 LINE",
"-10 369 LINE"
);
}
);
width = 1451;
}
);
note = uni255B;
unicode = 255B;
},
{
glyphname = uni255C;
lastChange = "2019-11-19 22:35:12 +0000";
layers = (
{
layerId = "E64FF656-58E6-4C13-B3CC-343A43FBFB06";
paths = (
{
closed = 1;
nodes = (
"978 1864 LINE",
"833 1864 LINE",
"833 694 LINE",
"618 694 LINE",
"618 1864 LINE",
"473 1864 LINE",
"473 694 LINE",
"-10 694 LINE",
"-10 549 LINE",
"978 549 LINE"
);
}
);
width = 1451;
}
);
note = uni255C;
unicode = 255C;
},
{
glyphname = uni255D;
lastChange = "2019-11-19 22:35:12 +0000";
layers = (
{
layerId = "E64FF656-58E6-4C13-B3CC-343A43FBFB06";
paths = (
{
closed = 1;
nodes = (
"978 1864 LINE",
"833 1864 LINE",
"833 514 LINE",
"-10 514 LINE",
"-10 369 LINE",
"978 369 LINE"
);
},
{
closed = 1;
nodes = (
"473 874 LINE",
"-10 874 LINE",
"-10 729 LINE",
"618 729 LINE",
"618 1864 LINE",
"473 1864 LINE"
);
}
);
width = 1451;
}
);
note = uni255D;
unicode = 255D;
},
{
glyphname = uni255E;
lastChange = "2019-11-19 22:35:12 +0000";
layers = (
{
layerId = "E64FF656-58E6-4C13-B3CC-343A43FBFB06";
paths = (
{
closed = 1;
nodes = (
"653 -621 LINE",
"798 -621 LINE",
"798 369 LINE",
"1461 369 LINE",
"1461 514 LINE",
"798 514 LINE",
"798 729 LINE",
"1461 729 LINE",
"1461 874 LINE",
"798 874 LINE",
"798 1864 LINE",
"653 1864 LINE"
);
}
);
width = 1451;
}
);
note = uni255E;
unicode = 255E;
},
{
glyphname = uni255F;
lastChange = "2019-11-19 22:35:12 +0000";
layers = (
{
layerId = "E64FF656-58E6-4C13-B3CC-343A43FBFB06";
paths = (
{
closed = 1;
nodes = (
"833 -621 LINE",
"978 -621 LINE",
"978 549 LINE",
"1461 549 LINE",
"1461 694 LINE",
"978 694 LINE",
"978 1864 LINE",
"833 1864 LINE"
);
},
{
closed = 1;
nodes = (
"473 -621 LINE",
"618 -621 LINE",
"618 1864 LINE",
"473 1864 LINE"
);
}
);
width = 1451;
}
);
note = uni255F;
unicode = 255F;
},
{
glyphname = uni2560;
lastChange = "2019-11-19 22:35:12 +0000";
layers = (
{
layerId = "E64FF656-58E6-4C13-B3CC-343A43FBFB06";
paths = (
{
closed = 1;
nodes = (
"618 1864 LINE",
"473 1864 LINE",
"473 -621 LINE",
"618 -621 LINE"
);
},
{
closed = 1;
nodes = (
"833 -621 LINE",
"978 -621 LINE",
"978 369 LINE",
"1461 369 LINE",
"1461 514 LINE",
"833 514 LINE"
);
},
{
closed = 1;
nodes = (
"833 729 LINE",
"1461 729 LINE",
"1461 874 LINE",
"978 874 LINE",
"978 1864 LINE",
"833 1864 LINE"
);
}
);
width = 1451;
}
);
note = uni2560;
unicode = 2560;
},
{
glyphname = uni2561;
lastChange = "2019-11-19 22:35:12 +0000";
layers = (
{
layerId = "E64FF656-58E6-4C13-B3CC-343A43FBFB06";
paths = (
{
closed = 1;
nodes = (
"653 369 LINE",
"653 -621 LINE",
"798 -621 LINE",
"798 1864 LINE",
"653 1864 LINE",
"653 874 LINE",
"-10 874 LINE",
"-10 729 LINE",
"653 729 LINE",
"653 514 LINE",
"-10 514 LINE",
"-10 369 LINE"
);
}
);
width = 1451;
}
);
note = uni2561;
unicode = 2561;
},
{
glyphname = uni2562;
lastChange = "2019-11-19 22:35:12 +0000";
layers = (
{
layerId = "E64FF656-58E6-4C13-B3CC-343A43FBFB06";
paths = (
{
closed = 1;
nodes = (
"473 549 LINE",
"473 -621 LINE",
"618 -621 LINE",
"618 1864 LINE",
"473 1864 LINE",
"473 694 LINE",
"-10 694 LINE",
"-10 549 LINE"
);
},
{
closed = 1;
nodes = (
"833 -621 LINE",
"978 -621 LINE",
"978 1864 LINE",
"833 1864 LINE"
);
}
);
width = 1451;
}
);
note = uni2562;
unicode = 2562;
},
{
glyphname = uni2563;
lastChange = "2019-11-19 22:35:12 +0000";
layers = (
{
layerId = "E64FF656-58E6-4C13-B3CC-343A43FBFB06";
paths = (
{
closed = 1;
nodes = (
"833 -621 LINE",
"978 -621 LINE",
"978 1864 LINE",
"833 1864 LINE"
);
},
{
closed = 1;
nodes = (
"473 874 LINE",
"-10 874 LINE",
"-10 729 LINE",
"618 729 LINE",
"618 1864 LINE",
"473 1864 LINE"
);
},
{
closed = 1;
nodes = (
"618 514 LINE",
"-10 514 LINE",
"-10 369 LINE",
"473 369 LINE",
"473 -621 LINE",
"618 -621 LINE"
);
}
);
width = 1451;
}
);
note = uni2563;
unicode = 2563;
},
{
glyphname = uni2564;
lastChange = "2019-11-19 22:35:12 +0000";
layers = (
{
layerId = "E64FF656-58E6-4C13-B3CC-343A43FBFB06";
paths = (
{
closed = 1;
nodes = (
"653 369 LINE",
"653 -621 LINE",
"798 -621 LINE",
"798 369 LINE",
"1461 369 LINE",
"1461 514 LINE",
"-10 514 LINE",
"-10 369 LINE"
);
},
{
closed = 1;
nodes = (
"1461 729 LINE",
"1461 874 LINE",
"-10 874 LINE",
"-10 729 LINE"
);
}
);
width = 1451;
}
);
note = uni2564;
unicode = 2564;
},
{
glyphname = uni2565;
lastChange = "2019-11-19 22:35:12 +0000";
layers = (
{
layerId = "E64FF656-58E6-4C13-B3CC-343A43FBFB06";
paths = (
{
closed = 1;
nodes = (
"473 549 LINE",
"473 -621 LINE",
"618 -621 LINE",
"618 549 LINE",
"833 549 LINE",
"833 -621 LINE",
"978 -621 LINE",
"978 549 LINE",
"1461 549 LINE",
"1461 694 LINE",
"-10 694 LINE",
"-10 549 LINE"
);
}
);
width = 1451;
}
);
note = uni2565;
unicode = 2565;
},
{
glyphname = uni2566;
lastChange = "2019-11-19 22:35:12 +0000";
layers = (
{
layerId = "E64FF656-58E6-4C13-B3CC-343A43FBFB06";
paths = (
{
closed = 1;
nodes = (
"618 514 LINE",
"-10 514 LINE",
"-10 369 LINE",
"473 369 LINE",
"473 -621 LINE",
"618 -621 LINE"
);
},
{
closed = 1;
nodes = (
"833 -621 LINE",
"978 -621 LINE",
"978 369 LINE",
"1461 369 LINE",
"1461 514 LINE",
"833 514 LINE"
);
},
{
closed = 1;
nodes = (
"-10 874 LINE",
"-10 729 LINE",
"1461 729 LINE",
"1461 874 LINE"
);
}
);
width = 1451;
}
);
note = uni2566;
unicode = 2566;
},
{
glyphname = uni2567;
lastChange = "2019-11-19 22:35:12 +0000";
layers = (
{
layerId = "E64FF656-58E6-4C13-B3CC-343A43FBFB06";
paths = (
{
closed = 1;
nodes = (
"1461 729 LINE",
"1461 874 LINE",
"798 874 LINE",
"798 1864 LINE",
"653 1864 LINE",
"653 874 LINE",
"-10 874 LINE",
"-10 729 LINE"
);
},
{
closed = 1;
nodes = (
"1461 369 LINE",
"1461 514 LINE",
"-10 514 LINE",
"-10 369 LINE"
);
}
);
width = 1451;
}
);
note = uni2567;
unicode = 2567;
},
{
glyphname = uni2568;
lastChange = "2019-11-19 22:35:12 +0000";
layers = (
{
layerId = "E64FF656-58E6-4C13-B3CC-343A43FBFB06";
paths = (
{
closed = 1;
nodes = (
"1461 549 LINE",
"1461 694 LINE",
"978 694 LINE",
"978 1864 LINE",
"833 1864 LINE",
"833 694 LINE",
"618 694 LINE",
"618 1864 LINE",
"473 1864 LINE",
"473 694 LINE",
"-10 694 LINE",
"-10 549 LINE"
);
}
);
width = 1451;
}
);
note = uni2568;
unicode = 2568;
},
{
glyphname = uni2569;
lastChange = "2019-11-19 22:35:12 +0000";
layers = (
{
layerId = "E64FF656-58E6-4C13-B3CC-343A43FBFB06";
paths = (
{
closed = 1;
nodes = (
"833 729 LINE",
"1461 729 LINE",
"1461 874 LINE",
"978 874 LINE",
"978 1864 LINE",
"833 1864 LINE"
);
},
{
closed = 1;
nodes = (
"473 874 LINE",
"-10 874 LINE",
"-10 729 LINE",
"618 729 LINE",
"618 1864 LINE",
"473 1864 LINE"
);
},
{
closed = 1;
nodes = (
"1461 369 LINE",
"1461 514 LINE",
"-10 514 LINE",
"-10 369 LINE"
);
}
);
width = 1451;
}
);
note = uni2569;
unicode = 2569;
},
{
glyphname = uni256A;
lastChange = "2019-11-19 22:35:12 +0000";
layers = (
{
layerId = "E64FF656-58E6-4C13-B3CC-343A43FBFB06";
paths = (
{
closed = 1;
nodes = (
"653 369 LINE",
"653 -621 LINE",
"798 -621 LINE",
"798 369 LINE",
"1461 369 LINE",
"1461 514 LINE",
"798 514 LINE",
"798 729 LINE",
"1461 729 LINE",
"1461 874 LINE",
"798 874 LINE",
"798 1864 LINE",
"653 1864 LINE",
"653 874 LINE",
"-10 874 LINE",
"-10 729 LINE",
"653 729 LINE",
"653 514 LINE",
"-10 514 LINE",
"-10 369 LINE"
);
}
);
width = 1451;
}
);
note = uni256A;
unicode = 256A;
},
{
glyphname = uni256B;
lastChange = "2019-11-19 22:35:12 +0000";
layers = (
{
layerId = "E64FF656-58E6-4C13-B3CC-343A43FBFB06";
paths = (
{
closed = 1;
nodes = (
"833 694 LINE",
"618 694 LINE",
"618 1864 LINE",
"473 1864 LINE",
"473 694 LINE",
"-10 694 LINE",
"-10 549 LINE",
"473 549 LINE",
"473 -621 LINE",
"618 -621 LINE",
"618 549 LINE",
"833 549 LINE",
"833 -621 LINE",
"978 -621 LINE",
"978 549 LINE",
"1461 549 LINE",
"1461 694 LINE",
"978 694 LINE",
"978 1864 LINE",
"833 1864 LINE"
);
}
);
width = 1451;
}
);
note = uni256B;
unicode = 256B;
},
{
glyphname = uni256C;
lastChange = "2019-11-19 22:35:12 +0000";
layers = (
{
layerId = "E64FF656-58E6-4C13-B3CC-343A43FBFB06";
paths = (
{
closed = 1;
nodes = (
"833 729 LINE",
"1461 729 LINE",
"1461 874 LINE",
"978 874 LINE",
"978 1864 LINE",
"833 1864 LINE"
);
},
{
closed = 1;
nodes = (
"618 514 LINE",
"-10 514 LINE",
"-10 369 LINE",
"473 369 LINE",
"473 -621 LINE",
"618 -621 LINE"
);
},
{
closed = 1;
nodes = (
"833 -621 LINE",
"978 -621 LINE",
"978 369 LINE",
"1461 369 LINE",
"1461 514 LINE",
"833 514 LINE"
);
},
{
closed = 1;
nodes = (
"473 874 LINE",
"-10 874 LINE",
"-10 729 LINE",
"618 729 LINE",
"618 1864 LINE",
"473 1864 LINE"
);
}
);
width = 1451;
}
);
note = uni256C;
unicode = 256C;
},
{
glyphname = upblock;
lastChange = "2019-11-19 22:35:12 +0000";
layers = (
{
layerId = "E64FF656-58E6-4C13-B3CC-343A43FBFB06";
paths = (
{
closed = 1;
nodes = (
"1451 1864 LINE",
"0 1864 LINE",
"0 621 LINE",
"1451 621 LINE"
);
}
);
width = 1451;
}
);
note = upblock;
unicode = 2580;
},
{
glyphname = dnblock;
lastChange = "2019-11-19 22:35:12 +0000";
layers = (
{
layerId = "E64FF656-58E6-4C13-B3CC-343A43FBFB06";
paths = (
{
closed = 1;
nodes = (
"1451 621 LINE",
"0 621 LINE",
"0 -621 LINE",
"1451 -621 LINE"
);
}
);
width = 1451;
}
);
note = dnblock;
unicode = 2584;
},
{
glyphname = block;
lastChange = "2019-11-19 22:35:12 +0000";
layers = (
{
layerId = "E64FF656-58E6-4C13-B3CC-343A43FBFB06";
paths = (
{
closed = 1;
nodes = (
"1451 1864 LINE",
"0 1864 LINE",
"0 -621 LINE",
"1451 -621 LINE"
);
}
);
width = 1451;
}
);
note = block;
unicode = 2588;
},
{
glyphname = lfblock;
lastChange = "2019-11-19 22:35:12 +0000";
layers = (
{
layerId = "E64FF656-58E6-4C13-B3CC-343A43FBFB06";
paths = (
{
closed = 1;
nodes = (
"726 1864 LINE",
"0 1864 LINE",
"0 -621 LINE",
"726 -621 LINE"
);
}
);
width = 1451;
}
);
note = lfblock;
unicode = 258C;
},
{
glyphname = rtblock;
lastChange = "2019-11-19 22:35:12 +0000";
layers = (
{
layerId = "E64FF656-58E6-4C13-B3CC-343A43FBFB06";
paths = (
{
closed = 1;
nodes = (
"1451 1864 LINE",
"725 1864 LINE",
"725 -621 LINE",
"1451 -621 LINE"
);
}
);
width = 1451;
}
);
note = rtblock;
unicode = 2590;
},
{
glyphname = ltshade;
lastChange = "2019-11-19 22:35:12 +0000";
layers = (
{
layerId = "E64FF656-58E6-4C13-B3CC-343A43FBFB06";
paths = (
{
closed = 1;
nodes = (
"103 1216 LINE",
"207 1216 LINE",
"207 1314 LINE",
"103 1314 LINE"
);
},
{
closed = 1;
nodes = (
"517 1216 LINE",
"621 1216 LINE",
"621 1314 LINE",
"517 1314 LINE"
);
},
{
closed = 1;
nodes = (
"933 1216 LINE",
"1036 1216 LINE",
"1036 1314 LINE",
"933 1314 LINE"
);
},
{
closed = 1;
nodes = (
"310 1023 LINE",
"414 1023 LINE",
"414 1119 LINE",
"310 1119 LINE"
);
},
{
closed = 1;
nodes = (
"725 1023 LINE",
"829 1023 LINE",
"829 1119 LINE",
"725 1119 LINE"
);
},
{
closed = 1;
nodes = (
"1140 1023 LINE",
"1244 1023 LINE",
"1244 1119 LINE",
"1140 1119 LINE"
);
},
{
closed = 1;
nodes = (
"933 831 LINE",
"1036 831 LINE",
"1036 927 LINE",
"933 927 LINE"
);
},
{
closed = 1;
nodes = (
"517 831 LINE",
"621 831 LINE",
"621 927 LINE",
"517 927 LINE"
);
},
{
closed = 1;
nodes = (
"103 831 LINE",
"207 831 LINE",
"207 927 LINE",
"103 927 LINE"
);
},
{
closed = 1;
nodes = (
"1140 636 LINE",
"1244 636 LINE",
"1244 732 LINE",
"1140 732 LINE"
);
},
{
closed = 1;
nodes = (
"725 636 LINE",
"829 636 LINE",
"829 732 LINE",
"725 732 LINE"
);
},
{
closed = 1;
nodes = (
"310 636 LINE",
"414 636 LINE",
"414 732 LINE",
"310 732 LINE"
);
},
{
closed = 1;
nodes = (
"103 444 LINE",
"207 444 LINE",
"207 540 LINE",
"103 540 LINE"
);
},
{
closed = 1;
nodes = (
"517 444 LINE",
"621 444 LINE",
"621 540 LINE",
"517 540 LINE"
);
},
{
closed = 1;
nodes = (
"933 444 LINE",
"1036 444 LINE",
"1036 540 LINE",
"933 540 LINE"
);
},
{
closed = 1;
nodes = (
"1140 249 LINE",
"1244 249 LINE",
"1244 345 LINE",
"1140 345 LINE"
);
},
{
closed = 1;
nodes = (
"725 249 LINE",
"829 249 LINE",
"829 345 LINE",
"725 345 LINE"
);
},
{
closed = 1;
nodes = (
"310 249 LINE",
"414 249 LINE",
"414 345 LINE",
"310 345 LINE"
);
},
{
closed = 1;
nodes = (
"103 56 LINE",
"207 56 LINE",
"207 153 LINE",
"103 153 LINE"
);
},
{
closed = 1;
nodes = (
"517 56 LINE",
"621 56 LINE",
"621 153 LINE",
"517 153 LINE"
);
},
{
closed = 1;
nodes = (
"933 56 LINE",
"1036 56 LINE",
"1036 153 LINE",
"933 153 LINE"
);
},
{
closed = 1;
nodes = (
"310 -136 LINE",
"414 -136 LINE",
"414 -42 LINE",
"310 -42 LINE"
);
},
{
closed = 1;
nodes = (
"725 -136 LINE",
"829 -136 LINE",
"829 -42 LINE",
"725 -42 LINE"
);
},
{
closed = 1;
nodes = (
"1140 -136 LINE",
"1244 -136 LINE",
"1244 -42 LINE",
"1140 -42 LINE"
);
},
{
closed = 1;
nodes = (
"933 -331 LINE",
"1036 -331 LINE",
"1036 -234 LINE",
"933 -234 LINE"
);
},
{
closed = 1;
nodes = (
"517 -331 LINE",
"621 -331 LINE",
"621 -234 LINE",
"517 -234 LINE"
);
},
{
closed = 1;
nodes = (
"103 -331 LINE",
"207 -331 LINE",
"207 -234 LINE",
"103 -234 LINE"
);
},
{
closed = 1;
nodes = (
"310 -523 LINE",
"414 -523 LINE",
"414 -427 LINE",
"310 -427 LINE"
);
},
{
closed = 1;
nodes = (
"725 -523 LINE",
"829 -523 LINE",
"829 -427 LINE",
"725 -427 LINE"
);
},
{
closed = 1;
nodes = (
"1140 -523 LINE",
"1244 -523 LINE",
"1244 -427 LINE",
"1140 -427 LINE"
);
},
{
closed = 1;
nodes = (
"310 1408 LINE",
"414 1408 LINE",
"414 1506 LINE",
"310 1506 LINE"
);
},
{
closed = 1;
nodes = (
"725 1408 LINE",
"829 1408 LINE",
"829 1506 LINE",
"725 1506 LINE"
);
},
{
closed = 1;
nodes = (
"1140 1408 LINE",
"1244 1408 LINE",
"1244 1506 LINE",
"1140 1506 LINE"
);
},
{
closed = 1;
nodes = (
"103 1603 LINE",
"207 1603 LINE",
"207 1699 LINE",
"103 1699 LINE"
);
},
{
closed = 1;
nodes = (
"517 1603 LINE",
"621 1603 LINE",
"621 1699 LINE",
"517 1699 LINE"
);
},
{
closed = 1;
nodes = (
"933 1603 LINE",
"1036 1603 LINE",
"1036 1699 LINE",
"933 1699 LINE"
);
},
{
closed = 1;
nodes = (
"1347 1216 LINE",
"1451 1216 LINE",
"1451 1314 LINE",
"1347 1314 LINE"
);
},
{
closed = 1;
nodes = (
"1347 831 LINE",
"1451 831 LINE",
"1451 927 LINE",
"1347 927 LINE"
);
},
{
closed = 1;
nodes = (
"1347 444 LINE",
"1451 444 LINE",
"1451 540 LINE",
"1347 540 LINE"
);
},
{
closed = 1;
nodes = (
"1347 56 LINE",
"1451 56 LINE",
"1451 153 LINE",
"1347 153 LINE"
);
},
{
closed = 1;
nodes = (
"1347 -331 LINE",
"1451 -331 LINE",
"1451 -234 LINE",
"1347 -234 LINE"
);
},
{
closed = 1;
nodes = (
"1347 1603 LINE",
"1451 1603 LINE",
"1451 1699 LINE",
"1347 1699 LINE"
);
}
);
width = 1451;
}
);
note = ltshade;
unicode = 2591;
},
{
glyphname = shade;
lastChange = "2019-11-19 22:35:12 +0000";
layers = (
{
layerId = "E64FF656-58E6-4C13-B3CC-343A43FBFB06";
paths = (
{
closed = 1;
nodes = (
"103 1216 LINE",
"207 1216 LINE",
"207 1314 LINE",
"103 1314 LINE"
);
},
{
closed = 1;
nodes = (
"310 1216 LINE",
"414 1216 LINE",
"414 1314 LINE",
"310 1314 LINE"
);
},
{
closed = 1;
nodes = (
"517 1216 LINE",
"621 1216 LINE",
"621 1314 LINE",
"517 1314 LINE"
);
},
{
closed = 1;
nodes = (
"725 1216 LINE",
"829 1216 LINE",
"829 1314 LINE",
"725 1314 LINE"
);
},
{
closed = 1;
nodes = (
"933 1216 LINE",
"1037 1216 LINE",
"1037 1314 LINE",
"933 1314 LINE"
);
},
{
closed = 1;
nodes = (
"1140 1216 LINE",
"1244 1216 LINE",
"1244 1314 LINE",
"1140 1314 LINE"
);
},
{
closed = 1;
nodes = (
"0 1023 LINE",
"103 1023 LINE",
"103 1119 LINE",
"0 1119 LINE"
);
},
{
closed = 1;
nodes = (
"207 1023 LINE",
"310 1023 LINE",
"310 1119 LINE",
"207 1119 LINE"
);
},
{
closed = 1;
nodes = (
"414 1023 LINE",
"517 1023 LINE",
"517 1119 LINE",
"414 1119 LINE"
);
},
{
closed = 1;
nodes = (
"621 1023 LINE",
"725 1023 LINE",
"725 1119 LINE",
"621 1119 LINE"
);
},
{
closed = 1;
nodes = (
"829 1023 LINE",
"933 1023 LINE",
"933 1119 LINE",
"829 1119 LINE"
);
},
{
closed = 1;
nodes = (
"1037 1023 LINE",
"1140 1023 LINE",
"1140 1119 LINE",
"1037 1119 LINE"
);
},
{
closed = 1;
nodes = (
"103 831 LINE",
"207 831 LINE",
"207 927 LINE",
"103 927 LINE"
);
},
{
closed = 1;
nodes = (
"310 831 LINE",
"414 831 LINE",
"414 927 LINE",
"310 927 LINE"
);
},
{
closed = 1;
nodes = (
"517 831 LINE",
"621 831 LINE",
"621 927 LINE",
"517 927 LINE"
);
},
{
closed = 1;
nodes = (
"725 831 LINE",
"829 831 LINE",
"829 927 LINE",
"725 927 LINE"
);
},
{
closed = 1;
nodes = (
"933 831 LINE",
"1037 831 LINE",
"1037 927 LINE",
"933 927 LINE"
);
},
{
closed = 1;
nodes = (
"1140 831 LINE",
"1244 831 LINE",
"1244 927 LINE",
"1140 927 LINE"
);
},
{
closed = 1;
nodes = (
"0 636 LINE",
"103 636 LINE",
"103 732 LINE",
"0 732 LINE"
);
},
{
closed = 1;
nodes = (
"207 636 LINE",
"310 636 LINE",
"310 732 LINE",
"207 732 LINE"
);
},
{
closed = 1;
nodes = (
"414 636 LINE",
"517 636 LINE",
"517 732 LINE",
"414 732 LINE"
);
},
{
closed = 1;
nodes = (
"621 636 LINE",
"725 636 LINE",
"725 732 LINE",
"621 732 LINE"
);
},
{
closed = 1;
nodes = (
"829 636 LINE",
"933 636 LINE",
"933 732 LINE",
"829 732 LINE"
);
},
{
closed = 1;
nodes = (
"1037 636 LINE",
"1140 636 LINE",
"1140 732 LINE",
"1037 732 LINE"
);
},
{
closed = 1;
nodes = (
"103 444 LINE",
"207 444 LINE",
"207 540 LINE",
"103 540 LINE"
);
},
{
closed = 1;
nodes = (
"310 444 LINE",
"414 444 LINE",
"414 540 LINE",
"310 540 LINE"
);
},
{
closed = 1;
nodes = (
"517 444 LINE",
"621 444 LINE",
"621 540 LINE",
"517 540 LINE"
);
},
{
closed = 1;
nodes = (
"725 444 LINE",
"829 444 LINE",
"829 540 LINE",
"725 540 LINE"
);
},
{
closed = 1;
nodes = (
"933 444 LINE",
"1037 444 LINE",
"1037 540 LINE",
"933 540 LINE"
);
},
{
closed = 1;
nodes = (
"1140 444 LINE",
"1244 444 LINE",
"1244 540 LINE",
"1140 540 LINE"
);
},
{
closed = 1;
nodes = (
"0 249 LINE",
"103 249 LINE",
"103 345 LINE",
"0 345 LINE"
);
},
{
closed = 1;
nodes = (
"414 249 LINE",
"517 249 LINE",
"517 345 LINE",
"414 345 LINE"
);
},
{
closed = 1;
nodes = (
"621 249 LINE",
"725 249 LINE",
"725 345 LINE",
"621 345 LINE"
);
},
{
closed = 1;
nodes = (
"829 249 LINE",
"933 249 LINE",
"933 345 LINE",
"829 345 LINE"
);
},
{
closed = 1;
nodes = (
"1037 249 LINE",
"1140 249 LINE",
"1140 345 LINE",
"1037 345 LINE"
);
},
{
closed = 1;
nodes = (
"207 249 LINE",
"310 249 LINE",
"310 345 LINE",
"207 345 LINE"
);
},
{
closed = 1;
nodes = (
"1140 56 LINE",
"1244 56 LINE",
"1244 153 LINE",
"1140 153 LINE"
);
},
{
closed = 1;
nodes = (
"933 56 LINE",
"1037 56 LINE",
"1037 153 LINE",
"933 153 LINE"
);
},
{
closed = 1;
nodes = (
"725 56 LINE",
"829 56 LINE",
"829 153 LINE",
"725 153 LINE"
);
},
{
closed = 1;
nodes = (
"517 56 LINE",
"621 56 LINE",
"621 153 LINE",
"517 153 LINE"
);
},
{
closed = 1;
nodes = (
"310 56 LINE",
"414 56 LINE",
"414 153 LINE",
"310 153 LINE"
);
},
{
closed = 1;
nodes = (
"103 56 LINE",
"207 56 LINE",
"207 153 LINE",
"103 153 LINE"
);
},
{
closed = 1;
nodes = (
"0 -136 LINE",
"103 -136 LINE",
"103 -42 LINE",
"0 -42 LINE"
);
},
{
closed = 1;
nodes = (
"207 -136 LINE",
"310 -136 LINE",
"310 -42 LINE",
"207 -42 LINE"
);
},
{
closed = 1;
nodes = (
"414 -136 LINE",
"517 -136 LINE",
"517 -42 LINE",
"414 -42 LINE"
);
},
{
closed = 1;
nodes = (
"621 -136 LINE",
"725 -136 LINE",
"725 -42 LINE",
"621 -42 LINE"
);
},
{
closed = 1;
nodes = (
"829 -136 LINE",
"933 -136 LINE",
"933 -42 LINE",
"829 -42 LINE"
);
},
{
closed = 1;
nodes = (
"1037 -136 LINE",
"1140 -136 LINE",
"1140 -42 LINE",
"1037 -42 LINE"
);
},
{
closed = 1;
nodes = (
"1140 -331 LINE",
"1244 -331 LINE",
"1244 -234 LINE",
"1140 -234 LINE"
);
},
{
closed = 1;
nodes = (
"933 -331 LINE",
"1037 -331 LINE",
"1037 -234 LINE",
"933 -234 LINE"
);
},
{
closed = 1;
nodes = (
"725 -331 LINE",
"829 -331 LINE",
"829 -234 LINE",
"725 -234 LINE"
);
},
{
closed = 1;
nodes = (
"517 -331 LINE",
"621 -331 LINE",
"621 -234 LINE",
"517 -234 LINE"
);
},
{
closed = 1;
nodes = (
"310 -331 LINE",
"414 -331 LINE",
"414 -234 LINE",
"310 -234 LINE"
);
},
{
closed = 1;
nodes = (
"103 -331 LINE",
"207 -331 LINE",
"207 -234 LINE",
"103 -234 LINE"
);
},
{
closed = 1;
nodes = (
"0 -523 LINE",
"103 -523 LINE",
"103 -427 LINE",
"0 -427 LINE"
);
},
{
closed = 1;
nodes = (
"207 -523 LINE",
"310 -523 LINE",
"310 -427 LINE",
"207 -427 LINE"
);
},
{
closed = 1;
nodes = (
"414 -523 LINE",
"517 -523 LINE",
"517 -427 LINE",
"414 -427 LINE"
);
},
{
closed = 1;
nodes = (
"621 -523 LINE",
"725 -523 LINE",
"725 -427 LINE",
"621 -427 LINE"
);
},
{
closed = 1;
nodes = (
"829 -523 LINE",
"933 -523 LINE",
"933 -427 LINE",
"829 -427 LINE"
);
},
{
closed = 1;
nodes = (
"1037 -523 LINE",
"1140 -523 LINE",
"1140 -427 LINE",
"1037 -427 LINE"
);
},
{
closed = 1;
nodes = (
"0 1408 LINE",
"103 1408 LINE",
"103 1506 LINE",
"0 1506 LINE"
);
},
{
closed = 1;
nodes = (
"207 1408 LINE",
"310 1408 LINE",
"310 1506 LINE",
"207 1506 LINE"
);
},
{
closed = 1;
nodes = (
"414 1408 LINE",
"517 1408 LINE",
"517 1506 LINE",
"414 1506 LINE"
);
},
{
closed = 1;
nodes = (
"621 1408 LINE",
"725 1408 LINE",
"725 1506 LINE",
"621 1506 LINE"
);
},
{
closed = 1;
nodes = (
"829 1408 LINE",
"933 1408 LINE",
"933 1506 LINE",
"829 1506 LINE"
);
},
{
closed = 1;
nodes = (
"1037 1408 LINE",
"1140 1408 LINE",
"1140 1506 LINE",
"1037 1506 LINE"
);
},
{
closed = 1;
nodes = (
"103 1603 LINE",
"207 1603 LINE",
"207 1699 LINE",
"103 1699 LINE"
);
},
{
closed = 1;
nodes = (
"310 1603 LINE",
"414 1603 LINE",
"414 1699 LINE",
"310 1699 LINE"
);
},
{
closed = 1;
nodes = (
"517 1603 LINE",
"621 1603 LINE",
"621 1699 LINE",
"517 1699 LINE"
);
},
{
closed = 1;
nodes = (
"725 1603 LINE",
"829 1603 LINE",
"829 1699 LINE",
"725 1699 LINE"
);
},
{
closed = 1;
nodes = (
"933 1603 LINE",
"1037 1603 LINE",
"1037 1699 LINE",
"933 1699 LINE"
);
},
{
closed = 1;
nodes = (
"1140 1603 LINE",
"1244 1603 LINE",
"1244 1699 LINE",
"1140 1699 LINE"
);
},
{
closed = 1;
nodes = (
"1347 1216 LINE",
"1451 1216 LINE",
"1451 1314 LINE",
"1347 1314 LINE"
);
},
{
closed = 1;
nodes = (
"1244 1023 LINE",
"1347 1023 LINE",
"1347 1119 LINE",
"1244 1119 LINE"
);
},
{
closed = 1;
nodes = (
"1347 831 LINE",
"1451 831 LINE",
"1451 927 LINE",
"1347 927 LINE"
);
},
{
closed = 1;
nodes = (
"1244 636 LINE",
"1347 636 LINE",
"1347 732 LINE",
"1244 732 LINE"
);
},
{
closed = 1;
nodes = (
"1347 444 LINE",
"1451 444 LINE",
"1451 540 LINE",
"1347 540 LINE"
);
},
{
closed = 1;
nodes = (
"1244 249 LINE",
"1347 249 LINE",
"1347 345 LINE",
"1244 345 LINE"
);
},
{
closed = 1;
nodes = (
"1347 56 LINE",
"1451 56 LINE",
"1451 153 LINE",
"1347 153 LINE"
);
},
{
closed = 1;
nodes = (
"1244 -136 LINE",
"1347 -136 LINE",
"1347 -42 LINE",
"1244 -42 LINE"
);
},
{
closed = 1;
nodes = (
"1347 -331 LINE",
"1451 -331 LINE",
"1451 -234 LINE",
"1347 -234 LINE"
);
},
{
closed = 1;
nodes = (
"1244 -523 LINE",
"1347 -523 LINE",
"1347 -427 LINE",
"1244 -427 LINE"
);
},
{
closed = 1;
nodes = (
"1244 1408 LINE",
"1347 1408 LINE",
"1347 1506 LINE",
"1244 1506 LINE"
);
},
{
closed = 1;
nodes = (
"1347 1603 LINE",
"1451 1603 LINE",
"1451 1699 LINE",
"1347 1699 LINE"
);
}
);
width = 1451;
}
);
note = shade;
unicode = 2592;
},
{
glyphname = dkshade;
lastChange = "2019-11-19 22:35:12 +0000";
layers = (
{
layerId = "E64FF656-58E6-4C13-B3CC-343A43FBFB06";
paths = (
{
closed = 1;
nodes = (
"1493 -523 LINE",
"1386 -523 LINE",
"1386 -427 LINE",
"1493 -427 LINE",
"1493 -136 LINE",
"1386 -136 LINE",
"1386 -42 LINE",
"1493 -42 LINE",
"1493 249 LINE",
"1386 249 LINE",
"1386 345 LINE",
"1493 345 LINE",
"1493 636 LINE",
"1386 636 LINE",
"1386 732 LINE",
"1493 732 LINE",
"1493 1023 LINE",
"1386 1023 LINE",
"1386 1119 LINE",
"1493 1119 LINE",
"1493 1408 LINE",
"1386 1408 LINE",
"1386 1506 LINE",
"1493 1506 LINE",
"1493 1699 LINE",
"1386 1699 LINE",
"1386 1603 LINE",
"1280 1603 LINE",
"1280 1699 LINE",
"1173 1699 LINE",
"1173 1603 LINE",
"1067 1603 LINE",
"1067 1699 LINE",
"960 1699 LINE",
"960 1603 LINE",
"853 1603 LINE",
"853 1699 LINE",
"746 1699 LINE",
"746 1603 LINE",
"639 1603 LINE",
"639 1699 LINE",
"532 1699 LINE",
"532 1603 LINE",
"426 1603 LINE",
"426 1699 LINE",
"319 1699 LINE",
"319 1603 LINE",
"213 1603 LINE",
"213 1699 LINE",
"106 1699 LINE",
"106 1603 LINE",
"0 1603 LINE",
"0 1314 LINE",
"106 1314 LINE",
"106 1216 LINE",
"0 1216 LINE",
"0 927 LINE",
"106 927 LINE",
"106 829 LINE",
"0 829 LINE",
"0 540 LINE",
"106 540 LINE",
"106 444 LINE",
"0 444 LINE",
"0 153 LINE",
"106 153 LINE",
"106 56 LINE",
"0 56 LINE",
"0 -234 LINE",
"106 -234 LINE",
"106 -331 LINE",
"0 -331 LINE",
"0 -621 LINE",
"1493 -621 LINE"
);
},
{
closed = 1;
nodes = (
"213 1119 LINE",
"213 1023 LINE",
"106 1023 LINE",
"106 1119 LINE"
);
},
{
closed = 1;
nodes = (
"426 1119 LINE",
"426 1023 LINE",
"319 1023 LINE",
"319 1119 LINE"
);
},
{
closed = 1;
nodes = (
"639 1119 LINE",
"639 1023 LINE",
"532 1023 LINE",
"532 1119 LINE"
);
},
{
closed = 1;
nodes = (
"853 1119 LINE",
"853 1023 LINE",
"746 1023 LINE",
"746 1119 LINE"
);
},
{
closed = 1;
nodes = (
"960 829 LINE",
"853 829 LINE",
"853 927 LINE",
"960 927 LINE"
);
},
{
closed = 1;
nodes = (
"746 829 LINE",
"639 829 LINE",
"639 927 LINE",
"746 927 LINE"
);
},
{
closed = 1;
nodes = (
"532 829 LINE",
"426 829 LINE",
"426 927 LINE",
"532 927 LINE"
);
},
{
closed = 1;
nodes = (
"319 829 LINE",
"213 829 LINE",
"213 927 LINE",
"319 927 LINE"
);
},
{
closed = 1;
nodes = (
"213 732 LINE",
"213 636 LINE",
"106 636 LINE",
"106 732 LINE"
);
},
{
closed = 1;
nodes = (
"426 732 LINE",
"426 636 LINE",
"319 636 LINE",
"319 732 LINE"
);
},
{
closed = 1;
nodes = (
"639 732 LINE",
"639 636 LINE",
"532 636 LINE",
"532 732 LINE"
);
},
{
closed = 1;
nodes = (
"853 732 LINE",
"853 636 LINE",
"746 636 LINE",
"746 732 LINE"
);
},
{
closed = 1;
nodes = (
"319 444 LINE",
"213 444 LINE",
"213 540 LINE",
"319 540 LINE"
);
},
{
closed = 1;
nodes = (
"532 540 LINE",
"532 444 LINE",
"426 444 LINE",
"426 540 LINE"
);
},
{
closed = 1;
nodes = (
"746 540 LINE",
"746 444 LINE",
"639 444 LINE",
"639 540 LINE"
);
},
{
closed = 1;
nodes = (
"960 540 LINE",
"960 444 LINE",
"853 444 LINE",
"853 540 LINE"
);
},
{
closed = 1;
nodes = (
"213 345 LINE",
"213 249 LINE",
"106 249 LINE",
"106 345 LINE"
);
},
{
closed = 1;
nodes = (
"639 345 LINE",
"639 249 LINE",
"532 249 LINE",
"532 345 LINE"
);
},
{
closed = 1;
nodes = (
"319 249 LINE",
"319 345 LINE",
"426 345 LINE",
"426 249 LINE"
);
},
{
closed = 1;
nodes = (
"853 345 LINE",
"853 249 LINE",
"746 249 LINE",
"746 345 LINE"
);
},
{
closed = 1;
nodes = (
"853 56 LINE",
"853 153 LINE",
"960 153 LINE",
"960 56 LINE"
);
},
{
closed = 1;
nodes = (
"639 56 LINE",
"639 153 LINE",
"746 153 LINE",
"746 56 LINE"
);
},
{
closed = 1;
nodes = (
"426 56 LINE",
"426 153 LINE",
"532 153 LINE",
"532 56 LINE"
);
},
{
closed = 1;
nodes = (
"213 56 LINE",
"213 153 LINE",
"319 153 LINE",
"319 56 LINE"
);
},
{
closed = 1;
nodes = (
"213 -42 LINE",
"213 -136 LINE",
"106 -136 LINE",
"106 -42 LINE"
);
},
{
closed = 1;
nodes = (
"426 -42 LINE",
"426 -136 LINE",
"319 -136 LINE",
"319 -42 LINE"
);
},
{
closed = 1;
nodes = (
"639 -42 LINE",
"639 -136 LINE",
"532 -136 LINE",
"532 -42 LINE"
);
},
{
closed = 1;
nodes = (
"853 -42 LINE",
"853 -136 LINE",
"746 -136 LINE",
"746 -42 LINE"
);
},
{
closed = 1;
nodes = (
"853 -331 LINE",
"853 -234 LINE",
"960 -234 LINE",
"960 -331 LINE"
);
},
{
closed = 1;
nodes = (
"639 -331 LINE",
"639 -234 LINE",
"746 -234 LINE",
"746 -331 LINE"
);
},
{
closed = 1;
nodes = (
"426 -331 LINE",
"426 -234 LINE",
"532 -234 LINE",
"532 -331 LINE"
);
},
{
closed = 1;
nodes = (
"213 -331 LINE",
"213 -234 LINE",
"319 -234 LINE",
"319 -331 LINE"
);
},
{
closed = 1;
nodes = (
"213 -427 LINE",
"213 -523 LINE",
"106 -523 LINE",
"106 -427 LINE"
);
},
{
closed = 1;
nodes = (
"426 -427 LINE",
"426 -523 LINE",
"319 -523 LINE",
"319 -427 LINE"
);
},
{
closed = 1;
nodes = (
"639 -427 LINE",
"639 -523 LINE",
"532 -523 LINE",
"532 -427 LINE"
);
},
{
closed = 1;
nodes = (
"853 -427 LINE",
"853 -523 LINE",
"746 -523 LINE",
"746 -427 LINE"
);
},
{
closed = 1;
nodes = (
"960 1216 LINE",
"853 1216 LINE",
"853 1314 LINE",
"960 1314 LINE"
);
},
{
closed = 1;
nodes = (
"746 1216 LINE",
"639 1216 LINE",
"639 1314 LINE",
"746 1314 LINE"
);
},
{
closed = 1;
nodes = (
"532 1216 LINE",
"426 1216 LINE",
"426 1314 LINE",
"532 1314 LINE"
);
},
{
closed = 1;
nodes = (
"319 1216 LINE",
"213 1216 LINE",
"213 1314 LINE",
"319 1314 LINE"
);
},
{
closed = 1;
nodes = (
"853 1408 LINE",
"746 1408 LINE",
"746 1506 LINE",
"853 1506 LINE"
);
},
{
closed = 1;
nodes = (
"639 1408 LINE",
"532 1408 LINE",
"532 1506 LINE",
"639 1506 LINE"
);
},
{
closed = 1;
nodes = (
"426 1408 LINE",
"319 1408 LINE",
"319 1506 LINE",
"426 1506 LINE"
);
},
{
closed = 1;
nodes = (
"213 1408 LINE",
"106 1408 LINE",
"106 1506 LINE",
"213 1506 LINE"
);
},
{
closed = 1;
nodes = (
"1067 1119 LINE",
"1067 1023 LINE",
"960 1023 LINE",
"960 1119 LINE"
);
},
{
closed = 1;
nodes = (
"1280 1119 LINE",
"1280 1023 LINE",
"1173 1023 LINE",
"1173 1119 LINE"
);
},
{
closed = 1;
nodes = (
"1386 829 LINE",
"1280 829 LINE",
"1280 927 LINE",
"1386 927 LINE"
);
},
{
closed = 1;
nodes = (
"1173 829 LINE",
"1067 829 LINE",
"1067 927 LINE",
"1173 927 LINE"
);
},
{
closed = 1;
nodes = (
"1067 732 LINE",
"1067 636 LINE",
"960 636 LINE",
"960 732 LINE"
);
},
{
closed = 1;
nodes = (
"1280 732 LINE",
"1280 636 LINE",
"1173 636 LINE",
"1173 732 LINE"
);
},
{
closed = 1;
nodes = (
"1173 444 LINE",
"1067 444 LINE",
"1067 540 LINE",
"1173 540 LINE"
);
},
{
closed = 1;
nodes = (
"1386 540 LINE",
"1386 444 LINE",
"1280 444 LINE",
"1280 540 LINE"
);
},
{
closed = 1;
nodes = (
"1067 345 LINE",
"1067 249 LINE",
"960 249 LINE",
"960 345 LINE"
);
},
{
closed = 1;
nodes = (
"1173 249 LINE",
"1173 345 LINE",
"1280 345 LINE",
"1280 249 LINE"
);
},
{
closed = 1;
nodes = (
"1280 56 LINE",
"1280 153 LINE",
"1386 153 LINE",
"1386 56 LINE"
);
},
{
closed = 1;
nodes = (
"1067 56 LINE",
"1067 153 LINE",
"1173 153 LINE",
"1173 56 LINE"
);
},
{
closed = 1;
nodes = (
"1067 -42 LINE",
"1067 -136 LINE",
"960 -136 LINE",
"960 -42 LINE"
);
},
{
closed = 1;
nodes = (
"1280 -42 LINE",
"1280 -136 LINE",
"1173 -136 LINE",
"1173 -42 LINE"
);
},
{
closed = 1;
nodes = (
"1280 -331 LINE",
"1280 -234 LINE",
"1386 -234 LINE",
"1386 -331 LINE"
);
},
{
closed = 1;
nodes = (
"1067 -331 LINE",
"1067 -234 LINE",
"1173 -234 LINE",
"1173 -331 LINE"
);
},
{
closed = 1;
nodes = (
"1067 -427 LINE",
"1067 -523 LINE",
"960 -523 LINE",
"960 -427 LINE"
);
},
{
closed = 1;
nodes = (
"1280 -427 LINE",
"1280 -523 LINE",
"1173 -523 LINE",
"1173 -427 LINE"
);
},
{
closed = 1;
nodes = (
"1386 1216 LINE",
"1280 1216 LINE",
"1280 1314 LINE",
"1386 1314 LINE"
);
},
{
closed = 1;
nodes = (
"1173 1216 LINE",
"1067 1216 LINE",
"1067 1314 LINE",
"1173 1314 LINE"
);
},
{
closed = 1;
nodes = (
"1280 1408 LINE",
"1173 1408 LINE",
"1173 1506 LINE",
"1280 1506 LINE"
);
},
{
closed = 1;
nodes = (
"1067 1408 LINE",
"960 1408 LINE",
"960 1506 LINE",
"1067 1506 LINE"
);
}
);
width = 1493;
}
);
note = dkshade;
unicode = 2593;
},
{
glyphname = filledbox;
lastChange = "2019-11-19 22:35:12 +0000";
layers = (
{
layerId = "E64FF656-58E6-4C13-B3CC-343A43FBFB06";
paths = (
{
closed = 1;
nodes = (
"123 117 LINE",
"1114 117 LINE",
"1114 1108 LINE",
"123 1108 LINE"
);
}
);
width = 1237;
}
);
note = filledbox;
unicode = 25A0;
},
{
glyphname = filledrect;
lastChange = "2019-11-19 22:35:12 +0000";
layers = (
{
layerId = "E64FF656-58E6-4C13-B3CC-343A43FBFB06";
paths = (
{
closed = 1;
nodes = (
"0 0 LINE",
"2048 0 LINE",
"2048 616 LINE",
"0 616 LINE"
);
}
);
width = 2048;
}
);
note = filledrect;
unicode = 25AC;
},
{
glyphname = triagup;
lastChange = "2019-11-19 22:35:12 +0000";
layers = (
{
layerId = "E64FF656-58E6-4C13-B3CC-343A43FBFB06";
paths = (
{
closed = 1;
nodes = (
"1612 0 LINE",
"1014 1198 LINE",
"414 0 LINE"
);
}
);
width = 2027;
}
);
note = triagup;
unicode = 25B2;
},
{
glyphname = triagrt;
lastChange = "2019-11-19 22:35:12 +0000";
layers = (
{
layerId = "E64FF656-58E6-4C13-B3CC-343A43FBFB06";
paths = (
{
closed = 1;
nodes = (
"401 -27 LINE",
"1626 586 LINE",
"401 1196 LINE"
);
}
);
width = 2027;
}
);
note = triagrt;
unicode = 25BA;
},
{
glyphname = triagdn;
lastChange = "2019-11-19 22:35:12 +0000";
layers = (
{
layerId = "E64FF656-58E6-4C13-B3CC-343A43FBFB06";
paths = (
{
closed = 1;
nodes = (
"414 1171 LINE",
"1014 -27 LINE",
"1612 1171 LINE"
);
}
);
width = 2027;
}
);
note = triagdn;
unicode = 25BC;
},
{
glyphname = triaglf;
lastChange = "2019-11-19 22:35:12 +0000";
layers = (
{
layerId = "E64FF656-58E6-4C13-B3CC-343A43FBFB06";
paths = (
{
closed = 1;
nodes = (
"401 586 LINE",
"1626 -27 LINE",
"1626 1196 LINE"
);
}
);
width = 2027;
}
);
note = triaglf;
unicode = 25C4;
},
{
glyphname = circle;
lastChange = "2019-11-19 22:35:12 +0000";
layers = (
{
layerId = "E64FF656-58E6-4C13-B3CC-343A43FBFB06";
paths = (
{
closed = 1;
nodes = (
"167 490 OFFCURVE",
"287 282 OFFCURVE",
"495 162 OFFCURVE",
"617 162 QCURVE SMOOTH",
"740 162 OFFCURVE",
"949 282 OFFCURVE",
"1070 491 OFFCURVE",
"1070 612 QCURVE SMOOTH",
"1070 733 OFFCURVE",
"949 944 OFFCURVE",
"739 1065 OFFCURVE",
"617 1065 QCURVE SMOOTH",
"496 1065 OFFCURVE",
"287 944 OFFCURVE",
"167 734 OFFCURVE",
"167 612 QCURVE SMOOTH"
);
},
{
closed = 1;
nodes = (
"253 712 OFFCURVE",
"351 881 OFFCURVE",
"520 979 OFFCURVE",
"617 979 QCURVE SMOOTH",
"715 979 OFFCURVE",
"886 881 OFFCURVE",
"984 710 OFFCURVE",
"984 612 QCURVE SMOOTH",
"984 514 OFFCURVE",
"884 344 OFFCURVE",
"715 248 OFFCURVE",
"617 248 QCURVE SMOOTH",
"518 248 OFFCURVE",
"351 345 OFFCURVE",
"253 514 OFFCURVE",
"253 612 QCURVE SMOOTH"
);
}
);
width = 1237;
}
);
note = circle;
unicode = 25CB;
},
{
glyphname = invbullet;
lastChange = "2019-11-19 22:35:12 +0000";
layers = (
{
layerId = "E64FF656-58E6-4C13-B3CC-343A43FBFB06";
paths = (
{
closed = 1;
nodes = (
"1196 0 LINE",
"1196 1155 LINE",
"41 1155 LINE",
"41 0 LINE"
);
},
{
closed = 1;
nodes = (
"176 695 OFFCURVE",
"293 899 OFFCURVE",
"498 1018 OFFCURVE",
"616 1018 QCURVE SMOOTH",
"735 1018 OFFCURVE",
"939 900 OFFCURVE",
"1057 695 OFFCURVE",
"1057 577 QCURVE SMOOTH",
"1057 460 OFFCURVE",
"939 255 OFFCURVE",
"734 137 OFFCURVE",
"616 137 QCURVE SMOOTH",
"497 137 OFFCURVE",
"294 255 OFFCURVE",
"176 459 OFFCURVE",
"176 577 QCURVE SMOOTH"
);
}
);
width = 1237;
}
);
note = invbullet;
unicode = 25D8;
},
{
glyphname = invcircle;
lastChange = "2019-11-19 22:35:12 +0000";
layers = (
{
layerId = "E64FF656-58E6-4C13-B3CC-343A43FBFB06";
paths = (
{
closed = 1;
nodes = (
"1196 0 LINE",
"1196 1155 LINE",
"41 1155 LINE",
"41 0 LINE"
);
},
{
closed = 1;
nodes = (
"253 480 OFFCURVE",
"351 310 OFFCURVE",
"521 212 OFFCURVE",
"618 212 QCURVE SMOOTH",
"715 212 OFFCURVE",
"885 310 OFFCURVE",
"983 480 OFFCURVE",
"983 577 QCURVE SMOOTH",
"983 674 OFFCURVE",
"885 844 OFFCURVE",
"715 942 OFFCURVE",
"618 942 QCURVE SMOOTH",
"521 942 OFFCURVE",
"351 844 OFFCURVE",
"253 674 OFFCURVE",
"253 577 QCURVE SMOOTH"
);
},
{
closed = 1;
nodes = (
"176 695 OFFCURVE",
"293 899 OFFCURVE",
"498 1018 OFFCURVE",
"616 1018 QCURVE SMOOTH",
"735 1018 OFFCURVE",
"939 900 OFFCURVE",
"1057 695 OFFCURVE",
"1057 577 QCURVE SMOOTH",
"1057 460 OFFCURVE",
"939 255 OFFCURVE",
"734 137 OFFCURVE",
"616 137 QCURVE SMOOTH",
"497 137 OFFCURVE",
"294 255 OFFCURVE",
"176 459 OFFCURVE",
"176 577 QCURVE SMOOTH"
);
}
);
width = 1237;
}
);
note = invcircle;
unicode = 25D9;
},
{
glyphname = smileface;
lastChange = "2019-11-19 22:35:12 +0000";
layers = (
{
layerId = "E64FF656-58E6-4C13-B3CC-343A43FBFB06";
paths = (
{
closed = 1;
nodes = (
"1657 833 OFFCURVE",
"1303 1196 OFFCURVE",
"1045 1196 QCURVE SMOOTH",
"787 1196 OFFCURVE",
"433 834 OFFCURVE",
"433 584 QCURVE SMOOTH",
"434 331 OFFCURVE",
"792 -27 OFFCURVE",
"1045 -27 QCURVE SMOOTH",
"1297 -26 OFFCURVE",
"1657 330 OFFCURVE",
"1657 584 QCURVE SMOOTH"
);
},
{
closed = 1;
nodes = (
"1566 369 OFFCURVE",
"1262 61 OFFCURVE",
"1045 61 QCURVE SMOOTH",
"829 62 OFFCURVE",
"523 368 OFFCURVE",
"523 584 QCURVE SMOOTH",
"523 801 OFFCURVE",
"676 954 QCURVE SMOOTH",
"827 1108 OFFCURVE",
"1045 1108 QCURVE SMOOTH",
"1261 1107 OFFCURVE",
"1567 801 OFFCURVE",
"1567 584 QCURVE SMOOTH"
);
},
{
closed = 1;
nodes = (
"889 743 OFFCURVE",
"843 788 OFFCURVE",
"811 788 QCURVE SMOOTH",
"779 788 OFFCURVE",
"734 743 OFFCURVE",
"734 711 QCURVE SMOOTH",
"734 679 OFFCURVE",
"779 633 OFFCURVE",
"811 633 QCURVE SMOOTH",
"843 633 OFFCURVE",
"889 679 OFFCURVE",
"889 711 QCURVE SMOOTH"
);
},
{
closed = 1;
nodes = (
"1356 743 OFFCURVE",
"1312 788 OFFCURVE",
"1280 788 QCURVE SMOOTH",
"1248 788 OFFCURVE",
"1201 743 OFFCURVE",
"1201 711 QCURVE SMOOTH",
"1201 679 OFFCURVE",
"1248 633 OFFCURVE",
"1280 633 QCURVE SMOOTH",
"1312 633 OFFCURVE",
"1356 679 OFFCURVE",
"1356 711 QCURVE SMOOTH"
);
},
{
closed = 1;
nodes = (
"762 387 LINE",
"860 201 OFFCURVE",
"1045 201 QCURVE SMOOTH",
"1230 201 OFFCURVE",
"1328 387 QCURVE",
"1266 422 LINE",
"1190 285 OFFCURVE",
"1045 285 QCURVE SMOOTH",
"898 285 OFFCURVE",
"822 422 QCURVE"
);
}
);
width = 2091;
}
);
note = smileface;
unicode = 263A;
},
{
glyphname = invsmileface;
lastChange = "2019-11-19 22:35:12 +0000";
layers = (
{
layerId = "E64FF656-58E6-4C13-B3CC-343A43FBFB06";
paths = (
{
closed = 1;
nodes = (
"1689 833 OFFCURVE",
"1335 1196 OFFCURVE",
"1077 1196 QCURVE SMOOTH",
"819 1196 OFFCURVE",
"465 834 OFFCURVE",
"465 584 QCURVE SMOOTH",
"466 331 OFFCURVE",
"824 -27 OFFCURVE",
"1077 -27 QCURVE SMOOTH",
"1329 -26 OFFCURVE",
"1689 330 OFFCURVE",
"1689 584 QCURVE SMOOTH"
);
},
{
closed = 1;
nodes = (
"921 679 OFFCURVE",
"875 633 OFFCURVE",
"843 633 QCURVE SMOOTH",
"811 633 OFFCURVE",
"766 679 OFFCURVE",
"766 711 QCURVE SMOOTH",
"766 743 OFFCURVE",
"811 788 OFFCURVE",
"843 788 QCURVE SMOOTH",
"875 788 OFFCURVE",
"921 743 OFFCURVE",
"921 711 QCURVE SMOOTH"
);
},
{
closed = 1;
nodes = (
"1388 679 OFFCURVE",
"1344 633 OFFCURVE",
"1312 633 QCURVE SMOOTH",
"1280 633 OFFCURVE",
"1233 679 OFFCURVE",
"1233 711 QCURVE SMOOTH",
"1233 743 OFFCURVE",
"1280 788 OFFCURVE",
"1312 788 QCURVE SMOOTH",
"1344 788 OFFCURVE",
"1388 743 OFFCURVE",
"1388 711 QCURVE SMOOTH"
);
},
{
closed = 1;
nodes = (
"854 422 LINE",
"930 285 OFFCURVE",
"1077 285 QCURVE SMOOTH",
"1222 285 OFFCURVE",
"1298 422 QCURVE",
"1360 387 LINE",
"1262 201 OFFCURVE",
"1077 201 QCURVE SMOOTH",
"892 201 OFFCURVE",
"794 387 QCURVE"
);
}
);
width = 2155;
}
);
note = invsmileface;
unicode = 263B;
},
{
glyphname = sun;
lastChange = "2019-11-19 22:35:12 +0000";
layers = (
{
layerId = "E64FF656-58E6-4C13-B3CC-343A43FBFB06";
paths = (
{
closed = 1;
nodes = (
"905 866 LINE",
"792 853 OFFCURVE",
"682 776 QCURVE",
"493 958 LINE",
"453 909 LINE",
"633 725 LINE",
"553 630 OFFCURVE",
"541 502 QCURVE",
"326 502 LINE",
"326 440 LINE",
"541 440 LINE",
"557 315 OFFCURVE",
"635 215 QCURVE",
"453 31 LINE",
"496 -14 LINE",
"684 166 LINE",
"784 93 OFFCURVE",
"905 76 QCURVE",
"905 -141 LINE",
"971 -141 LINE",
"971 76 LINE",
"1024 84 OFFCURVE",
"1086 100 OFFCURVE",
"1160 142 OFFCURVE",
"1196 168 QCURVE",
"1378 -14 LINE",
"1427 29 LINE",
"1243 217 LINE",
"1318 313 OFFCURVE",
"1335 438 QCURVE",
"1550 438 LINE",
"1550 500 LINE",
"1335 500 LINE",
"1329 616 OFFCURVE",
"1243 729 QCURVE",
"1427 913 LINE",
"1382 958 LINE",
"1196 776 LINE",
"1136 821 OFFCURVE",
"1037 860 OFFCURVE",
"971 866 QCURVE",
"971 1083 LINE",
"905 1083 LINE"
);
},
{
closed = 1;
nodes = (
"1074 805 OFFCURVE",
"1270 607 OFFCURVE",
"1270 471 QCURVE SMOOTH",
"1270 333 OFFCURVE",
"1171 236 QCURVE SMOOTH",
"1075 139 OFFCURVE",
"936 139 QCURVE SMOOTH",
"799 139 OFFCURVE",
"604 335 OFFCURVE",
"604 471 QCURVE SMOOTH",
"604 607 OFFCURVE",
"797 805 OFFCURVE",
"936 805 QCURVE SMOOTH"
);
}
);
width = 1877;
}
);
note = sun;
unicode = 263C;
},
{
glyphname = female;
lastChange = "2019-11-19 22:35:12 +0000";
layers = (
{
layerId = "E64FF656-58E6-4C13-B3CC-343A43FBFB06";
paths = (
{
closed = 1;
nodes = (
"732 412 LINE",
"474 412 LINE",
"474 342 LINE",
"732 342 LINE",
"732 80 LINE",
"806 80 LINE",
"806 342 LINE",
"1062 342 LINE",
"1062 412 LINE",
"806 412 LINE",
"806 578 LINE",
"912 591 OFFCURVE",
"1056 753 OFFCURVE",
"1056 862 QCURVE SMOOTH",
"1056 984 OFFCURVE",
"970 1067 QCURVE SMOOTH",
"887 1153 OFFCURVE",
"769 1153 QCURVE SMOOTH",
"655 1153 OFFCURVE",
"481 988 OFFCURVE",
"481 862 QCURVE SMOOTH",
"481 787 OFFCURVE",
"549 665 OFFCURVE",
"656 589 OFFCURVE",
"732 578 QCURVE"
);
},
{
closed = 1;
nodes = (
"824 1069 OFFCURVE",
"917 1017 OFFCURVE",
"974 922 OFFCURVE",
"974 864 QCURVE SMOOTH",
"974 780 OFFCURVE",
"913 719 QCURVE SMOOTH",
"854 657 OFFCURVE",
"767 657 QCURVE SMOOTH",
"685 657 OFFCURVE",
"562 778 OFFCURVE",
"562 864 QCURVE SMOOTH",
"562 921 OFFCURVE",
"619 1016 OFFCURVE",
"711 1069 OFFCURVE",
"767 1069 QCURVE SMOOTH"
);
}
);
width = 1536;
}
);
note = female;
unicode = 2640;
},
{
glyphname = male;
lastChange = "2019-11-19 22:35:12 +0000";
layers = (
{
layerId = "E64FF656-58E6-4C13-B3CC-343A43FBFB06";
paths = (
{
closed = 1;
nodes = (
"782 782 LINE",
"699 825 OFFCURVE",
"628 825 QCURVE SMOOTH",
"506 825 OFFCURVE",
"337 655 OFFCURVE",
"337 535 QCURVE SMOOTH",
"337 413 OFFCURVE",
"510 250 OFFCURVE",
"626 250 QCURVE SMOOTH",
"742 250 OFFCURVE",
"917 424 OFFCURVE",
"917 549 QCURVE SMOOTH",
"917 658 OFFCURVE",
"833 739 QCURVE",
"1070 977 LINE",
"1083 927 OFFCURVE",
"1119 837 OFFCURVE",
"1156 772 OFFCURVE",
"1175 772 QCURVE",
"1189 778 LINE",
"1193 784 OFFCURVE",
"1193 793 QCURVE",
"1189 825 LINE",
"1177 876 OFFCURVE",
"1177 954 QCURVE SMOOTH",
"1177 1052 OFFCURVE",
"1193 1112 QCURVE SMOOTH",
"1199 1139 LINE",
"1199 1153 OFFCURVE",
"1183 1153 QCURVE SMOOTH",
"1170 1153 OFFCURVE",
"1134 1141 QCURVE SMOOTH",
"1093 1128 OFFCURVE",
"1005 1128 QCURVE SMOOTH",
"946 1128 OFFCURVE",
"878 1145 QCURVE",
"845 1149 LINE",
"837 1149 OFFCURVE",
"831 1145 QCURVE",
"825 1136 OFFCURVE",
"825 1128 QCURVE SMOOTH",
"825 1115 OFFCURVE",
"833 1110 QCURVE",
"876 1067 OFFCURVE",
"1023 1024 QCURVE"
);
},
{
closed = 1;
nodes = (
"715 750 OFFCURVE",
"839 626 OFFCURVE",
"839 539 QCURVE SMOOTH",
"839 451 OFFCURVE",
"717 326 OFFCURVE",
"628 326 QCURVE SMOOTH",
"541 326 OFFCURVE",
"415 444 OFFCURVE",
"415 539 QCURVE SMOOTH",
"415 628 OFFCURVE",
"539 750 OFFCURVE",
"628 750 QCURVE SMOOTH"
);
}
);
width = 1536;
}
);
note = male;
unicode = 2642;
},
{
glyphname = spade;
lastChange = "2019-11-19 22:35:12 +0000";
layers = (
{
layerId = "E64FF656-58E6-4C13-B3CC-343A43FBFB06";
paths = (
{
closed = 1;
nodes = (
"518 1106 OFFCURVE",
"386 920 OFFCURVE",
"247 801 QCURVE SMOOTH",
"148 719 OFFCURVE",
"59 583 OFFCURVE",
"59 494 QCURVE SMOOTH",
"59 402 OFFCURVE",
"189 274 OFFCURVE",
"278 274 QCURVE SMOOTH",
"448 274 OFFCURVE",
"538 465 QCURVE",
"538 451 LINE SMOOTH",
"538 306 OFFCURVE",
"451 134 OFFCURVE",
"279 37 OFFCURVE",
"155 37 QCURVE",
"149 0 LINE",
"941 0 LINE",
"933 37 LINE",
"801 46 OFFCURVE",
"638 140 OFFCURVE",
"559 306 OFFCURVE",
"556 465 QCURVE",
"655 274 OFFCURVE",
"812 274 QCURVE SMOOTH",
"899 274 OFFCURVE",
"1029 402 OFFCURVE",
"1029 498 QCURVE SMOOTH",
"1027 569 OFFCURVE",
"957 701 OFFCURVE",
"816 827 QCURVE SMOOTH",
"665 966 OFFCURVE",
"569 1135 OFFCURVE",
"544 1231 QCURVE"
);
}
);
width = 1088;
}
);
note = spade;
unicode = 2660;
},
{
glyphname = club;
lastChange = "2019-11-19 22:35:12 +0000";
layers = (
{
layerId = "E64FF656-58E6-4C13-B3CC-343A43FBFB06";
paths = (
{
closed = 1;
nodes = (
"1086 35 LINE",
"972 56 OFFCURVE",
"845 109 OFFCURVE",
"736 229 OFFCURVE",
"687 382 OFFCURVE",
"682 508 QCURVE",
"743 403 OFFCURVE",
"838 321 OFFCURVE",
"956 272 OFFCURVE",
"1012 272 QCURVE SMOOTH",
"1128 272 OFFCURVE",
"1284 437 OFFCURVE",
"1284 553 QCURVE SMOOTH",
"1284 669 OFFCURVE",
"1211 745 QCURVE SMOOTH",
"1143 823 OFFCURVE",
"1038 823 QCURVE SMOOTH",
"999 823 OFFCURVE",
"977 815 QCURVE",
"961 812 OFFCURVE",
"877 772 QCURVE",
"946 870 OFFCURVE",
"946 956 QCURVE SMOOTH",
"946 1063 OFFCURVE",
"786 1223 OFFCURVE",
"670 1223 QCURVE SMOOTH",
"557 1223 OFFCURVE",
"395 1073 OFFCURVE",
"395 952 QCURVE SMOOTH",
"395 914 OFFCURVE",
"406 877 QCURVE",
"423 837 OFFCURVE",
"461 772 QCURVE",
"361 823 OFFCURVE",
"299 823 QCURVE SMOOTH",
"206 822 OFFCURVE",
"60 664 OFFCURVE",
"60 549 QCURVE SMOOTH",
"60 472 OFFCURVE",
"130 346 OFFCURVE",
"259 270 OFFCURVE",
"336 270 QCURVE SMOOTH",
"425 270 OFFCURVE",
"603 388 OFFCURVE",
"660 508 QCURVE",
"662 461 LINE SMOOTH",
"662 385 OFFCURVE",
"609 236 OFFCURVE",
"514 116 OFFCURVE",
"395 62 OFFCURVE",
"260 35 QCURVE",
"252 0 LINE",
"1094 0 LINE"
);
}
);
width = 1344;
}
);
note = club;
unicode = 2663;
},
{
glyphname = heart;
lastChange = "2019-11-19 22:35:12 +0000";
layers = (
{
layerId = "E64FF656-58E6-4C13-B3CC-343A43FBFB06";
paths = (
{
closed = 1;
nodes = (
"646 106 OFFCURVE",
"775 319 OFFCURVE",
"915 498 QCURVE SMOOTH",
"1026 635 OFFCURVE",
"1114 825 OFFCURVE",
"1114 911 QCURVE SMOOTH",
"1114 1009 OFFCURVE",
"971 1145 OFFCURVE",
"874 1145 QCURVE SMOOTH",
"786 1145 OFFCURVE",
"644 1028 OFFCURVE",
"610 909 QCURVE",
"572 1029 OFFCURVE",
"429 1143 OFFCURVE",
"342 1143 QCURVE SMOOTH",
"241 1143 OFFCURVE",
"102 1006 OFFCURVE",
"102 899 QCURVE SMOOTH",
"102 833 OFFCURVE",
"156 704 OFFCURVE",
"231 604 QCURVE SMOOTH",
"321 481 LINE SMOOTH",
"497 245 OFFCURVE",
"588 63 OFFCURVE",
"610 -23 QCURVE"
);
}
);
width = 1216;
}
);
note = heart;
unicode = 2665;
},
{
glyphname = diamond;
lastChange = "2019-11-19 22:35:12 +0000";
layers = (
{
layerId = "E64FF656-58E6-4C13-B3CC-343A43FBFB06";
paths = (
{
closed = 1;
nodes = (
"441 1082 OFFCURVE",
"182 737 OFFCURVE",
"66 600 QCURVE",
"151 498 OFFCURVE",
"299 307 OFFCURVE",
"484 46 OFFCURVE",
"521 -25 QCURVE",
"604 123 OFFCURVE",
"910 530 OFFCURVE",
"978 600 QCURVE",
"856 737 OFFCURVE",
"591 1098 OFFCURVE",
"519 1223 QCURVE"
);
}
);
width = 1045;
}
);
note = diamond;
unicode = 2666;
},
{
glyphname = musicalnote;
lastChange = "2019-11-19 22:35:12 +0000";
layers = (
{
layerId = "E64FF656-58E6-4C13-B3CC-343A43FBFB06";
paths = (
{
closed = 1;
nodes = (
"489 303 LINE",
"443 322 OFFCURVE",
"399 322 QCURVE SMOOTH",
"321 322 OFFCURVE",
"196 206 OFFCURVE",
"196 129 QCURVE SMOOTH",
"196 83 OFFCURVE",
"254 29 OFFCURVE",
"311 29 QCURVE SMOOTH",
"418 29 OFFCURVE",
"565 180 OFFCURVE",
"565 303 QCURVE SMOOTH",
"565 809 LINE",
"629 798 OFFCURVE",
"743 640 OFFCURVE",
"743 520 QCURVE SMOOTH",
"743 400 OFFCURVE",
"686 272 QCURVE",
"733 272 LINE",
"827 393 OFFCURVE",
"827 543 QCURVE SMOOTH",
"827 713 OFFCURVE",
"718 860 QCURVE",
"565 1053 LINE",
"565 1153 LINE",
"489 1153 LINE"
);
}
);
width = 1024;
}
);
note = musicalnote;
unicode = 266A;
},
{
glyphname = musicalnotedbl;
lastChange = "2019-11-19 22:35:12 +0000";
layers = (
{
layerId = "E64FF656-58E6-4C13-B3CC-343A43FBFB06";
paths = (
{
closed = 1;
nodes = (
"1263 1159 LINE",
"565 981 LINE",
"565 229 LINE",
"520 248 OFFCURVE",
"475 248 QCURVE SMOOTH",
"396 251 OFFCURVE",
"272 131 OFFCURVE",
"272 55 QCURVE SMOOTH",
"272 10 OFFCURVE",
"330 -43 OFFCURVE",
"387 -43 QCURVE SMOOTH",
"502 -43 OFFCURVE",
"639 112 OFFCURVE",
"639 229 QCURVE SMOOTH",
"639 623 LINE",
"1189 772 LINE",
"1189 324 LINE",
"1147 342 OFFCURVE",
"1099 342 QCURVE SMOOTH",
"1021 342 OFFCURVE",
"899 231 OFFCURVE",
"899 150 QCURVE SMOOTH",
"899 103 OFFCURVE",
"956 49 OFFCURVE",
"1013 49 QCURVE SMOOTH",
"1086 49 OFFCURVE",
"1209 133 OFFCURVE",
"1263 246 OFFCURVE",
"1263 324 QCURVE SMOOTH"
);
},
{
closed = 1;
nodes = (
"639 864 LINE",
"1189 1016 LINE",
"1189 899 LINE",
"639 750 LINE"
);
}
);
width = 1536;
}
);
note = musicalnotedbl;
unicode = 266B;
},
{
glyphname = minute;
lastChange = "2019-11-19 22:35:12 +0000";
layers = (
{
layerId = "E64FF656-58E6-4C13-B3CC-343A43FBFB06";
paths = (
{
closed = 1;
nodes = (
"407 890 LINE",
"565 1409 LINE",
"259 1409 LINE",
"195 890 LINE"
);
}
);
width = 491;
}
);
note = minute;
unicode = 2032;
},
